<?xml version="1.0" standalone="no"?>
<!DOCTYPE svg PUBLIC "-//W3C//DTD SVG 20010904//EN"
 "http://www.w3.org/TR/2001/REC-SVG-20010904/DTD/svg10.dtd">
<svg version="1.0" xmlns="http://www.w3.org/2000/svg"
 width="1206.000000pt" height="1211.000000pt" viewBox="0 0 1206.000000 1211.000000"
 preserveAspectRatio="xMidYMid meet">

<g transform="translate(0.000000,1211.000000) scale(0.100000,-0.100000)"
fill="#000000" stroke="none">
<path d="M0 6070 l0 -6039 2348 -4 c1291 -3 2498 -9 2682 -15 223 -6 450 -6
680 0 193 6 1667 12 3348 15 l3002 4 0 6039 0 6040 -6030 0 -6030 0 0 -6040z
m3421 4774 c75 -22 185 -82 282 -156 80 -60 291 -266 568 -553 187 -195 326
-321 564 -517 307 -252 665 -506 850 -604 129 -69 123 -70 490 99 245 113 359
142 555 141 140 0 184 -6 460 -55 115 -21 236 -34 400 -44 140 -8 324 -27 455
-46 176 -26 253 -33 385 -33 187 -1 207 4 396 93 239 114 337 187 622 463 526
510 921 757 1134 710 148 -34 218 -190 205 -462 -12 -256 -81 -556 -239 -1040
-215 -657 -296 -1014 -304 -1325 -4 -175 6 -244 65 -448 111 -383 117 -472 61
-973 -40 -360 -36 -531 16 -814 88 -467 74 -643 -91 -1210 -145 -500 -155
-711 -49 -1110 64 -245 149 -474 354 -955 255 -597 301 -723 380 -1030 40
-157 119 -523 132 -612 l3 -23 -5063 -2 c-2784 -2 -5062 1 -5062 5 0 14 104
233 262 552 218 440 301 641 359 872 44 174 55 211 146 463 47 129 107 316
135 415 27 99 87 293 133 430 142 423 155 493 155 827 1 488 37 614 270 933
178 243 199 280 347 605 217 475 319 780 370 1104 27 167 24 562 -5 795 -53
422 -132 802 -307 1478 -103 399 -140 730 -116 1023 32 380 118 628 292 844
125 155 241 203 390 160z m2002 -10801 c-29 -2 -78 -2 -110 0 -32 2 -8 3 52 3
61 0 87 -1 58 -3z"/>
<path d="M3291 10738 c-275 -48 -492 -624 -451 -1196 24 -334 91 -658 290
-1401 148 -558 175 -715 170 -1021 -5 -386 -4 -464 10 -520 37 -155 104 -192
215 -115 59 40 97 83 210 238 91 126 122 155 230 222 200 122 233 184 190 360
-31 128 -16 215 80 475 83 223 98 241 276 330 99 50 153 87 274 190 211 180
415 315 590 392 126 55 165 89 165 144 0 46 -27 73 -155 152 -55 34 -159 110
-231 169 -72 59 -214 173 -315 252 -387 305 -587 490 -774 716 -409 494 -598
644 -774 613z m68 -819 c58 -57 140 -271 166 -429 17 -104 51 -229 126 -457
84 -257 94 -321 65 -402 -25 -68 -100 -94 -155 -53 -83 61 -135 180 -151 347
-6 55 -15 116 -21 135 -24 74 -97 120 -192 120 l-33 0 -22 88 c-31 124 -42
203 -42 312 0 163 40 268 127 335 58 44 91 45 132 4z"/>
<path d="M10422 10188 c-153 -23 -401 -167 -631 -367 -36 -31 -182 -170 -325
-309 -298 -290 -305 -295 -642 -458 -204 -100 -214 -106 -214 -133 0 -21 11
-39 40 -64 75 -68 195 -116 455 -181 190 -48 224 -61 285 -113 58 -50 62 -66
32 -133 -19 -40 -26 -72 -26 -115 1 -73 23 -120 106 -225 80 -100 106 -146
118 -209 18 -98 -17 -174 -89 -187 -51 -10 -153 18 -283 77 -62 28 -151 64
-198 81 -161 57 -203 93 -241 213 -30 97 -45 122 -79 140 -65 33 -123 17 -248
-68 -92 -63 -139 -81 -192 -74 -62 8 -85 32 -145 148 -75 143 -146 209 -224
209 -31 0 -64 -30 -80 -73 -6 -15 -19 -94 -30 -175 -13 -101 -31 -180 -55
-253 -49 -146 -47 -151 95 -273 123 -106 161 -123 191 -86 10 12 18 33 18 46
0 57 63 35 82 -27 10 -34 9 -70 -5 -198 -24 -226 -3 -357 81 -484 49 -75 93
-120 226 -232 131 -111 177 -167 241 -295 68 -136 107 -200 201 -325 181 -242
273 -333 431 -429 82 -49 127 -103 154 -185 29 -89 53 -134 111 -213 90 -122
173 -176 241 -157 43 12 62 41 72 112 9 61 36 95 78 99 29 3 32 7 39 45 9 57
19 73 95 156 37 40 76 92 87 117 22 48 23 59 18 410 -1 91 4 235 12 320 7 85
14 229 15 320 2 194 -10 270 -74 470 -94 293 -98 350 -46 655 46 270 60 322
176 674 57 174 127 411 155 526 28 116 78 300 110 410 96 323 103 360 104 525
1 133 -1 149 -22 192 -40 81 -111 112 -220 96z m-884 -3235 c66 -21 136 -80
152 -129 47 -141 -124 -345 -350 -420 -80 -26 -217 -24 -291 4 -102 40 -179
128 -179 204 0 56 39 109 100 140 30 15 73 30 96 34 38 6 44 3 95 -44 67 -61
90 -73 138 -74 95 -1 154 84 155 223 1 90 -1 88 84 62z"/>
<path d="M7383 8226 c-22 -19 -32 -40 -43 -90 l-13 -65 -55 -12 c-68 -14 -112
-4 -245 57 -54 25 -120 47 -145 50 l-47 6 -67 -70 c-101 -104 -146 -120 -272
-95 -39 8 -100 14 -136 14 -123 0 -170 -28 -225 -133 -141 -271 -233 -378
-390 -456 -98 -49 -166 -63 -346 -72 -239 -11 -283 -36 -309 -170 -15 -78 -38
-136 -67 -170 -27 -33 -120 -80 -264 -134 -113 -43 -172 -84 -200 -139 -39
-76 -8 -178 66 -222 79 -46 81 -51 115 -290 17 -123 36 -169 89 -224 59 -61
83 -73 218 -112 179 -51 239 -95 264 -192 9 -37 8 -70 -5 -168 -23 -168 -18
-195 56 -277 37 -42 75 -99 100 -152 22 -47 48 -93 57 -104 30 -34 73 -49 141
-48 105 1 192 40 405 182 111 74 176 109 262 142 171 63 586 272 723 363 302
200 520 522 607 890 19 81 27 470 13 620 -5 50 -12 171 -15 270 -13 383 -54
622 -130 751 -45 77 -91 93 -142 50z m-1227 -1251 c47 -19 59 -60 48 -156 -14
-115 4 -155 85 -191 52 -24 106 -19 166 15 31 17 47 37 70 85 47 98 73 95 172
-18 62 -71 67 -104 28 -162 -18 -27 -39 -42 -82 -57 -91 -33 -103 -42 -143
-101 -158 -233 -504 -152 -705 165 -84 133 -100 257 -43 338 58 81 292 129
404 82z"/>
<path d="M7803 6011 c-12 -6 -24 -19 -28 -30 -15 -48 48 -103 209 -182 135
-66 203 -118 242 -185 23 -39 25 -48 14 -74 -13 -32 -60 -65 -140 -99 -145
-61 -187 -90 -375 -257 -315 -278 -468 -447 -553 -611 -88 -170 51 -88 240
142 92 111 123 138 283 247 77 52 176 119 220 150 110 75 217 132 299 158 92
30 216 30 307 1 170 -54 344 -222 482 -465 25 -42 47 -71 49 -64 13 36 9 211
-6 262 -29 99 -150 206 -358 318 -218 116 -308 189 -308 248 0 25 4 30 23 30
33 0 67 35 67 70 0 27 3 30 33 30 100 1 230 168 197 254 -14 37 -45 49 -110
43 -82 -7 -152 -41 -207 -100 -66 -70 -108 -97 -155 -97 -55 0 -82 17 -167
104 -40 42 -89 83 -108 91 -45 19 -123 27 -150 16z"/>
<path d="M4835 5053 c-55 -5 -140 -25 -167 -39 -40 -21 -78 -92 -78 -145 1
-61 23 -159 45 -196 23 -40 74 -68 150 -83 96 -19 145 -42 249 -115 117 -81
177 -106 260 -106 165 -1 263 133 187 258 -31 50 -101 91 -201 117 -113 29
-145 57 -203 174 -50 102 -81 129 -157 134 -30 2 -68 2 -85 1z"/>
<path d="M9413 4744 c-11 -28 21 -66 120 -144 53 -41 106 -88 118 -104 27 -34
36 -110 19 -160 -11 -33 -15 -37 -42 -34 -29 3 -34 9 -69 97 -44 111 -78 150
-137 158 l-42 6 0 -34 c0 -18 7 -68 16 -110 19 -88 15 -109 -21 -109 -40 0
-78 24 -120 75 -45 56 -71 67 -119 54 -42 -12 -44 -23 -17 -100 48 -139 155
-305 226 -349 19 -12 50 -20 74 -20 39 0 47 5 110 70 73 75 89 83 196 107 202
45 304 169 241 292 -42 80 -181 188 -333 258 -132 61 -208 77 -220 47z"/>
<path d="M6135 4468 c-22 -11 -65 -47 -96 -79 -30 -33 -62 -59 -70 -59 -8 0
-31 16 -50 36 -40 42 -79 64 -113 64 -14 0 -62 -12 -108 -26 -88 -27 -142 -67
-150 -108 -14 -74 53 -107 282 -136 47 -6 123 -17 170 -24 201 -33 339 4 370
100 21 62 -18 183 -72 229 -38 32 -106 33 -163 3z"/>
</g>
</svg>
