M48
; DRILL file {KiCad 7.0.2} date Wed Jul 19 18:17:11 2023
; FORMAT={-:-/ absolute / metric / decimal}
; #@! TF.CreationDate,2023-07-19T18:17:11-07:00
; #@! TF.GenerationSoftware,Kicad,Pcbnew,7.0.2
; #@! TF.FileFunction,Plated,1,2,PTH
FMAT,2
METRIC
; #@! TA.AperFunction,Plated,PTH,ViaDrill
T1C0.400
; #@! TA.AperFunction,Plated,PTH,ComponentDrill
T2C1.000
%
G90
G05
T1
X103.05Y-116.425
X103.075Y-115.1
X104.725Y-122.05
X105.6Y-95.6
X105.85Y-112.7
X105.874Y-85.927
X106.925Y-63.475
X107.575Y-100.925
X110.775Y-67.7
X111.0Y-94.975
X111.15Y-77.65
X112.55Y-65.1
X112.975Y-97.325
X116.725Y-64.375
X117.15Y-127.675
X118.15Y-97.325
X118.225Y-64.125
X118.7Y-65.15
X118.974Y-127.585
X119.112Y-73.25
X121.275Y-126.825
X121.975Y-130.96
X121.975Y-128.027
X122.85Y-68.25
X123.075Y-129.575
X123.325Y-127.95
X123.75Y-100.775
X123.875Y-107.275
X124.2Y-69.425
X124.25Y-104.525
X124.275Y-95.3
X125.125Y-73.7
X125.925Y-95.125
X126.547Y-69.45
X127.6Y-83.4
T2
X115.72Y-134.935
X118.26Y-134.935
X120.8Y-134.935
T0
M30
