G04 #@! TF.GenerationSoftware,KiCad,Pcbnew,7.0.2*
G04 #@! TF.CreationDate,2023-07-19T18:17:07-07:00*
G04 #@! TF.ProjectId,dc31-badge-sao,64633331-2d62-4616-9467-652d73616f2e,rev?*
G04 #@! TF.SameCoordinates,Original*
G04 #@! TF.FileFunction,Profile,NP*
%FSLAX46Y46*%
G04 Gerber Fmt 4.6, Leading zero omitted, Abs format (unit mm)*
G04 Created by KiCad (PCBNEW 7.0.2) date 2023-07-19 18:17:07*
%MOMM*%
%LPD*%
G01*
G04 APERTURE LIST*
G04 #@! TA.AperFunction,Profile*
%ADD10C,0.010000*%
G04 #@! TD*
G04 APERTURE END LIST*
D10*
X101418404Y-59841567D02*
X101440560Y-59843505D01*
X101462758Y-59846552D01*
X101484959Y-59850729D01*
X101507131Y-59856051D01*
X101529234Y-59862535D01*
X113491372Y-63640379D01*
X113513106Y-63647964D01*
X113534183Y-63656551D01*
X113554584Y-63666107D01*
X113574293Y-63676594D01*
X113593292Y-63687979D01*
X113611566Y-63700224D01*
X113629099Y-63713294D01*
X113645870Y-63727154D01*
X113661867Y-63741767D01*
X113677070Y-63757099D01*
X113691463Y-63773112D01*
X113705030Y-63789773D01*
X113717755Y-63807045D01*
X113729619Y-63824892D01*
X113740606Y-63843279D01*
X113750700Y-63862170D01*
X113759884Y-63881529D01*
X113768140Y-63901321D01*
X113775454Y-63921510D01*
X113781805Y-63942061D01*
X113787180Y-63962936D01*
X113791560Y-63984103D01*
X113794930Y-64005522D01*
X113797272Y-64027162D01*
X113798570Y-64048983D01*
X113798805Y-64070952D01*
X113797963Y-64093033D01*
X113796027Y-64115190D01*
X113792979Y-64137386D01*
X113788802Y-64159588D01*
X113783480Y-64181757D01*
X113776996Y-64203861D01*
X113764096Y-64239669D01*
X113756329Y-64261153D01*
X113747581Y-64282012D01*
X113737889Y-64302225D01*
X113727284Y-64321775D01*
X113715803Y-64340642D01*
X113703480Y-64358810D01*
X113690349Y-64376258D01*
X113676446Y-64392970D01*
X113661804Y-64408926D01*
X113646458Y-64424109D01*
X113630443Y-64438500D01*
X113613792Y-64452080D01*
X113596541Y-64464832D01*
X113578724Y-64476737D01*
X113560376Y-64487777D01*
X113541532Y-64497932D01*
X113522224Y-64507187D01*
X113502489Y-64515520D01*
X113482362Y-64522916D01*
X113461875Y-64529354D01*
X113441063Y-64534817D01*
X113419963Y-64539287D01*
X113398607Y-64542744D01*
X113377030Y-64545171D01*
X113355268Y-64546549D01*
X113333354Y-64546860D01*
X113311324Y-64546086D01*
X113289210Y-64544209D01*
X113267048Y-64541209D01*
X113244874Y-64537068D01*
X113222720Y-64531770D01*
X113200622Y-64525294D01*
X101238484Y-60747449D01*
X101216749Y-60739865D01*
X101195673Y-60731277D01*
X101175271Y-60721722D01*
X101155563Y-60711234D01*
X101136563Y-60699850D01*
X101118290Y-60687605D01*
X101100758Y-60674535D01*
X101083985Y-60660675D01*
X101067989Y-60646062D01*
X101052786Y-60630731D01*
X101038392Y-60614717D01*
X101024825Y-60598056D01*
X101012100Y-60580784D01*
X101000237Y-60562937D01*
X100989249Y-60544551D01*
X100979155Y-60525659D01*
X100969970Y-60506300D01*
X100961714Y-60486508D01*
X100954401Y-60466319D01*
X100948048Y-60445769D01*
X100942673Y-60424893D01*
X100938292Y-60403727D01*
X100934922Y-60382307D01*
X100932579Y-60360669D01*
X100931281Y-60338846D01*
X100931044Y-60316877D01*
X100931885Y-60294797D01*
X100933822Y-60272640D01*
X100936869Y-60250444D01*
X100941045Y-60228243D01*
X100946366Y-60206073D01*
X100952848Y-60183970D01*
X100965749Y-60148162D01*
X100973334Y-60126427D01*
X100981922Y-60105351D01*
X100991477Y-60084951D01*
X101001965Y-60065241D01*
X101013350Y-60046242D01*
X101025596Y-60027967D01*
X101038665Y-60010436D01*
X101052525Y-59993664D01*
X101067139Y-59977668D01*
X101082470Y-59962464D01*
X101098484Y-59948070D01*
X101115145Y-59934503D01*
X101132416Y-59921779D01*
X101150263Y-59909914D01*
X101168650Y-59898927D01*
X101187541Y-59888832D01*
X101206900Y-59879649D01*
X101226691Y-59871392D01*
X101246881Y-59864079D01*
X101267431Y-59857727D01*
X101288307Y-59852352D01*
X101309473Y-59847971D01*
X101330893Y-59844601D01*
X101352532Y-59842260D01*
X101374354Y-59840962D01*
X101396323Y-59840726D01*
X101418404Y-59841567D01*
X95010777Y-53053510D02*
X95107216Y-53061969D01*
X95203693Y-53076300D01*
X95300109Y-53096408D01*
X95396369Y-53122200D01*
X95492377Y-53153576D01*
X129750130Y-64492773D01*
X129807462Y-64514306D01*
X129863821Y-64538007D01*
X129919155Y-64563826D01*
X129973414Y-64591711D01*
X130026547Y-64621609D01*
X130078502Y-64653469D01*
X130129228Y-64687239D01*
X130178674Y-64722866D01*
X130226788Y-64760301D01*
X130273520Y-64799487D01*
X130318818Y-64840377D01*
X130362631Y-64882918D01*
X130404907Y-64927055D01*
X130445597Y-64972739D01*
X130484648Y-65019919D01*
X130522008Y-65068540D01*
X132776118Y-68150279D01*
X132833808Y-68234230D01*
X132885402Y-68320567D01*
X132930980Y-68409031D01*
X132970623Y-68499362D01*
X133004408Y-68591303D01*
X133032416Y-68684592D01*
X133054725Y-68778972D01*
X133071416Y-68874184D01*
X133082566Y-68969968D01*
X133088256Y-69066065D01*
X133088565Y-69162217D01*
X133083571Y-69258164D01*
X133073354Y-69353648D01*
X133057993Y-69448410D01*
X133037569Y-69542188D01*
X133012159Y-69634727D01*
X132981843Y-69725766D01*
X132946700Y-69815045D01*
X132906810Y-69902308D01*
X132862252Y-69987292D01*
X132813105Y-70069742D01*
X132759447Y-70149396D01*
X132701360Y-70225997D01*
X132638921Y-70299283D01*
X132572210Y-70368998D01*
X132501307Y-70434883D01*
X132426291Y-70496677D01*
X132347240Y-70554122D01*
X132264233Y-70606959D01*
X132177352Y-70654927D01*
X132086673Y-70697771D01*
X131992278Y-70735229D01*
X131958422Y-70761033D01*
X131868582Y-70837702D01*
X131808166Y-70894764D01*
X131740349Y-70964123D01*
X131667333Y-71045641D01*
X131591316Y-71139177D01*
X131514495Y-71244594D01*
X131439071Y-71361751D01*
X131367243Y-71490509D01*
X131301208Y-71630728D01*
X131243166Y-71782269D01*
X131217830Y-71862243D01*
X131195317Y-71944994D01*
X131175902Y-72030506D01*
X131159858Y-72118762D01*
X131147463Y-72209743D01*
X131138990Y-72303433D01*
X130885785Y-73913515D01*
X130944593Y-73942902D01*
X131006219Y-73968697D01*
X131133958Y-74015034D01*
X131198091Y-74038340D01*
X131261075Y-74063578D01*
X131321919Y-74092131D01*
X131351230Y-74108082D01*
X131379634Y-74125379D01*
X131407007Y-74144196D01*
X131433226Y-74164704D01*
X131458167Y-74187077D01*
X131481705Y-74211487D01*
X131503718Y-74238107D01*
X131524080Y-74267109D01*
X131542668Y-74298667D01*
X131559359Y-74332952D01*
X131574027Y-74370137D01*
X131586550Y-74410396D01*
X131596804Y-74453900D01*
X131604663Y-74500823D01*
X131610005Y-74551337D01*
X131612705Y-74605615D01*
X131612640Y-74663829D01*
X131609686Y-74726152D01*
X131592976Y-75679702D01*
X131591298Y-75724958D01*
X131586419Y-75771762D01*
X131578499Y-75819689D01*
X131567695Y-75868313D01*
X131554168Y-75917208D01*
X131538076Y-75965948D01*
X131519580Y-76014108D01*
X131498839Y-76061262D01*
X131476012Y-76106982D01*
X131451259Y-76150846D01*
X131424739Y-76192426D01*
X131396612Y-76231296D01*
X131367037Y-76267031D01*
X131336174Y-76299206D01*
X131304181Y-76327393D01*
X131287811Y-76339859D01*
X131271219Y-76351168D01*
X131247627Y-76365993D01*
X131223915Y-76379782D01*
X131200115Y-76392569D01*
X131176259Y-76404386D01*
X131152378Y-76415267D01*
X131128501Y-76425245D01*
X131104660Y-76434352D01*
X131080886Y-76442623D01*
X131057210Y-76450091D01*
X131033664Y-76456788D01*
X131010277Y-76462748D01*
X130987081Y-76468004D01*
X130941386Y-76476536D01*
X130896826Y-76482651D01*
X130853649Y-76486615D01*
X130812103Y-76488691D01*
X130772436Y-76489147D01*
X130734895Y-76488247D01*
X130699728Y-76486256D01*
X130667183Y-76483442D01*
X130637507Y-76480068D01*
X130610949Y-76476402D01*
X130698199Y-105150740D01*
X130695370Y-105258793D01*
X130685494Y-105365539D01*
X130668742Y-105470690D01*
X130645289Y-105573957D01*
X130615305Y-105675057D01*
X130578962Y-105773697D01*
X130536432Y-105869591D01*
X130487888Y-105962454D01*
X130433501Y-106051995D01*
X130373443Y-106137930D01*
X130307887Y-106219968D01*
X130237003Y-106297824D01*
X130160964Y-106371210D01*
X130079943Y-106439836D01*
X129994110Y-106503418D01*
X129903638Y-106561667D01*
X125911002Y-108951358D01*
X125823058Y-109007482D01*
X125739488Y-109068634D01*
X125660448Y-109134554D01*
X125586088Y-109204981D01*
X125516563Y-109279653D01*
X125452025Y-109358311D01*
X125392629Y-109440691D01*
X125338527Y-109526537D01*
X125289873Y-109615584D01*
X125246819Y-109707574D01*
X125209520Y-109802243D01*
X125178128Y-109899332D01*
X125152796Y-109998581D01*
X125133678Y-110099727D01*
X125120927Y-110202511D01*
X125114697Y-110306671D01*
X124700780Y-124489922D01*
X124120746Y-144346888D01*
X124115267Y-144442100D01*
X124104530Y-144535552D01*
X124088698Y-144627117D01*
X124067931Y-144716670D01*
X124042387Y-144804085D01*
X124012229Y-144889237D01*
X123977616Y-144971998D01*
X123938707Y-145052244D01*
X123895664Y-145129849D01*
X123848647Y-145204687D01*
X123797815Y-145276632D01*
X123743330Y-145345559D01*
X123685352Y-145411341D01*
X123624039Y-145473854D01*
X123559553Y-145532970D01*
X123492054Y-145588565D01*
X123421703Y-145640512D01*
X123348658Y-145688687D01*
X123273082Y-145732961D01*
X123195133Y-145773212D01*
X123114972Y-145809312D01*
X123032760Y-145841136D01*
X122948655Y-145868558D01*
X122862820Y-145891452D01*
X122775414Y-145909692D01*
X122686597Y-145923153D01*
X122596529Y-145931708D01*
X122505371Y-145935233D01*
X122413283Y-145933601D01*
X122320425Y-145926686D01*
X122226957Y-145914363D01*
X122133040Y-145896505D01*
X119558671Y-145328099D01*
X119484811Y-145310082D01*
X119412202Y-145288711D01*
X119340931Y-145264053D01*
X119271088Y-145236178D01*
X119202762Y-145205153D01*
X119136043Y-145171049D01*
X119071021Y-145133931D01*
X119007782Y-145093872D01*
X118946418Y-145050937D01*
X118887018Y-145005197D01*
X118829670Y-144956719D01*
X118774465Y-144905572D01*
X118721491Y-144851826D01*
X118670837Y-144795547D01*
X118622593Y-144736806D01*
X118576849Y-144675670D01*
X101857022Y-121050737D01*
X101821708Y-120999832D01*
X101788498Y-120947664D01*
X101757413Y-120894310D01*
X101728468Y-120839846D01*
X101701683Y-120784348D01*
X101677074Y-120727893D01*
X101654661Y-120670557D01*
X101634462Y-120612417D01*
X101616494Y-120553548D01*
X101600775Y-120494029D01*
X101587324Y-120433934D01*
X101576158Y-120373340D01*
X101567297Y-120312324D01*
X101560757Y-120250961D01*
X101556557Y-120189330D01*
X101554715Y-120127505D01*
X101214343Y-94140083D01*
X101233705Y-91468554D01*
X101229356Y-68703911D01*
X101170434Y-68681791D01*
X101109745Y-68662075D01*
X100986186Y-68624957D01*
X100924876Y-68605105D01*
X100864919Y-68582756D01*
X100807095Y-68556687D01*
X100779227Y-68541875D01*
X100752185Y-68525673D01*
X100726066Y-68507929D01*
X100700968Y-68488489D01*
X100676988Y-68467200D01*
X100654225Y-68443910D01*
X100632775Y-68418464D01*
X100612735Y-68390710D01*
X100594204Y-68360495D01*
X100577279Y-68327666D01*
X100562058Y-68292069D01*
X100548638Y-68253552D01*
X100537116Y-68211962D01*
X100527589Y-68167143D01*
X100520157Y-68118946D01*
X100514915Y-68067216D01*
X100511962Y-68011799D01*
X100511395Y-67952544D01*
X100475329Y-66998651D01*
X100474559Y-66953414D01*
X100476868Y-66906435D01*
X100482122Y-66858152D01*
X100490187Y-66808994D01*
X100500926Y-66759395D01*
X100514206Y-66709789D01*
X100529891Y-66660610D01*
X100547849Y-66612288D01*
X100567942Y-66565261D01*
X100590036Y-66519957D01*
X100613997Y-66476812D01*
X100639690Y-66436259D01*
X100666980Y-66398731D01*
X100695732Y-66364661D01*
X100725811Y-66334482D01*
X100741307Y-66320986D01*
X100757084Y-66308626D01*
X100786923Y-66287601D01*
X100816997Y-66268423D01*
X100847233Y-66251009D01*
X100877565Y-66235274D01*
X100907923Y-66221136D01*
X100938240Y-66208511D01*
X100968447Y-66197312D01*
X100998476Y-66187459D01*
X101028257Y-66178865D01*
X101057721Y-66171448D01*
X101086802Y-66165124D01*
X101115429Y-66159808D01*
X101143536Y-66155416D01*
X101171052Y-66151865D01*
X101197910Y-66149071D01*
X101224041Y-66146951D01*
X101220349Y-66091810D01*
X101215309Y-66036792D01*
X101208767Y-65981963D01*
X101200565Y-65927389D01*
X101190544Y-65873132D01*
X101178552Y-65819259D01*
X101171766Y-65792486D01*
X101164427Y-65765834D01*
X101156517Y-65739310D01*
X101148016Y-65712922D01*
X101135515Y-65674934D01*
X101122373Y-65638196D01*
X101108670Y-65602708D01*
X101094480Y-65568471D01*
X101079883Y-65535485D01*
X101064955Y-65503750D01*
X101049772Y-65473268D01*
X101034415Y-65444037D01*
X101018958Y-65416061D01*
X101003481Y-65389338D01*
X100972769Y-65339654D01*
X100942900Y-65294989D01*
X100914490Y-65255348D01*
X96976637Y-59921823D01*
X95187840Y-57480725D01*
X95158358Y-57441087D01*
X95127739Y-57402523D01*
X95096008Y-57365037D01*
X95063189Y-57328637D01*
X95029309Y-57293333D01*
X94994390Y-57259129D01*
X94958457Y-57226035D01*
X94921537Y-57194056D01*
X94883653Y-57163202D01*
X94844828Y-57133478D01*
X94805090Y-57104893D01*
X94764462Y-57077453D01*
X94722969Y-57051167D01*
X94680634Y-57026042D01*
X94637486Y-57002085D01*
X94593544Y-56979302D01*
X93729223Y-56550732D01*
X93656501Y-56512323D01*
X93586355Y-56470716D01*
X93518849Y-56426034D01*
X93454043Y-56378405D01*
X93391999Y-56327952D01*
X93332780Y-56274802D01*
X93276445Y-56219078D01*
X93223057Y-56160909D01*
X93172676Y-56100417D01*
X93125364Y-56037730D01*
X93081184Y-55972970D01*
X93040195Y-55906264D01*
X93002460Y-55837737D01*
X92968040Y-55767515D01*
X92936996Y-55695723D01*
X92909392Y-55622485D01*
X92885285Y-55547928D01*
X92864739Y-55472177D01*
X92847816Y-55395356D01*
X92834577Y-55317591D01*
X92825083Y-55239008D01*
X92819395Y-55159732D01*
X92817576Y-55079887D01*
X92819685Y-54999599D01*
X92825785Y-54918994D01*
X92835938Y-54838196D01*
X92850205Y-54757332D01*
X92868647Y-54676526D01*
X92891326Y-54595903D01*
X92918301Y-54515590D01*
X92949637Y-54435709D01*
X92985395Y-54356389D01*
X93030876Y-54266579D01*
X93054435Y-54223351D01*
X93078903Y-54181041D01*
X93104554Y-54139496D01*
X93131660Y-54098568D01*
X93160496Y-54058105D01*
X93191334Y-54017955D01*
X93224446Y-53977969D01*
X93260107Y-53937996D01*
X93298590Y-53897884D01*
X93340167Y-53857482D01*
X93385112Y-53816641D01*
X93433697Y-53775209D01*
X93486197Y-53733036D01*
X93542883Y-53689969D01*
X93979875Y-53375361D01*
X94024574Y-53343269D01*
X94069559Y-53312920D01*
X94114819Y-53284301D01*
X94160340Y-53257402D01*
X94206110Y-53232209D01*
X94252120Y-53208711D01*
X94298354Y-53186896D01*
X94344801Y-53166752D01*
X94391452Y-53148267D01*
X94438291Y-53131430D01*
X94485308Y-53116227D01*
X94532491Y-53102647D01*
X94579827Y-53090679D01*
X94627305Y-53080310D01*
X94674912Y-53071530D01*
X94722637Y-53064324D01*
X94770467Y-53058682D01*
X94818390Y-53054592D01*
X94866395Y-53052041D01*
X94914469Y-53051019D01*
X95010777Y-53053510D01*
X99005044Y-56680679D02*
X99027201Y-56682616D01*
X99049398Y-56685664D01*
X99071600Y-56689841D01*
X99093770Y-56695163D01*
X99115874Y-56701646D01*
X113922451Y-61513448D01*
X113944186Y-61521032D01*
X113965262Y-61529620D01*
X113985663Y-61539175D01*
X114005372Y-61549663D01*
X114024372Y-61561047D01*
X114042646Y-61573292D01*
X114060177Y-61586363D01*
X114076950Y-61600221D01*
X114092946Y-61614835D01*
X114108149Y-61630167D01*
X114122543Y-61646180D01*
X114136110Y-61662841D01*
X114148835Y-61680113D01*
X114160699Y-61697960D01*
X114171687Y-61716347D01*
X114181780Y-61735237D01*
X114190964Y-61754597D01*
X114199221Y-61774388D01*
X114206534Y-61794577D01*
X114212887Y-61815127D01*
X114218261Y-61836003D01*
X114222642Y-61857169D01*
X114226012Y-61878588D01*
X114228354Y-61900228D01*
X114229652Y-61922049D01*
X114229890Y-61944018D01*
X114229047Y-61966098D01*
X114227111Y-61988254D01*
X114224064Y-62010450D01*
X114219888Y-62032651D01*
X114214566Y-62054821D01*
X114208083Y-62076923D01*
X114195187Y-62112735D01*
X114187594Y-62134476D01*
X114178984Y-62155569D01*
X114169392Y-62175996D01*
X114158856Y-62195740D01*
X114147414Y-62214783D01*
X114135101Y-62233107D01*
X114121957Y-62250693D01*
X114108017Y-62267525D01*
X114093319Y-62283584D01*
X114077900Y-62298852D01*
X114061798Y-62313310D01*
X114045050Y-62326943D01*
X114027693Y-62339730D01*
X114009764Y-62351654D01*
X113991300Y-62362699D01*
X113972340Y-62372845D01*
X113952919Y-62382075D01*
X113933075Y-62390370D01*
X113912846Y-62397713D01*
X113892268Y-62404086D01*
X113871379Y-62409470D01*
X113850216Y-62413848D01*
X113828816Y-62417203D01*
X113807217Y-62419515D01*
X113785456Y-62420768D01*
X113763569Y-62420943D01*
X113741595Y-62420023D01*
X113719570Y-62417988D01*
X113697532Y-62414822D01*
X113675517Y-62410508D01*
X113653564Y-62405024D01*
X113631709Y-62398356D01*
X98825125Y-57586560D01*
X98803389Y-57578977D01*
X98782313Y-57570389D01*
X98761912Y-57560834D01*
X98742203Y-57550346D01*
X98723204Y-57538962D01*
X98704930Y-57526717D01*
X98687398Y-57513647D01*
X98670626Y-57499787D01*
X98654629Y-57485174D01*
X98639427Y-57469842D01*
X98625033Y-57453828D01*
X98611466Y-57437167D01*
X98598741Y-57419895D01*
X98586877Y-57402049D01*
X98575889Y-57383661D01*
X98565795Y-57364771D01*
X98556611Y-57345412D01*
X98548354Y-57325620D01*
X98541042Y-57305431D01*
X98534689Y-57284881D01*
X98529313Y-57264005D01*
X98524933Y-57242839D01*
X98521562Y-57221418D01*
X98519220Y-57199780D01*
X98517922Y-57177958D01*
X98517685Y-57155989D01*
X98518526Y-57133909D01*
X98520462Y-57111753D01*
X98523509Y-57089556D01*
X98527685Y-57067354D01*
X98533006Y-57045185D01*
X98539489Y-57023081D01*
X98552389Y-56987274D01*
X98559974Y-56965539D01*
X98568562Y-56944462D01*
X98578118Y-56924062D01*
X98588606Y-56904353D01*
X98599990Y-56885354D01*
X98612235Y-56867080D01*
X98625305Y-56849547D01*
X98639166Y-56832775D01*
X98653779Y-56816779D01*
X98669111Y-56801576D01*
X98685124Y-56787182D01*
X98701784Y-56773614D01*
X98719056Y-56760890D01*
X98736904Y-56749025D01*
X98755291Y-56738038D01*
X98774181Y-56727944D01*
X98793541Y-56718760D01*
X98813332Y-56710503D01*
X98833521Y-56703191D01*
X98854071Y-56696838D01*
X98874947Y-56691464D01*
X98896113Y-56687083D01*
X98917533Y-56683714D01*
X98939172Y-56681371D01*
X98960994Y-56680073D01*
X98982963Y-56679837D01*
X99005044Y-56680679D01*
M02*
