G04 #@! TF.GenerationSoftware,KiCad,Pcbnew,7.0.2*
G04 #@! TF.CreationDate,2023-07-19T18:17:07-07:00*
G04 #@! TF.ProjectId,dc31-badge-sao,64633331-2d62-4616-9467-652d73616f2e,rev?*
G04 #@! TF.SameCoordinates,Original*
G04 #@! TF.FileFunction,Soldermask,Bot*
G04 #@! TF.FilePolarity,Negative*
%FSLAX46Y46*%
G04 Gerber Fmt 4.6, Leading zero omitted, Abs format (unit mm)*
G04 Created by KiCad (PCBNEW 7.0.2) date 2023-07-19 18:17:07*
%MOMM*%
%LPD*%
G01*
G04 APERTURE LIST*
G04 Aperture macros list*
%AMRoundRect*
0 Rectangle with rounded corners*
0 $1 Rounding radius*
0 $2 $3 $4 $5 $6 $7 $8 $9 X,Y pos of 4 corners*
0 Add a 4 corners polygon primitive as box body*
4,1,4,$2,$3,$4,$5,$6,$7,$8,$9,$2,$3,0*
0 Add four circle primitives for the rounded corners*
1,1,$1+$1,$2,$3*
1,1,$1+$1,$4,$5*
1,1,$1+$1,$6,$7*
1,1,$1+$1,$8,$9*
0 Add four rect primitives between the rounded corners*
20,1,$1+$1,$2,$3,$4,$5,0*
20,1,$1+$1,$4,$5,$6,$7,0*
20,1,$1+$1,$6,$7,$8,$9,0*
20,1,$1+$1,$8,$9,$2,$3,0*%
%AMRotRect*
0 Rectangle, with rotation*
0 The origin of the aperture is its center*
0 $1 length*
0 $2 width*
0 $3 Rotation angle, in degrees counterclockwise*
0 Add horizontal line*
21,1,$1,$2,0,0,$3*%
%AMFreePoly0*
4,1,14,0.085355,0.385355,0.100000,0.350000,0.100000,-0.350000,0.085355,-0.385355,0.050000,-0.400000,-0.050000,-0.400000,-0.085355,-0.385355,-0.100000,-0.350000,-0.100000,0.299289,-0.085355,0.334644,-0.034644,0.385355,0.000711,0.400000,0.050000,0.400000,0.085355,0.385355,0.085355,0.385355,$1*%
%AMFreePoly1*
4,1,14,0.034644,0.385355,0.085355,0.334644,0.100000,0.299289,0.100000,-0.350000,0.085355,-0.385355,0.050000,-0.400000,-0.050000,-0.400000,-0.085355,-0.385355,-0.100000,-0.350000,-0.100000,0.350000,-0.085355,0.385355,-0.050000,0.400000,-0.000711,0.400000,0.034644,0.385355,0.034644,0.385355,$1*%
%AMFreePoly2*
4,1,14,0.385355,0.085355,0.400000,0.050000,0.400000,-0.050000,0.385355,-0.085355,0.350000,-0.100000,-0.299289,-0.100000,-0.334644,-0.085355,-0.385355,-0.034644,-0.400000,0.000711,-0.400000,0.050000,-0.385355,0.085355,-0.350000,0.100000,0.350000,0.100000,0.385355,0.085355,0.385355,0.085355,$1*%
%AMFreePoly3*
4,1,14,0.385355,0.085355,0.400000,0.050000,0.400000,-0.050000,0.385355,-0.085355,0.350000,-0.100000,-0.350000,-0.100000,-0.385355,-0.085355,-0.400000,-0.050000,-0.400000,-0.000711,-0.385355,0.034644,-0.334644,0.085355,-0.299289,0.100000,0.350000,0.100000,0.385355,0.085355,0.385355,0.085355,$1*%
%AMFreePoly4*
4,1,14,0.085355,0.385355,0.100000,0.350000,0.100000,-0.299289,0.085355,-0.334644,0.034644,-0.385355,-0.000711,-0.400000,-0.050000,-0.400000,-0.085355,-0.385355,-0.100000,-0.350000,-0.100000,0.350000,-0.085355,0.385355,-0.050000,0.400000,0.050000,0.400000,0.085355,0.385355,0.085355,0.385355,$1*%
%AMFreePoly5*
4,1,14,0.085355,0.385355,0.100000,0.350000,0.100000,-0.350000,0.085355,-0.385355,0.050000,-0.400000,0.000711,-0.400000,-0.034644,-0.385355,-0.085355,-0.334644,-0.100000,-0.299289,-0.100000,0.350000,-0.085355,0.385355,-0.050000,0.400000,0.050000,0.400000,0.085355,0.385355,0.085355,0.385355,$1*%
%AMFreePoly6*
4,1,14,0.334644,0.085355,0.385355,0.034644,0.400000,-0.000711,0.400000,-0.050000,0.385355,-0.085355,0.350000,-0.100000,-0.350000,-0.100000,-0.385355,-0.085355,-0.400000,-0.050000,-0.400000,0.050000,-0.385355,0.085355,-0.350000,0.100000,0.299289,0.100000,0.334644,0.085355,0.334644,0.085355,$1*%
%AMFreePoly7*
4,1,14,0.385355,0.085355,0.400000,0.050000,0.400000,0.000711,0.385355,-0.034644,0.334644,-0.085355,0.299289,-0.100000,-0.350000,-0.100000,-0.385355,-0.085355,-0.400000,-0.050000,-0.400000,0.050000,-0.385355,0.085355,-0.350000,0.100000,0.350000,0.100000,0.385355,0.085355,0.385355,0.085355,$1*%
G04 Aperture macros list end*
%ADD10R,1.700000X1.700000*%
%ADD11O,1.700000X1.700000*%
%ADD12FreePoly0,90.000000*%
%ADD13RoundRect,0.050000X0.350000X-0.050000X0.350000X0.050000X-0.350000X0.050000X-0.350000X-0.050000X0*%
%ADD14FreePoly1,90.000000*%
%ADD15FreePoly2,90.000000*%
%ADD16RoundRect,0.050000X0.050000X-0.350000X0.050000X0.350000X-0.050000X0.350000X-0.050000X-0.350000X0*%
%ADD17FreePoly3,90.000000*%
%ADD18FreePoly4,90.000000*%
%ADD19FreePoly5,90.000000*%
%ADD20FreePoly6,90.000000*%
%ADD21FreePoly7,90.000000*%
%ADD22RotRect,1.900000X1.400000X71.700000*%
%ADD23R,4.000000X1.600000*%
%ADD24RoundRect,0.250000X0.925000X-0.412500X0.925000X0.412500X-0.925000X0.412500X-0.925000X-0.412500X0*%
%ADD25R,1.250000X1.400000*%
%ADD26R,0.950000X1.675000*%
%ADD27C,1.200000*%
%ADD28RoundRect,0.200000X-0.200000X-0.275000X0.200000X-0.275000X0.200000X0.275000X-0.200000X0.275000X0*%
%ADD29R,5.100000X2.500000*%
%ADD30C,17.800000*%
%ADD31RoundRect,0.225000X-0.225000X-0.250000X0.225000X-0.250000X0.225000X0.250000X-0.225000X0.250000X0*%
%ADD32RoundRect,0.200000X0.200000X0.275000X-0.200000X0.275000X-0.200000X-0.275000X0.200000X-0.275000X0*%
%ADD33RotRect,0.800000X1.000000X251.701000*%
%ADD34RotRect,0.700000X1.500000X341.701000*%
%ADD35C,0.001000*%
G04 APERTURE END LIST*
D10*
X120800000Y-134935000D03*
D11*
X118260000Y-134935000D03*
X115720000Y-134935000D03*
D10*
X120475000Y-129450000D03*
D12*
X121925000Y-130250000D03*
D13*
X121925000Y-129850000D03*
X121925000Y-129450000D03*
X121925000Y-129050000D03*
D14*
X121925000Y-128650000D03*
D15*
X121275000Y-128000000D03*
D16*
X120875000Y-128000000D03*
X120475000Y-128000000D03*
X120075000Y-128000000D03*
D17*
X119675000Y-128000000D03*
D18*
X119025000Y-128650000D03*
D13*
X119025000Y-129050000D03*
X119025000Y-129450000D03*
X119025000Y-129850000D03*
D19*
X119025000Y-130250000D03*
D20*
X119675000Y-130900000D03*
D16*
X120075000Y-130900000D03*
X120475000Y-130900000D03*
X120875000Y-130900000D03*
D21*
X121275000Y-130900000D03*
D22*
X116247528Y-69460346D03*
X118602472Y-62339654D03*
D23*
X104325000Y-69350000D03*
X111400000Y-69350000D03*
D24*
X113450000Y-129062500D03*
X113450000Y-132137500D03*
D25*
X107050000Y-80850000D03*
X107050000Y-77350000D03*
D26*
X103550000Y-82425000D03*
X103550000Y-75775000D03*
D27*
X102250000Y-79100000D03*
X104750000Y-79100000D03*
D28*
X115950000Y-129295000D03*
X117600000Y-129295000D03*
D29*
X117475000Y-99250000D03*
X117475000Y-76350000D03*
D30*
X117475000Y-87800000D03*
D31*
X119500000Y-132310000D03*
X121050000Y-132310000D03*
D32*
X117600000Y-130835000D03*
X115950000Y-130835000D03*
D33*
X128096481Y-67960891D03*
X128755830Y-65967086D03*
X121824984Y-63675062D03*
X121165635Y-65668867D03*
D34*
X122275055Y-66773035D03*
X125123348Y-67714962D03*
X126547494Y-68185926D03*
D35*
X126384879Y-66288940D03*
X123536586Y-65347012D03*
M02*
