G04 #@! TF.GenerationSoftware,KiCad,Pcbnew,7.0.2*
G04 #@! TF.CreationDate,2023-07-19T18:17:07-07:00*
G04 #@! TF.ProjectId,dc31-badge-sao,64633331-2d62-4616-9467-652d73616f2e,rev?*
G04 #@! TF.SameCoordinates,Original*
G04 #@! TF.FileFunction,Paste,Top*
G04 #@! TF.FilePolarity,Positive*
%FSLAX46Y46*%
G04 Gerber Fmt 4.6, Leading zero omitted, Abs format (unit mm)*
G04 Created by KiCad (PCBNEW 7.0.2) date 2023-07-19 18:17:07*
%MOMM*%
%LPD*%
G01*
G04 APERTURE LIST*
G04 Aperture macros list*
%AMRotRect*
0 Rectangle, with rotation*
0 The origin of the aperture is its center*
0 $1 length*
0 $2 width*
0 $3 Rotation angle, in degrees counterclockwise*
0 Add horizontal line*
21,1,$1,$2,0,0,$3*%
G04 Aperture macros list end*
%ADD10RotRect,0.450000X0.450000X135.000000*%
%ADD11R,0.450000X0.450000*%
%ADD12R,1.400000X1.900000*%
%ADD13RotRect,0.450000X0.450000X315.000000*%
G04 APERTURE END LIST*
D10*
X118150000Y-91582107D03*
X117442893Y-90875000D03*
X118857107Y-90875000D03*
X118150000Y-90167893D03*
D11*
X125775000Y-83400000D03*
X126775000Y-83400000D03*
X125775000Y-84400000D03*
X126775000Y-84400000D03*
D12*
X104200000Y-86050000D03*
X104200000Y-93550000D03*
D11*
X124425000Y-106350000D03*
X123425000Y-106350000D03*
X124425000Y-105350000D03*
X123425000Y-105350000D03*
D10*
X117925000Y-73232107D03*
X117217893Y-72525000D03*
X118632107Y-72525000D03*
X117925000Y-71817893D03*
D11*
X117525000Y-63225000D03*
X117525000Y-62225000D03*
X118525000Y-63225000D03*
X118525000Y-62225000D03*
D13*
X112250000Y-94942893D03*
X112957107Y-95650000D03*
X111542893Y-95650000D03*
X112250000Y-96357107D03*
D10*
X118150000Y-82257107D03*
X117442893Y-81550000D03*
X118857107Y-81550000D03*
X118150000Y-80842893D03*
D13*
X112125000Y-85442893D03*
X112832107Y-86150000D03*
X111417893Y-86150000D03*
X112125000Y-86857107D03*
X112200000Y-75967893D03*
X112907107Y-76675000D03*
X111492893Y-76675000D03*
X112200000Y-77382107D03*
D12*
X126475000Y-73700000D03*
X126475000Y-81200000D03*
X104700000Y-111125000D03*
X104700000Y-118625000D03*
D11*
X104700000Y-96600000D03*
X103700000Y-96600000D03*
X104700000Y-95600000D03*
X103700000Y-95600000D03*
X104425000Y-120450000D03*
X104425000Y-121450000D03*
X103425000Y-120450000D03*
X103425000Y-121450000D03*
D12*
X125900000Y-96725000D03*
X125900000Y-104225000D03*
D13*
X112050000Y-66442893D03*
X112757107Y-67150000D03*
X111342893Y-67150000D03*
X112050000Y-67857107D03*
M02*
