G04 #@! TF.GenerationSoftware,KiCad,Pcbnew,7.0.2*
G04 #@! TF.CreationDate,2023-07-19T18:17:07-07:00*
G04 #@! TF.ProjectId,dc31-badge-sao,64633331-2d62-4616-9467-652d73616f2e,rev?*
G04 #@! TF.SameCoordinates,Original*
G04 #@! TF.FileFunction,Copper,L1,Top*
G04 #@! TF.FilePolarity,Positive*
%FSLAX46Y46*%
G04 Gerber Fmt 4.6, Leading zero omitted, Abs format (unit mm)*
G04 Created by KiCad (PCBNEW 7.0.2) date 2023-07-19 18:17:07*
%MOMM*%
%LPD*%
G01*
G04 APERTURE LIST*
G04 Aperture macros list*
%AMRotRect*
0 Rectangle, with rotation*
0 The origin of the aperture is its center*
0 $1 length*
0 $2 width*
0 $3 Rotation angle, in degrees counterclockwise*
0 Add horizontal line*
21,1,$1,$2,0,0,$3*%
G04 Aperture macros list end*
%ADD10C,0.150000*%
G04 #@! TA.AperFunction,NonConductor*
%ADD11C,0.150000*%
G04 #@! TD*
%ADD12C,0.200000*%
G04 #@! TA.AperFunction,NonConductor*
%ADD13C,0.200000*%
G04 #@! TD*
G04 #@! TA.AperFunction,SMDPad,CuDef*
%ADD14RotRect,0.450000X0.450000X135.000000*%
G04 #@! TD*
G04 #@! TA.AperFunction,SMDPad,CuDef*
%ADD15R,0.450000X0.450000*%
G04 #@! TD*
G04 #@! TA.AperFunction,SMDPad,CuDef*
%ADD16R,1.400000X1.900000*%
G04 #@! TD*
G04 #@! TA.AperFunction,ComponentPad*
%ADD17R,1.700000X1.700000*%
G04 #@! TD*
G04 #@! TA.AperFunction,ComponentPad*
%ADD18O,1.700000X1.700000*%
G04 #@! TD*
G04 #@! TA.AperFunction,SMDPad,CuDef*
%ADD19RotRect,0.450000X0.450000X315.000000*%
G04 #@! TD*
G04 #@! TA.AperFunction,ViaPad*
%ADD20C,0.800000*%
G04 #@! TD*
G04 #@! TA.AperFunction,Conductor*
%ADD21C,0.250000*%
G04 #@! TD*
G04 #@! TA.AperFunction,Conductor*
%ADD22C,0.200000*%
G04 #@! TD*
G04 #@! TA.AperFunction,Conductor*
%ADD23C,0.150000*%
G04 #@! TD*
G04 APERTURE END LIST*
D10*
D11*
X109913095Y-130282380D02*
X109960714Y-130330000D01*
X109960714Y-130330000D02*
X109913095Y-130377619D01*
X109913095Y-130377619D02*
X109865476Y-130330000D01*
X109865476Y-130330000D02*
X109913095Y-130282380D01*
X109913095Y-130282380D02*
X109913095Y-130377619D01*
D10*
D11*
X105163095Y-83332380D02*
X105210714Y-83380000D01*
X105210714Y-83380000D02*
X105163095Y-83427619D01*
X105163095Y-83427619D02*
X105115476Y-83380000D01*
X105115476Y-83380000D02*
X105163095Y-83332380D01*
X105163095Y-83332380D02*
X105163095Y-83427619D01*
D10*
D11*
X105088095Y-101407380D02*
X105135714Y-101455000D01*
X105135714Y-101455000D02*
X105088095Y-101502619D01*
X105088095Y-101502619D02*
X105040476Y-101455000D01*
X105040476Y-101455000D02*
X105088095Y-101407380D01*
X105088095Y-101407380D02*
X105088095Y-101502619D01*
D10*
D11*
X119013095Y-141777619D02*
X119013095Y-140777619D01*
X119013095Y-140777619D02*
X119251190Y-140777619D01*
X119251190Y-140777619D02*
X119394047Y-140825238D01*
X119394047Y-140825238D02*
X119489285Y-140920476D01*
X119489285Y-140920476D02*
X119536904Y-141015714D01*
X119536904Y-141015714D02*
X119584523Y-141206190D01*
X119584523Y-141206190D02*
X119584523Y-141349047D01*
X119584523Y-141349047D02*
X119536904Y-141539523D01*
X119536904Y-141539523D02*
X119489285Y-141634761D01*
X119489285Y-141634761D02*
X119394047Y-141730000D01*
X119394047Y-141730000D02*
X119251190Y-141777619D01*
X119251190Y-141777619D02*
X119013095Y-141777619D01*
X120584523Y-141682380D02*
X120536904Y-141730000D01*
X120536904Y-141730000D02*
X120394047Y-141777619D01*
X120394047Y-141777619D02*
X120298809Y-141777619D01*
X120298809Y-141777619D02*
X120155952Y-141730000D01*
X120155952Y-141730000D02*
X120060714Y-141634761D01*
X120060714Y-141634761D02*
X120013095Y-141539523D01*
X120013095Y-141539523D02*
X119965476Y-141349047D01*
X119965476Y-141349047D02*
X119965476Y-141206190D01*
X119965476Y-141206190D02*
X120013095Y-141015714D01*
X120013095Y-141015714D02*
X120060714Y-140920476D01*
X120060714Y-140920476D02*
X120155952Y-140825238D01*
X120155952Y-140825238D02*
X120298809Y-140777619D01*
X120298809Y-140777619D02*
X120394047Y-140777619D01*
X120394047Y-140777619D02*
X120536904Y-140825238D01*
X120536904Y-140825238D02*
X120584523Y-140872857D01*
X120917857Y-140777619D02*
X121536904Y-140777619D01*
X121536904Y-140777619D02*
X121203571Y-141158571D01*
X121203571Y-141158571D02*
X121346428Y-141158571D01*
X121346428Y-141158571D02*
X121441666Y-141206190D01*
X121441666Y-141206190D02*
X121489285Y-141253809D01*
X121489285Y-141253809D02*
X121536904Y-141349047D01*
X121536904Y-141349047D02*
X121536904Y-141587142D01*
X121536904Y-141587142D02*
X121489285Y-141682380D01*
X121489285Y-141682380D02*
X121441666Y-141730000D01*
X121441666Y-141730000D02*
X121346428Y-141777619D01*
X121346428Y-141777619D02*
X121060714Y-141777619D01*
X121060714Y-141777619D02*
X120965476Y-141730000D01*
X120965476Y-141730000D02*
X120917857Y-141682380D01*
X122489285Y-141777619D02*
X121917857Y-141777619D01*
X122203571Y-141777619D02*
X122203571Y-140777619D01*
X122203571Y-140777619D02*
X122108333Y-140920476D01*
X122108333Y-140920476D02*
X122013095Y-141015714D01*
X122013095Y-141015714D02*
X121917857Y-141063333D01*
D10*
D11*
X127192380Y-86038095D02*
X127859047Y-86038095D01*
X127763809Y-86038095D02*
X127811428Y-86085714D01*
X127811428Y-86085714D02*
X127859047Y-86180952D01*
X127859047Y-86180952D02*
X127859047Y-86323809D01*
X127859047Y-86323809D02*
X127811428Y-86419047D01*
X127811428Y-86419047D02*
X127716190Y-86466666D01*
X127716190Y-86466666D02*
X127192380Y-86466666D01*
X127716190Y-86466666D02*
X127811428Y-86514285D01*
X127811428Y-86514285D02*
X127859047Y-86609523D01*
X127859047Y-86609523D02*
X127859047Y-86752380D01*
X127859047Y-86752380D02*
X127811428Y-86847619D01*
X127811428Y-86847619D02*
X127716190Y-86895238D01*
X127716190Y-86895238D02*
X127192380Y-86895238D01*
X127192380Y-87799999D02*
X127716190Y-87799999D01*
X127716190Y-87799999D02*
X127811428Y-87752380D01*
X127811428Y-87752380D02*
X127859047Y-87657142D01*
X127859047Y-87657142D02*
X127859047Y-87466666D01*
X127859047Y-87466666D02*
X127811428Y-87371428D01*
X127240000Y-87799999D02*
X127192380Y-87704761D01*
X127192380Y-87704761D02*
X127192380Y-87466666D01*
X127192380Y-87466666D02*
X127240000Y-87371428D01*
X127240000Y-87371428D02*
X127335238Y-87323809D01*
X127335238Y-87323809D02*
X127430476Y-87323809D01*
X127430476Y-87323809D02*
X127525714Y-87371428D01*
X127525714Y-87371428D02*
X127573333Y-87466666D01*
X127573333Y-87466666D02*
X127573333Y-87704761D01*
X127573333Y-87704761D02*
X127620952Y-87799999D01*
X127859047Y-88180952D02*
X127192380Y-88419047D01*
X127859047Y-88657142D02*
X127192380Y-88419047D01*
X127192380Y-88419047D02*
X126954285Y-88323809D01*
X126954285Y-88323809D02*
X126906666Y-88276190D01*
X126906666Y-88276190D02*
X126859047Y-88180952D01*
X127859047Y-89800000D02*
X127192380Y-89800000D01*
X127763809Y-89800000D02*
X127811428Y-89847619D01*
X127811428Y-89847619D02*
X127859047Y-89942857D01*
X127859047Y-89942857D02*
X127859047Y-90085714D01*
X127859047Y-90085714D02*
X127811428Y-90180952D01*
X127811428Y-90180952D02*
X127716190Y-90228571D01*
X127716190Y-90228571D02*
X127192380Y-90228571D01*
X127859047Y-90609524D02*
X127192380Y-90847619D01*
X127859047Y-91085714D02*
X127192380Y-90847619D01*
X127192380Y-90847619D02*
X126954285Y-90752381D01*
X126954285Y-90752381D02*
X126906666Y-90704762D01*
X126906666Y-90704762D02*
X126859047Y-90609524D01*
X127192380Y-91895238D02*
X127716190Y-91895238D01*
X127716190Y-91895238D02*
X127811428Y-91847619D01*
X127811428Y-91847619D02*
X127859047Y-91752381D01*
X127859047Y-91752381D02*
X127859047Y-91561905D01*
X127859047Y-91561905D02*
X127811428Y-91466667D01*
X127240000Y-91895238D02*
X127192380Y-91800000D01*
X127192380Y-91800000D02*
X127192380Y-91561905D01*
X127192380Y-91561905D02*
X127240000Y-91466667D01*
X127240000Y-91466667D02*
X127335238Y-91419048D01*
X127335238Y-91419048D02*
X127430476Y-91419048D01*
X127430476Y-91419048D02*
X127525714Y-91466667D01*
X127525714Y-91466667D02*
X127573333Y-91561905D01*
X127573333Y-91561905D02*
X127573333Y-91800000D01*
X127573333Y-91800000D02*
X127620952Y-91895238D01*
X127859047Y-92371429D02*
X127192380Y-92371429D01*
X127763809Y-92371429D02*
X127811428Y-92419048D01*
X127811428Y-92419048D02*
X127859047Y-92514286D01*
X127859047Y-92514286D02*
X127859047Y-92657143D01*
X127859047Y-92657143D02*
X127811428Y-92752381D01*
X127811428Y-92752381D02*
X127716190Y-92800000D01*
X127716190Y-92800000D02*
X127192380Y-92800000D01*
X125572380Y-86038095D02*
X126572380Y-86038095D01*
X126191428Y-86038095D02*
X126239047Y-86133333D01*
X126239047Y-86133333D02*
X126239047Y-86323809D01*
X126239047Y-86323809D02*
X126191428Y-86419047D01*
X126191428Y-86419047D02*
X126143809Y-86466666D01*
X126143809Y-86466666D02*
X126048571Y-86514285D01*
X126048571Y-86514285D02*
X125762857Y-86514285D01*
X125762857Y-86514285D02*
X125667619Y-86466666D01*
X125667619Y-86466666D02*
X125620000Y-86419047D01*
X125620000Y-86419047D02*
X125572380Y-86323809D01*
X125572380Y-86323809D02*
X125572380Y-86133333D01*
X125572380Y-86133333D02*
X125620000Y-86038095D01*
X125620000Y-87323809D02*
X125572380Y-87228571D01*
X125572380Y-87228571D02*
X125572380Y-87038095D01*
X125572380Y-87038095D02*
X125620000Y-86942857D01*
X125620000Y-86942857D02*
X125715238Y-86895238D01*
X125715238Y-86895238D02*
X126096190Y-86895238D01*
X126096190Y-86895238D02*
X126191428Y-86942857D01*
X126191428Y-86942857D02*
X126239047Y-87038095D01*
X126239047Y-87038095D02*
X126239047Y-87228571D01*
X126239047Y-87228571D02*
X126191428Y-87323809D01*
X126191428Y-87323809D02*
X126096190Y-87371428D01*
X126096190Y-87371428D02*
X126000952Y-87371428D01*
X126000952Y-87371428D02*
X125905714Y-86895238D01*
X126239047Y-88466667D02*
X125572380Y-88657143D01*
X125572380Y-88657143D02*
X126048571Y-88847619D01*
X126048571Y-88847619D02*
X125572380Y-89038095D01*
X125572380Y-89038095D02*
X126239047Y-89228571D01*
X125572380Y-89609524D02*
X126239047Y-89609524D01*
X126572380Y-89609524D02*
X126524761Y-89561905D01*
X126524761Y-89561905D02*
X126477142Y-89609524D01*
X126477142Y-89609524D02*
X126524761Y-89657143D01*
X126524761Y-89657143D02*
X126572380Y-89609524D01*
X126572380Y-89609524D02*
X126477142Y-89609524D01*
X126239047Y-89942857D02*
X126239047Y-90323809D01*
X126572380Y-90085714D02*
X125715238Y-90085714D01*
X125715238Y-90085714D02*
X125620000Y-90133333D01*
X125620000Y-90133333D02*
X125572380Y-90228571D01*
X125572380Y-90228571D02*
X125572380Y-90323809D01*
X125572380Y-90657143D02*
X126572380Y-90657143D01*
X125572380Y-91085714D02*
X126096190Y-91085714D01*
X126096190Y-91085714D02*
X126191428Y-91038095D01*
X126191428Y-91038095D02*
X126239047Y-90942857D01*
X126239047Y-90942857D02*
X126239047Y-90800000D01*
X126239047Y-90800000D02*
X126191428Y-90704762D01*
X126191428Y-90704762D02*
X126143809Y-90657143D01*
X126239047Y-92228572D02*
X125572380Y-92466667D01*
X126239047Y-92704762D02*
X125572380Y-92466667D01*
X125572380Y-92466667D02*
X125334285Y-92371429D01*
X125334285Y-92371429D02*
X125286666Y-92323810D01*
X125286666Y-92323810D02*
X125239047Y-92228572D01*
X125572380Y-93228572D02*
X125620000Y-93133334D01*
X125620000Y-93133334D02*
X125667619Y-93085715D01*
X125667619Y-93085715D02*
X125762857Y-93038096D01*
X125762857Y-93038096D02*
X126048571Y-93038096D01*
X126048571Y-93038096D02*
X126143809Y-93085715D01*
X126143809Y-93085715D02*
X126191428Y-93133334D01*
X126191428Y-93133334D02*
X126239047Y-93228572D01*
X126239047Y-93228572D02*
X126239047Y-93371429D01*
X126239047Y-93371429D02*
X126191428Y-93466667D01*
X126191428Y-93466667D02*
X126143809Y-93514286D01*
X126143809Y-93514286D02*
X126048571Y-93561905D01*
X126048571Y-93561905D02*
X125762857Y-93561905D01*
X125762857Y-93561905D02*
X125667619Y-93514286D01*
X125667619Y-93514286D02*
X125620000Y-93466667D01*
X125620000Y-93466667D02*
X125572380Y-93371429D01*
X125572380Y-93371429D02*
X125572380Y-93228572D01*
X126239047Y-94419048D02*
X125572380Y-94419048D01*
X126239047Y-93990477D02*
X125715238Y-93990477D01*
X125715238Y-93990477D02*
X125620000Y-94038096D01*
X125620000Y-94038096D02*
X125572380Y-94133334D01*
X125572380Y-94133334D02*
X125572380Y-94276191D01*
X125572380Y-94276191D02*
X125620000Y-94371429D01*
X125620000Y-94371429D02*
X125667619Y-94419048D01*
D10*
D11*
X121363095Y-139332380D02*
X121410714Y-139380000D01*
X121410714Y-139380000D02*
X121363095Y-139427619D01*
X121363095Y-139427619D02*
X121315476Y-139380000D01*
X121315476Y-139380000D02*
X121363095Y-139332380D01*
X121363095Y-139332380D02*
X121363095Y-139427619D01*
D10*
D11*
X124238095Y-84607380D02*
X124285714Y-84655000D01*
X124285714Y-84655000D02*
X124238095Y-84702619D01*
X124238095Y-84702619D02*
X124190476Y-84655000D01*
X124190476Y-84655000D02*
X124238095Y-84607380D01*
X124238095Y-84607380D02*
X124238095Y-84702619D01*
D10*
D11*
X96788095Y-56557380D02*
X96835714Y-56605000D01*
X96835714Y-56605000D02*
X96788095Y-56652619D01*
X96788095Y-56652619D02*
X96740476Y-56605000D01*
X96740476Y-56605000D02*
X96788095Y-56557380D01*
X96788095Y-56557380D02*
X96788095Y-56652619D01*
D10*
D11*
X127388095Y-94457380D02*
X127435714Y-94505000D01*
X127435714Y-94505000D02*
X127388095Y-94552619D01*
X127388095Y-94552619D02*
X127340476Y-94505000D01*
X127340476Y-94505000D02*
X127388095Y-94457380D01*
X127388095Y-94457380D02*
X127388095Y-94552619D01*
D10*
D11*
X102488095Y-75157380D02*
X102535714Y-75205000D01*
X102535714Y-75205000D02*
X102488095Y-75252619D01*
X102488095Y-75252619D02*
X102440476Y-75205000D01*
X102440476Y-75205000D02*
X102488095Y-75157380D01*
X102488095Y-75157380D02*
X102488095Y-75252619D01*
D10*
D11*
X106338095Y-97707380D02*
X106385714Y-97755000D01*
X106385714Y-97755000D02*
X106338095Y-97802619D01*
X106338095Y-97802619D02*
X106290476Y-97755000D01*
X106290476Y-97755000D02*
X106338095Y-97707380D01*
X106338095Y-97707380D02*
X106338095Y-97802619D01*
D10*
D11*
X127588095Y-71607380D02*
X127635714Y-71655000D01*
X127635714Y-71655000D02*
X127588095Y-71702619D01*
X127588095Y-71702619D02*
X127540476Y-71655000D01*
X127540476Y-71655000D02*
X127588095Y-71607380D01*
X127588095Y-71607380D02*
X127588095Y-71702619D01*
D10*
D11*
X102363095Y-62632380D02*
X102410714Y-62680000D01*
X102410714Y-62680000D02*
X102363095Y-62727619D01*
X102363095Y-62727619D02*
X102315476Y-62680000D01*
X102315476Y-62680000D02*
X102363095Y-62632380D01*
X102363095Y-62632380D02*
X102363095Y-62727619D01*
D10*
D11*
X127888095Y-65232380D02*
X127935714Y-65280000D01*
X127935714Y-65280000D02*
X127888095Y-65327619D01*
X127888095Y-65327619D02*
X127840476Y-65280000D01*
X127840476Y-65280000D02*
X127888095Y-65232380D01*
X127888095Y-65232380D02*
X127888095Y-65327619D01*
D10*
D11*
X129638095Y-101707380D02*
X129685714Y-101755000D01*
X129685714Y-101755000D02*
X129638095Y-101802619D01*
X129638095Y-101802619D02*
X129590476Y-101755000D01*
X129590476Y-101755000D02*
X129638095Y-101707380D01*
X129638095Y-101707380D02*
X129638095Y-101802619D01*
D10*
D11*
X98663095Y-59357380D02*
X98710714Y-59405000D01*
X98710714Y-59405000D02*
X98663095Y-59452619D01*
X98663095Y-59452619D02*
X98615476Y-59405000D01*
X98615476Y-59405000D02*
X98663095Y-59357380D01*
X98663095Y-59357380D02*
X98663095Y-59452619D01*
D12*
D13*
X104396190Y-64946428D02*
X104348571Y-65089285D01*
X104348571Y-65089285D02*
X104300952Y-65136904D01*
X104300952Y-65136904D02*
X104205714Y-65184523D01*
X104205714Y-65184523D02*
X104062857Y-65184523D01*
X104062857Y-65184523D02*
X103967619Y-65136904D01*
X103967619Y-65136904D02*
X103920000Y-65089285D01*
X103920000Y-65089285D02*
X103872380Y-64994047D01*
X103872380Y-64994047D02*
X103872380Y-64613095D01*
X103872380Y-64613095D02*
X104872380Y-64613095D01*
X104872380Y-64613095D02*
X104872380Y-64946428D01*
X104872380Y-64946428D02*
X104824761Y-65041666D01*
X104824761Y-65041666D02*
X104777142Y-65089285D01*
X104777142Y-65089285D02*
X104681904Y-65136904D01*
X104681904Y-65136904D02*
X104586666Y-65136904D01*
X104586666Y-65136904D02*
X104491428Y-65089285D01*
X104491428Y-65089285D02*
X104443809Y-65041666D01*
X104443809Y-65041666D02*
X104396190Y-64946428D01*
X104396190Y-64946428D02*
X104396190Y-64613095D01*
X103872380Y-65613095D02*
X104539047Y-65613095D01*
X104872380Y-65613095D02*
X104824761Y-65565476D01*
X104824761Y-65565476D02*
X104777142Y-65613095D01*
X104777142Y-65613095D02*
X104824761Y-65660714D01*
X104824761Y-65660714D02*
X104872380Y-65613095D01*
X104872380Y-65613095D02*
X104777142Y-65613095D01*
X104539047Y-66517856D02*
X103729523Y-66517856D01*
X103729523Y-66517856D02*
X103634285Y-66470237D01*
X103634285Y-66470237D02*
X103586666Y-66422618D01*
X103586666Y-66422618D02*
X103539047Y-66327380D01*
X103539047Y-66327380D02*
X103539047Y-66184523D01*
X103539047Y-66184523D02*
X103586666Y-66089285D01*
X103920000Y-66517856D02*
X103872380Y-66422618D01*
X103872380Y-66422618D02*
X103872380Y-66232142D01*
X103872380Y-66232142D02*
X103920000Y-66136904D01*
X103920000Y-66136904D02*
X103967619Y-66089285D01*
X103967619Y-66089285D02*
X104062857Y-66041666D01*
X104062857Y-66041666D02*
X104348571Y-66041666D01*
X104348571Y-66041666D02*
X104443809Y-66089285D01*
X104443809Y-66089285D02*
X104491428Y-66136904D01*
X104491428Y-66136904D02*
X104539047Y-66232142D01*
X104539047Y-66232142D02*
X104539047Y-66422618D01*
X104539047Y-66422618D02*
X104491428Y-66517856D01*
X104396190Y-67327380D02*
X104396190Y-66994047D01*
X103872380Y-66994047D02*
X104872380Y-66994047D01*
X104872380Y-66994047D02*
X104872380Y-67470237D01*
X104539047Y-68279761D02*
X103872380Y-68279761D01*
X104539047Y-67851190D02*
X104015238Y-67851190D01*
X104015238Y-67851190D02*
X103920000Y-67898809D01*
X103920000Y-67898809D02*
X103872380Y-67994047D01*
X103872380Y-67994047D02*
X103872380Y-68136904D01*
X103872380Y-68136904D02*
X103920000Y-68232142D01*
X103920000Y-68232142D02*
X103967619Y-68279761D01*
X103920000Y-69184523D02*
X103872380Y-69089285D01*
X103872380Y-69089285D02*
X103872380Y-68898809D01*
X103872380Y-68898809D02*
X103920000Y-68803571D01*
X103920000Y-68803571D02*
X103967619Y-68755952D01*
X103967619Y-68755952D02*
X104062857Y-68708333D01*
X104062857Y-68708333D02*
X104348571Y-68708333D01*
X104348571Y-68708333D02*
X104443809Y-68755952D01*
X104443809Y-68755952D02*
X104491428Y-68803571D01*
X104491428Y-68803571D02*
X104539047Y-68898809D01*
X104539047Y-68898809D02*
X104539047Y-69089285D01*
X104539047Y-69089285D02*
X104491428Y-69184523D01*
X103872380Y-69613095D02*
X104872380Y-69613095D01*
X104253333Y-69708333D02*
X103872380Y-69994047D01*
X104539047Y-69994047D02*
X104158095Y-69613095D01*
X103872380Y-70422619D02*
X104539047Y-70422619D01*
X104872380Y-70422619D02*
X104824761Y-70375000D01*
X104824761Y-70375000D02*
X104777142Y-70422619D01*
X104777142Y-70422619D02*
X104824761Y-70470238D01*
X104824761Y-70470238D02*
X104872380Y-70422619D01*
X104872380Y-70422619D02*
X104777142Y-70422619D01*
X104539047Y-70898809D02*
X103872380Y-70898809D01*
X104443809Y-70898809D02*
X104491428Y-70946428D01*
X104491428Y-70946428D02*
X104539047Y-71041666D01*
X104539047Y-71041666D02*
X104539047Y-71184523D01*
X104539047Y-71184523D02*
X104491428Y-71279761D01*
X104491428Y-71279761D02*
X104396190Y-71327380D01*
X104396190Y-71327380D02*
X103872380Y-71327380D01*
X104539047Y-72232142D02*
X103729523Y-72232142D01*
X103729523Y-72232142D02*
X103634285Y-72184523D01*
X103634285Y-72184523D02*
X103586666Y-72136904D01*
X103586666Y-72136904D02*
X103539047Y-72041666D01*
X103539047Y-72041666D02*
X103539047Y-71898809D01*
X103539047Y-71898809D02*
X103586666Y-71803571D01*
X103920000Y-72232142D02*
X103872380Y-72136904D01*
X103872380Y-72136904D02*
X103872380Y-71946428D01*
X103872380Y-71946428D02*
X103920000Y-71851190D01*
X103920000Y-71851190D02*
X103967619Y-71803571D01*
X103967619Y-71803571D02*
X104062857Y-71755952D01*
X104062857Y-71755952D02*
X104348571Y-71755952D01*
X104348571Y-71755952D02*
X104443809Y-71803571D01*
X104443809Y-71803571D02*
X104491428Y-71851190D01*
X104491428Y-71851190D02*
X104539047Y-71946428D01*
X104539047Y-71946428D02*
X104539047Y-72136904D01*
X104539047Y-72136904D02*
X104491428Y-72232142D01*
X104396190Y-73041666D02*
X104348571Y-73184523D01*
X104348571Y-73184523D02*
X104300952Y-73232142D01*
X104300952Y-73232142D02*
X104205714Y-73279761D01*
X104205714Y-73279761D02*
X104062857Y-73279761D01*
X104062857Y-73279761D02*
X103967619Y-73232142D01*
X103967619Y-73232142D02*
X103920000Y-73184523D01*
X103920000Y-73184523D02*
X103872380Y-73089285D01*
X103872380Y-73089285D02*
X103872380Y-72708333D01*
X103872380Y-72708333D02*
X104872380Y-72708333D01*
X104872380Y-72708333D02*
X104872380Y-73041666D01*
X104872380Y-73041666D02*
X104824761Y-73136904D01*
X104824761Y-73136904D02*
X104777142Y-73184523D01*
X104777142Y-73184523D02*
X104681904Y-73232142D01*
X104681904Y-73232142D02*
X104586666Y-73232142D01*
X104586666Y-73232142D02*
X104491428Y-73184523D01*
X104491428Y-73184523D02*
X104443809Y-73136904D01*
X104443809Y-73136904D02*
X104396190Y-73041666D01*
X104396190Y-73041666D02*
X104396190Y-72708333D01*
X103872380Y-74136904D02*
X104396190Y-74136904D01*
X104396190Y-74136904D02*
X104491428Y-74089285D01*
X104491428Y-74089285D02*
X104539047Y-73994047D01*
X104539047Y-73994047D02*
X104539047Y-73803571D01*
X104539047Y-73803571D02*
X104491428Y-73708333D01*
X103920000Y-74136904D02*
X103872380Y-74041666D01*
X103872380Y-74041666D02*
X103872380Y-73803571D01*
X103872380Y-73803571D02*
X103920000Y-73708333D01*
X103920000Y-73708333D02*
X104015238Y-73660714D01*
X104015238Y-73660714D02*
X104110476Y-73660714D01*
X104110476Y-73660714D02*
X104205714Y-73708333D01*
X104205714Y-73708333D02*
X104253333Y-73803571D01*
X104253333Y-73803571D02*
X104253333Y-74041666D01*
X104253333Y-74041666D02*
X104300952Y-74136904D01*
X103872380Y-75041666D02*
X104872380Y-75041666D01*
X103920000Y-75041666D02*
X103872380Y-74946428D01*
X103872380Y-74946428D02*
X103872380Y-74755952D01*
X103872380Y-74755952D02*
X103920000Y-74660714D01*
X103920000Y-74660714D02*
X103967619Y-74613095D01*
X103967619Y-74613095D02*
X104062857Y-74565476D01*
X104062857Y-74565476D02*
X104348571Y-74565476D01*
X104348571Y-74565476D02*
X104443809Y-74613095D01*
X104443809Y-74613095D02*
X104491428Y-74660714D01*
X104491428Y-74660714D02*
X104539047Y-74755952D01*
X104539047Y-74755952D02*
X104539047Y-74946428D01*
X104539047Y-74946428D02*
X104491428Y-75041666D01*
X104539047Y-75946428D02*
X103729523Y-75946428D01*
X103729523Y-75946428D02*
X103634285Y-75898809D01*
X103634285Y-75898809D02*
X103586666Y-75851190D01*
X103586666Y-75851190D02*
X103539047Y-75755952D01*
X103539047Y-75755952D02*
X103539047Y-75613095D01*
X103539047Y-75613095D02*
X103586666Y-75517857D01*
X103920000Y-75946428D02*
X103872380Y-75851190D01*
X103872380Y-75851190D02*
X103872380Y-75660714D01*
X103872380Y-75660714D02*
X103920000Y-75565476D01*
X103920000Y-75565476D02*
X103967619Y-75517857D01*
X103967619Y-75517857D02*
X104062857Y-75470238D01*
X104062857Y-75470238D02*
X104348571Y-75470238D01*
X104348571Y-75470238D02*
X104443809Y-75517857D01*
X104443809Y-75517857D02*
X104491428Y-75565476D01*
X104491428Y-75565476D02*
X104539047Y-75660714D01*
X104539047Y-75660714D02*
X104539047Y-75851190D01*
X104539047Y-75851190D02*
X104491428Y-75946428D01*
X103920000Y-76803571D02*
X103872380Y-76708333D01*
X103872380Y-76708333D02*
X103872380Y-76517857D01*
X103872380Y-76517857D02*
X103920000Y-76422619D01*
X103920000Y-76422619D02*
X104015238Y-76375000D01*
X104015238Y-76375000D02*
X104396190Y-76375000D01*
X104396190Y-76375000D02*
X104491428Y-76422619D01*
X104491428Y-76422619D02*
X104539047Y-76517857D01*
X104539047Y-76517857D02*
X104539047Y-76708333D01*
X104539047Y-76708333D02*
X104491428Y-76803571D01*
X104491428Y-76803571D02*
X104396190Y-76851190D01*
X104396190Y-76851190D02*
X104300952Y-76851190D01*
X104300952Y-76851190D02*
X104205714Y-76375000D01*
D10*
D11*
X121038095Y-124657380D02*
X121085714Y-124705000D01*
X121085714Y-124705000D02*
X121038095Y-124752619D01*
X121038095Y-124752619D02*
X120990476Y-124705000D01*
X120990476Y-124705000D02*
X121038095Y-124657380D01*
X121038095Y-124657380D02*
X121038095Y-124752619D01*
D14*
X118150000Y-91582107D03*
X117442893Y-90875000D03*
X118857107Y-90875000D03*
X118150000Y-90167893D03*
D15*
X125775000Y-83400000D03*
X126775000Y-83400000D03*
X125775000Y-84400000D03*
X126775000Y-84400000D03*
D16*
X104200000Y-86050000D03*
X104200000Y-93550000D03*
D15*
X124425000Y-106350000D03*
X123425000Y-106350000D03*
X124425000Y-105350000D03*
X123425000Y-105350000D03*
D14*
X117925000Y-73232107D03*
X117217893Y-72525000D03*
X118632107Y-72525000D03*
X117925000Y-71817893D03*
D15*
X117525000Y-63225000D03*
X117525000Y-62225000D03*
X118525000Y-63225000D03*
X118525000Y-62225000D03*
D17*
X120800000Y-134935000D03*
D18*
X118260000Y-134935000D03*
X115720000Y-134935000D03*
D19*
X112250000Y-94942893D03*
X112957107Y-95650000D03*
X111542893Y-95650000D03*
X112250000Y-96357107D03*
D14*
X118150000Y-82257107D03*
X117442893Y-81550000D03*
X118857107Y-81550000D03*
X118150000Y-80842893D03*
D19*
X112125000Y-85442893D03*
X112832107Y-86150000D03*
X111417893Y-86150000D03*
X112125000Y-86857107D03*
X112200000Y-75967893D03*
X112907107Y-76675000D03*
X111492893Y-76675000D03*
X112200000Y-77382107D03*
D16*
X126475000Y-73700000D03*
X126475000Y-81200000D03*
X104700000Y-111125000D03*
X104700000Y-118625000D03*
D15*
X104700000Y-96600000D03*
X103700000Y-96600000D03*
X104700000Y-95600000D03*
X103700000Y-95600000D03*
X104425000Y-120450000D03*
X104425000Y-121450000D03*
X103425000Y-120450000D03*
X103425000Y-121450000D03*
D16*
X125900000Y-96725000D03*
X125900000Y-104225000D03*
D19*
X112050000Y-66442893D03*
X112757107Y-67150000D03*
X111342893Y-67150000D03*
X112050000Y-67857107D03*
D20*
X126547494Y-69450000D03*
X125125000Y-73700000D03*
X111150000Y-77650000D03*
X118225000Y-64125000D03*
X105600000Y-95600000D03*
X124275000Y-95300000D03*
X125925000Y-95125000D03*
X105850000Y-112700000D03*
X124250000Y-104525000D03*
X103050000Y-116425000D03*
X119111580Y-73250000D03*
X105874500Y-85926944D03*
X110775000Y-67700000D03*
X111000000Y-94975000D03*
X123875000Y-107275000D03*
X116725000Y-64375000D03*
X103075000Y-115100000D03*
X106925000Y-63475000D03*
X124200000Y-69425000D03*
X112550000Y-65100000D03*
X104725000Y-122050000D03*
X127600000Y-83400000D03*
X118973503Y-127584974D03*
X117150000Y-127675500D03*
X121275000Y-126825000D03*
X121975500Y-128027164D03*
X123325000Y-127950000D03*
X123075000Y-129575000D03*
X121975000Y-130960000D03*
X123750000Y-100775000D03*
X107575000Y-100925000D03*
X118700000Y-65150000D03*
X122850000Y-68250000D03*
X112975000Y-97325000D03*
X118150000Y-97325000D03*
D21*
X124200000Y-69425000D02*
X126522494Y-69425000D01*
X126522494Y-69425000D02*
X126547494Y-69450000D01*
D22*
X110753942Y-79124710D02*
X110753942Y-83876627D01*
X110018520Y-114499949D02*
X110026933Y-114489162D01*
X108058682Y-102510725D02*
X108117767Y-102501387D01*
X113713261Y-101058122D02*
X113764052Y-101050169D01*
X121306243Y-106912339D02*
X121300827Y-106893535D01*
X114459552Y-103601762D02*
X114469843Y-103592680D01*
X116897643Y-123876347D02*
X116892670Y-123855328D01*
X117909437Y-119535997D02*
X117901175Y-119528760D01*
X116175702Y-103612164D02*
X116157805Y-103618771D01*
X118526802Y-119185949D02*
X118529835Y-119215650D01*
X106690227Y-107622766D02*
X106685821Y-107580888D01*
X107371605Y-123985186D02*
X107350198Y-123982453D01*
X119519453Y-113628084D02*
X119513073Y-113615082D01*
X109242438Y-124885290D02*
X109260076Y-124891272D01*
X115477984Y-102657722D02*
X115498592Y-102655398D01*
X108334695Y-97859165D02*
X108302501Y-97851639D01*
X110165314Y-102757297D02*
X110164041Y-102767003D01*
X117202889Y-117129699D02*
X117350125Y-117117999D01*
X112606349Y-117352281D02*
X112608067Y-117415881D01*
X112608067Y-123342547D02*
X112608791Y-123499747D01*
X108559429Y-125527368D02*
X108550868Y-125513705D01*
X113052919Y-103686076D02*
X113012431Y-103691236D01*
X108481290Y-124812082D02*
X108936375Y-124843832D01*
X112667600Y-122034828D02*
X112663897Y-122093445D01*
X120395810Y-69862755D02*
X120388932Y-69782956D01*
X116337298Y-123129127D02*
X116275007Y-123128176D01*
X109430694Y-115757360D02*
X109424263Y-115817243D01*
X120210281Y-112986842D02*
X120226621Y-112991658D01*
X109338004Y-126358132D02*
X109335234Y-126337408D01*
X116639884Y-118922292D02*
X116568495Y-118923442D01*
X115142364Y-103526727D02*
X115157559Y-103520365D01*
X114405028Y-104159395D02*
X114407090Y-104102714D01*
X116552275Y-86580672D02*
X116520524Y-88930171D01*
X120440458Y-74340165D02*
X120440458Y-72011832D01*
X110009053Y-114509526D02*
X110018520Y-114499949D01*
X115579235Y-101118026D02*
X115538618Y-101121162D01*
X107740457Y-74244916D02*
X108036793Y-74213167D01*
X116708487Y-117925135D02*
X116725212Y-117920062D01*
X115305327Y-102828786D02*
X115310014Y-102807843D01*
X110823683Y-121489638D02*
X110803671Y-121494538D01*
X121937508Y-122259604D02*
X121928739Y-122272080D01*
X116899341Y-112742782D02*
X116894509Y-112762497D01*
X106739010Y-107733229D02*
X106729433Y-107723762D01*
X106707239Y-116451087D02*
X106713619Y-116438085D01*
X116408209Y-117943503D02*
X116480990Y-117943291D01*
X121856581Y-122325938D02*
X121840772Y-122332065D01*
X116946984Y-118558350D02*
X116943638Y-118625154D01*
X120434835Y-71107618D02*
X120428180Y-70711818D01*
X106644269Y-107117383D02*
X106636560Y-107106605D01*
X112670217Y-121967591D02*
X112667600Y-122034828D01*
X115971646Y-105214397D02*
X116287244Y-105215885D01*
X117656050Y-118002204D02*
X117605402Y-118009957D01*
X117915600Y-115404428D02*
X117921113Y-115414916D01*
X115890770Y-118876654D02*
X115905024Y-118870884D01*
X117797974Y-123745004D02*
X117801901Y-123792942D01*
X109180780Y-107029101D02*
X109160894Y-107032778D01*
X107635782Y-106650196D02*
X107637973Y-106705838D01*
X115359952Y-105170118D02*
X115397914Y-105180164D01*
X108007132Y-102520622D02*
X108058682Y-102510725D01*
X107546847Y-124693728D02*
X107542357Y-124675489D01*
X114318902Y-65884548D02*
X114306293Y-65667342D01*
X117318375Y-124028912D02*
X117243850Y-124028685D01*
X107816095Y-102652085D02*
X107823934Y-102635128D01*
X115360836Y-102704869D02*
X115371437Y-102695530D01*
X109926639Y-126527222D02*
X109908056Y-126524101D01*
X106678775Y-123360328D02*
X106674847Y-123312391D01*
X106311708Y-121436001D02*
X106375166Y-121435782D01*
X114341313Y-104347409D02*
X114352395Y-104337303D01*
X119581118Y-113682219D02*
X119567698Y-113675728D01*
X121291590Y-106850677D02*
X121284027Y-106800316D01*
X118725268Y-109410604D02*
X118709812Y-109405225D01*
X114350941Y-74917838D02*
X113906441Y-74886087D01*
X119204482Y-108642445D02*
X119235978Y-108646626D01*
X109074041Y-124855842D02*
X109130875Y-124862599D01*
X122271375Y-88394835D02*
X122662958Y-88426585D01*
X114299437Y-104371678D02*
X114314915Y-104364513D01*
X110131811Y-126423435D02*
X110136682Y-126432137D01*
X112562489Y-117156363D02*
X112570639Y-117168237D01*
X113621835Y-113030098D02*
X113632729Y-113020927D01*
X112748028Y-103756046D02*
X112740421Y-103760487D01*
X111712758Y-103593071D02*
X111289424Y-103624817D01*
X112553253Y-117145884D02*
X112562489Y-117156363D01*
X117802814Y-117936777D02*
X117791979Y-117947470D01*
X111712758Y-102651149D02*
X111712758Y-103593071D01*
X117794832Y-123625438D02*
X117795783Y-123689361D01*
X116114128Y-119360405D02*
X116105756Y-119658165D01*
X109960192Y-69631458D02*
X110362359Y-69663211D01*
X112559424Y-102651149D02*
X111712758Y-102651149D01*
X116499413Y-60725587D02*
X116499413Y-60275587D01*
X118633471Y-108811551D02*
X118637923Y-108784122D01*
X107634624Y-106513501D02*
X107634831Y-106586274D01*
X109160894Y-107032778D02*
X109139276Y-107035721D01*
X109304517Y-125786248D02*
X109298592Y-125770949D01*
X107802770Y-102690875D02*
X107809064Y-102670635D01*
X114524611Y-103566933D02*
X114542082Y-103562764D01*
X114328846Y-104356451D02*
X114341313Y-104347409D01*
X118711406Y-108672501D02*
X118721968Y-108666794D01*
X112360641Y-117097762D02*
X112410108Y-117099971D01*
X110415276Y-93221707D02*
X110066025Y-93253462D01*
X116958541Y-112122667D02*
X116926792Y-112524830D01*
X108310759Y-124892946D02*
X108292507Y-124886579D01*
X118045813Y-123974743D02*
X118101583Y-123975784D01*
X115866414Y-104482442D02*
X115850605Y-104488570D01*
X110117575Y-108861181D02*
X110122477Y-108840931D01*
X110806859Y-60100000D02*
X110806859Y-60377123D01*
X117918456Y-119542916D02*
X117909437Y-119535997D01*
X107924341Y-102545189D02*
X107942680Y-102538208D01*
X106680966Y-121149358D02*
X106682123Y-121012662D01*
X116027993Y-103900800D02*
X116016624Y-104047583D01*
X114407958Y-115509335D02*
X114407958Y-114662665D01*
X110173488Y-115222692D02*
X110171346Y-115278335D01*
X106636560Y-107106605D02*
X106627885Y-107096906D01*
X114394393Y-104249657D02*
X114398069Y-104229771D01*
X120277740Y-113659895D02*
X120266953Y-113668308D01*
X109488692Y-126508061D02*
X109470110Y-126505011D01*
X118249708Y-117181500D02*
X118195319Y-117187650D01*
X118598903Y-109280505D02*
X118598253Y-109268816D01*
X121396514Y-121455659D02*
X121412182Y-121451052D01*
X110125677Y-115452449D02*
X110116473Y-115462026D01*
X115907019Y-104459595D02*
X115894565Y-104468024D01*
X110890760Y-123976068D02*
X110866723Y-123993518D01*
X121290473Y-121666996D02*
X121294401Y-121619059D01*
X115339292Y-105158832D02*
X115359952Y-105170118D01*
X115349862Y-101719294D02*
X115345924Y-101736465D01*
X116967727Y-123987388D02*
X116955243Y-123978337D01*
X121538314Y-121437262D02*
X121594083Y-121436221D01*
X110065442Y-126747000D02*
X110061515Y-126699062D01*
X113409252Y-105064206D02*
X113417352Y-105053135D01*
X108375458Y-64815165D02*
X108375458Y-62975000D01*
X116600755Y-117940014D02*
X116648979Y-117935896D01*
X113888576Y-101037239D02*
X113963458Y-101031332D01*
X115939921Y-118846947D02*
X115949156Y-118836468D01*
X115340834Y-104626248D02*
X115332532Y-104636385D01*
X117864946Y-123937135D02*
X117876708Y-123944509D01*
X113669354Y-104454355D02*
X113713261Y-104444790D01*
X116626696Y-112936053D02*
X116568906Y-112942249D01*
X117605402Y-118009957D02*
X117546785Y-118016485D01*
X110806859Y-74404542D02*
X109960192Y-74404542D01*
X116503458Y-112948166D02*
X116101291Y-112979921D01*
X116933883Y-123956484D02*
X116924841Y-123943526D01*
X118640072Y-109365855D02*
X118632010Y-109358020D01*
X113533067Y-63650000D02*
X113525441Y-63085672D01*
X119343517Y-109466120D02*
X119300435Y-109468401D01*
X117852503Y-117827249D02*
X117847637Y-117847113D01*
X115392505Y-104583901D02*
X115380745Y-104591316D01*
X115320998Y-102770990D02*
X115327423Y-102754936D01*
X113489297Y-104689734D02*
X113497066Y-104644730D01*
X109350282Y-126410582D02*
X109345466Y-126394649D01*
X117095838Y-118062520D02*
X117076575Y-118068140D01*
X117028953Y-118089718D02*
X117016190Y-118098761D01*
X119101558Y-108633377D02*
X119137054Y-108635790D01*
X119487958Y-116355997D02*
X119487958Y-115509335D01*
X108481290Y-115509335D02*
X109327958Y-115509335D01*
X118535091Y-119308781D02*
X118535458Y-119340497D01*
X110013109Y-88427461D02*
X110415276Y-88459212D01*
X115947341Y-104416109D02*
X115938573Y-104428585D01*
X113256474Y-101802042D02*
X113192874Y-101803760D01*
X116157805Y-103618771D02*
X116141504Y-103626238D01*
X116503458Y-103571335D02*
X116353183Y-103582681D01*
X109309590Y-125802973D02*
X109304517Y-125786248D01*
X120330927Y-113171948D02*
X120333364Y-113220524D01*
X106701782Y-116465391D02*
X106707239Y-116451087D01*
X117794625Y-123129333D02*
X117794625Y-123552664D01*
X111000125Y-120991495D02*
X110988880Y-121155745D01*
X117121898Y-124025006D02*
X117073139Y-124020315D01*
X116907677Y-112698727D02*
X116899341Y-112742782D01*
X116758856Y-123166556D02*
X116745058Y-123159136D01*
X106674847Y-121252940D02*
X106678775Y-121205002D01*
X115726774Y-65371668D02*
X116128941Y-65403421D01*
X110096793Y-125748637D02*
X110098775Y-125766409D01*
X121288282Y-121722639D02*
X121290473Y-121666996D01*
X120546291Y-88415997D02*
X119593791Y-88415997D01*
X109695502Y-115510658D02*
X109646779Y-115513242D01*
X118600261Y-109291728D02*
X118598903Y-109280505D01*
X112608791Y-123499747D02*
X112608791Y-123976004D01*
X106682123Y-107413084D02*
X106681801Y-107351370D01*
X113722537Y-112984254D02*
X113763367Y-112977766D01*
X117991869Y-115476164D02*
X118004568Y-115481279D01*
X113511924Y-101434070D02*
X113510993Y-101556335D01*
X113482675Y-104741002D02*
X113489297Y-104689734D01*
X118503419Y-119056591D02*
X118509087Y-119079238D01*
X118701620Y-108678705D02*
X118711406Y-108672501D01*
X107773305Y-102888005D02*
X107779834Y-102820811D01*
X121869208Y-79049750D02*
X122239625Y-79060333D01*
X108549669Y-98487219D02*
X108540822Y-98260979D01*
X121234208Y-106143083D02*
X109380875Y-106143083D01*
X111088067Y-103650541D02*
X111053160Y-103657004D01*
X115955329Y-104402447D02*
X115947341Y-104416109D01*
X117907404Y-117395812D02*
X117898965Y-117438796D01*
X106568036Y-117076862D02*
X106582389Y-117071717D01*
X119442176Y-109430199D02*
X119432396Y-109438472D01*
X114405028Y-100772728D02*
X114407090Y-100716047D01*
X109158294Y-125674627D02*
X109113992Y-125666586D01*
X118670190Y-109387118D02*
X118659133Y-109380394D01*
X108659821Y-125602959D02*
X108643555Y-125596264D01*
X122024302Y-121680097D02*
X122018099Y-121740870D01*
X121441204Y-122402051D02*
X121425548Y-122407630D01*
X120151566Y-112976609D02*
X120172825Y-112979379D01*
X109442225Y-125392680D02*
X109447341Y-125409423D01*
X121816291Y-64921000D02*
X121816291Y-69567081D01*
X113443008Y-104998077D02*
X113448017Y-104981397D01*
X118048640Y-115493703D02*
X118083352Y-115499744D01*
X114378155Y-104299767D02*
X114384517Y-104284572D01*
X115885524Y-98455171D02*
X115906691Y-100201421D01*
X115848693Y-122400349D02*
X115830259Y-122397262D01*
X114435632Y-103636565D02*
X114442522Y-103623629D01*
X112640851Y-122224088D02*
X112634558Y-122240123D01*
X116520524Y-79616837D02*
X116118357Y-79648587D01*
X118990542Y-108630168D02*
X119028085Y-108630535D01*
X110932803Y-121417608D02*
X110923395Y-121430709D01*
X113545348Y-101142762D02*
X113539434Y-101154828D01*
X110147036Y-126447103D02*
X110152512Y-126453317D01*
X107634624Y-106090166D02*
X107634624Y-106513501D01*
X120287317Y-113029073D02*
X120295756Y-113039656D01*
X115949156Y-118836468D02*
X115957306Y-118824594D01*
X109387324Y-116221888D02*
X109382775Y-116244575D01*
X107391229Y-123988600D02*
X107371605Y-123985186D01*
X114012275Y-93660921D02*
X113504274Y-93629170D01*
X109387696Y-126469782D02*
X109378229Y-126460438D01*
X113631757Y-104465998D02*
X113649803Y-104459888D01*
X117934151Y-115433886D02*
X117941746Y-115442409D01*
X106622386Y-123176641D02*
X106611802Y-123168202D01*
X114352395Y-104337303D02*
X114362176Y-104326049D01*
X117857982Y-119438060D02*
X117857394Y-119427072D01*
X107511596Y-124092656D02*
X107506468Y-124076772D01*
X122610041Y-69630582D02*
X122641792Y-71990668D01*
X109531325Y-125524412D02*
X109543986Y-125531648D01*
X106824377Y-107770063D02*
X106806469Y-107765991D01*
X115300926Y-101810530D02*
X115289052Y-101818680D01*
X120192373Y-113696729D02*
X120172825Y-113700119D01*
X115304069Y-105101287D02*
X115311968Y-105118743D01*
X110098909Y-125877678D02*
X110095232Y-125933838D01*
X116778625Y-117890585D02*
X116788994Y-117880590D01*
X106680532Y-107296895D02*
X106677868Y-107249210D01*
X115544489Y-102652341D02*
X115597051Y-102650928D01*
X117836483Y-123908331D02*
X117844896Y-123919118D01*
X113380006Y-105091666D02*
X113390635Y-105083427D01*
X116006446Y-122987183D02*
X116003396Y-122968600D01*
X119630211Y-112982770D02*
X119649758Y-112979379D01*
X106683385Y-107532312D02*
X106682343Y-107476543D01*
X116955069Y-118238018D02*
X116950958Y-118286777D01*
X109908056Y-114548731D02*
X109926639Y-114545611D01*
X114349494Y-67348685D02*
X114345318Y-66912205D01*
X119593791Y-97824583D02*
X119593791Y-93178497D01*
X114314915Y-100977848D02*
X114328846Y-100969786D01*
X116914679Y-112648069D02*
X116907677Y-112698727D01*
X108490603Y-97956996D02*
X108475338Y-97937858D01*
X112471252Y-123034094D02*
X112488424Y-123038032D01*
X120047986Y-112970490D02*
X120103629Y-112972682D01*
X107493342Y-124049464D02*
X107485190Y-124037888D01*
X109295637Y-106949623D02*
X109287575Y-106963555D01*
X117944007Y-117297865D02*
X117936437Y-117311276D01*
X117962281Y-119567491D02*
X117950143Y-119561804D01*
X110152512Y-126453317D02*
X110158182Y-126458651D01*
X114456774Y-88983084D02*
X114456774Y-84220584D01*
X115254625Y-118895999D02*
X115625042Y-118895999D01*
X116852058Y-112852573D02*
X116842125Y-112863498D01*
X109398279Y-126478018D02*
X109387696Y-126469782D01*
X110084971Y-126195380D02*
X110087353Y-126231267D01*
X116881918Y-117369182D02*
X116890246Y-117323381D01*
X115260769Y-101831996D02*
X115244186Y-101837298D01*
X107767211Y-124826322D02*
X107716315Y-124818862D01*
X122265399Y-121439001D02*
X122216639Y-121443112D01*
X114280795Y-65481509D02*
X114276858Y-65477503D01*
X110119601Y-124062163D02*
X109952373Y-124050088D01*
X121871216Y-122319112D02*
X121856581Y-122325938D01*
X107634831Y-106586274D02*
X107635782Y-106650196D01*
X119489219Y-113458979D02*
X119488178Y-113403209D01*
X110102092Y-108958519D02*
X110109144Y-108906447D01*
X110894467Y-117995027D02*
X110919510Y-118002247D01*
X114292195Y-65528518D02*
X114284666Y-65491446D01*
X117919682Y-125684387D02*
X117904014Y-125688993D01*
X112344208Y-126452505D02*
X114407958Y-126378421D01*
X109817602Y-126517258D02*
X109761833Y-126516217D01*
X115400572Y-101184137D02*
X115393882Y-101195110D01*
X115107448Y-103536603D02*
X115125688Y-103532113D01*
X120314967Y-113078724D02*
X120319574Y-113094392D01*
X110034354Y-126595741D02*
X110026933Y-126583674D01*
X116552275Y-96042171D02*
X116573441Y-98391670D01*
X113874691Y-65445753D02*
X113557191Y-65435169D01*
X116010720Y-104120602D02*
X116004615Y-104185250D01*
X113639040Y-101077308D02*
X113624475Y-101081351D01*
X109576108Y-114557764D02*
X109633171Y-114556951D01*
X115993016Y-118640550D02*
X115994735Y-118576950D01*
X109646779Y-115513242D02*
X109604614Y-115517934D01*
X118659133Y-109380394D02*
X118649104Y-109373310D01*
X115065944Y-103543222D02*
X115087562Y-103540279D01*
X113448017Y-104981397D02*
X113452577Y-104963460D01*
X118128000Y-118901291D02*
X118175206Y-118896108D01*
X108514684Y-98000853D02*
X108503698Y-97977979D01*
X110026933Y-114489162D02*
X110034354Y-114477094D01*
X109432646Y-114576179D02*
X109448325Y-114571368D01*
X115964439Y-118811237D02*
X115970623Y-118796311D01*
X109698374Y-126515997D02*
X109634916Y-126515780D01*
X116828940Y-123273773D02*
X116823320Y-123254959D01*
X115246413Y-103385121D02*
X115250822Y-103362643D01*
X116520524Y-93692671D02*
X116552275Y-96042171D01*
X122031762Y-121627989D02*
X122024302Y-121680097D01*
X120381712Y-69723931D02*
X120374183Y-69686859D01*
X117546785Y-118016485D02*
X117403041Y-118028162D01*
X115254625Y-110429335D02*
X114407958Y-110429335D01*
X115275737Y-104991682D02*
X115279760Y-105015959D01*
X117981212Y-118945762D02*
X117999403Y-118937057D01*
X110068584Y-126866564D02*
X110067633Y-126802643D01*
X110806859Y-61475000D02*
X110806859Y-62800000D01*
X120334625Y-115509335D02*
X120334625Y-116355997D01*
X116016624Y-104047583D02*
X116010720Y-104120602D01*
X120333364Y-113220524D02*
X120334405Y-113276292D01*
X116823320Y-123254959D02*
X116816969Y-123237853D01*
X109986026Y-125616716D02*
X110001310Y-125621992D01*
X108628483Y-125588895D02*
X108614539Y-125580795D01*
X118450927Y-119613971D02*
X118438823Y-119617900D01*
X108575135Y-99893230D02*
X108571249Y-99485668D01*
X118598281Y-109256650D02*
X118598959Y-109243997D01*
X106505496Y-111175151D02*
X106483441Y-111173305D01*
X118523179Y-119157256D02*
X118526802Y-119185949D01*
X115328526Y-101779296D02*
X115320576Y-101790906D01*
X111019635Y-123597435D02*
X111013995Y-123684441D01*
X116133041Y-114578001D02*
X116748094Y-114587178D01*
X116920724Y-118758422D02*
X116913012Y-118779679D01*
X106968764Y-107782340D02*
X106913122Y-107780149D01*
X122271375Y-97856334D02*
X122610041Y-97888084D01*
X117847637Y-117847113D02*
X117842162Y-117865452D01*
X113512126Y-104587949D02*
X113518341Y-104571650D01*
X113525441Y-63085672D02*
X113518843Y-62350000D01*
X110645728Y-121514952D02*
X110576792Y-121520660D01*
X112562014Y-122317103D02*
X112546767Y-122324039D01*
X108481290Y-125245996D02*
X108471632Y-125184274D01*
X117952282Y-117285493D02*
X117944007Y-117297865D01*
X111793875Y-113688997D02*
X113508374Y-113657251D01*
X116857483Y-117619099D02*
X116863291Y-117551913D01*
X114407958Y-125563501D02*
X117805209Y-125563501D01*
X116181858Y-93660921D02*
X116520524Y-93692671D01*
X116231950Y-118908546D02*
X116207401Y-118919721D01*
X114407958Y-100576251D02*
X114407958Y-100163499D01*
X122036171Y-121604976D02*
X122031762Y-121627989D01*
X121334806Y-106971821D02*
X121326495Y-106959159D01*
X110842098Y-121484053D02*
X110823683Y-121489638D01*
X114276858Y-65477503D02*
X114251764Y-65473535D01*
X117936437Y-117311276D02*
X117929522Y-117325781D01*
X107740457Y-64815165D02*
X108375458Y-64815165D01*
X122027958Y-107042667D02*
X121668125Y-107042667D01*
X117903159Y-119012701D02*
X117911827Y-118999891D01*
X120319574Y-113094392D02*
X120323402Y-113111487D01*
X107535737Y-124633985D02*
X107531722Y-124585226D01*
X106311708Y-107042667D02*
X105941290Y-107042667D01*
X116051945Y-103746553D02*
X116046710Y-103767421D01*
X115996698Y-122878147D02*
X115995675Y-122822378D01*
X106671540Y-109582664D02*
X106703290Y-110355246D01*
X118066816Y-117211928D02*
X118049925Y-117217394D01*
X117013396Y-124007967D02*
X116996720Y-124002126D01*
X106535360Y-117084981D02*
X106552378Y-117081265D01*
X107669062Y-106857094D02*
X107676482Y-106869162D01*
X107792103Y-102736811D02*
X107797140Y-102712901D01*
X110161396Y-104017156D02*
X110167018Y-104753855D01*
X110806859Y-88490962D02*
X110785693Y-90840462D01*
X117948761Y-118965352D02*
X117964289Y-118955200D01*
X115353016Y-101700563D02*
X115349862Y-101719294D01*
X116892670Y-123855328D02*
X116888261Y-123832464D01*
X110106187Y-115470466D02*
X110094757Y-115477840D01*
X115999086Y-122926722D02*
X115996698Y-122878147D01*
X115497184Y-104544800D02*
X115479686Y-104549136D01*
X115969186Y-104371286D02*
X115962592Y-104387529D01*
X106673883Y-111347000D02*
X106670819Y-111324923D01*
X110938645Y-103686728D02*
X110917380Y-103695050D01*
X117829062Y-123896263D02*
X117836483Y-123908331D01*
X118108880Y-119605704D02*
X118089155Y-119602564D01*
X116994830Y-118120121D02*
X116986067Y-118132605D01*
X106682123Y-123552664D02*
X106681917Y-123479891D01*
X109943734Y-114541783D02*
X109959402Y-114537177D01*
X114398069Y-104229771D02*
X114401012Y-104208154D01*
X106607408Y-117058977D02*
X106618186Y-117051268D01*
X109465496Y-114567430D02*
X109484227Y-114564276D01*
X119249539Y-109468015D02*
X119190178Y-109465443D01*
X122175136Y-121449889D02*
X122156896Y-121454486D01*
X118709812Y-109405225D02*
X118695500Y-109399524D01*
X109557601Y-125538286D02*
X109572215Y-125544373D01*
X109237403Y-116405666D02*
X109216535Y-116410814D01*
X117821274Y-117912034D02*
X117812552Y-117924989D01*
X114407958Y-126515997D02*
X114407958Y-127362668D01*
X118613345Y-109332140D02*
X118608868Y-109322689D01*
X115244186Y-101837298D02*
X115225858Y-101841785D01*
X118529835Y-119215650D02*
X118532249Y-119246156D01*
X113532994Y-104542644D02*
X113541575Y-104529821D01*
X111289424Y-103624817D02*
X111246300Y-103629032D01*
X113587483Y-113077440D02*
X113594819Y-113063901D01*
X113137958Y-103677165D02*
X113094834Y-103681380D01*
X117801901Y-123792942D02*
X117804671Y-123814202D01*
X115962592Y-104387529D02*
X115955329Y-104402447D01*
X115342459Y-102727217D02*
X115351198Y-102715407D01*
X117921113Y-115414916D02*
X117927285Y-115424729D01*
X117892055Y-119040151D02*
X117896526Y-119026127D01*
X109683348Y-125571790D02*
X109730397Y-125578531D01*
X113539434Y-101154828D02*
X113534248Y-101168037D01*
X122017376Y-106598164D02*
X122027958Y-107042667D01*
X112597487Y-117251590D02*
X112603003Y-117297749D01*
X119513073Y-113064420D02*
X119519453Y-113051418D01*
X121457947Y-122396935D02*
X121441204Y-122402051D01*
X106720993Y-107713179D02*
X106713619Y-107701417D01*
X115875091Y-118881465D02*
X115890770Y-118876654D01*
X116480990Y-117943291D02*
X116544965Y-117942304D01*
X121278836Y-122638052D02*
X121272095Y-122685100D01*
X106824377Y-116369434D02*
X106843925Y-116366044D01*
X114401012Y-100821488D02*
X114405028Y-100772728D01*
X109998469Y-114517966D02*
X110009053Y-114509526D01*
X118299462Y-119624680D02*
X118251173Y-119620949D01*
X109418391Y-114581949D02*
X109432646Y-114576179D01*
X120330927Y-113507554D02*
X120326522Y-113549433D01*
X109425503Y-125313947D02*
X109433205Y-125355756D01*
X106678775Y-121205002D02*
X106680966Y-121149358D01*
X108427419Y-125004359D02*
X108419921Y-124988381D01*
X108462067Y-125129746D02*
X108451944Y-125081915D01*
X109283919Y-125744321D02*
X109275041Y-125732836D01*
X113610108Y-98307007D02*
X114065191Y-98275252D01*
X117051522Y-124016984D02*
X117031635Y-124012894D01*
X116041676Y-123069596D02*
X116033440Y-123059013D01*
X119593791Y-93178497D02*
X120546291Y-93178497D01*
X115315216Y-102788602D02*
X115320998Y-102770990D01*
X107105459Y-123976004D02*
X106682123Y-123976004D01*
X117043216Y-118081656D02*
X117028953Y-118089718D01*
X119507616Y-113078724D02*
X119513073Y-113064420D01*
X116014686Y-123019946D02*
X116010186Y-123004277D01*
X115283514Y-104756579D02*
X115280532Y-104773471D01*
X116150108Y-74864920D02*
X116520524Y-74864920D01*
X106651066Y-117010203D02*
X106657009Y-116997097D01*
X119028085Y-108630535D02*
X119065162Y-108631615D01*
X106636560Y-117032894D02*
X106644269Y-117022116D01*
X114242912Y-101001956D02*
X114263517Y-100996983D01*
X109327957Y-117943503D02*
X110100541Y-117943503D01*
X107656949Y-106828830D02*
X107662571Y-106843675D01*
X117835998Y-117882337D02*
X117829062Y-117897840D01*
X118896511Y-108632318D02*
X118941271Y-108630685D01*
X110899494Y-103703698D02*
X110891887Y-103708139D01*
X111021292Y-123499747D02*
X111019635Y-123597435D01*
X115741231Y-122390089D02*
X115686756Y-122388821D01*
X121284027Y-106800316D02*
X121277596Y-106741846D01*
X114414407Y-103724297D02*
X114417140Y-103703425D01*
X110983150Y-118103223D02*
X110989253Y-118131994D01*
X106644269Y-117022116D02*
X106651066Y-117010203D01*
X121980168Y-122135159D02*
X121975686Y-122157402D01*
X121805407Y-122342506D02*
X121785738Y-122346960D01*
X117904014Y-125688993D02*
X117889710Y-125694450D01*
X108812641Y-125635663D02*
X108761362Y-125628286D01*
X117197824Y-114597843D02*
X117368870Y-114606990D01*
X119413875Y-108704252D02*
X119421683Y-108712145D01*
X106682123Y-111646414D02*
X106681400Y-111489215D01*
X110212856Y-108709624D02*
X110227522Y-108702121D01*
X109196023Y-125684653D02*
X109177947Y-125679353D01*
X107648060Y-106794582D02*
X107652133Y-106812490D01*
X117934756Y-118976197D02*
X117948761Y-118965352D01*
X115424751Y-102668736D02*
X115441127Y-102664319D01*
X115357318Y-101658150D02*
X115353016Y-101700563D01*
X106682343Y-107476543D02*
X106682123Y-107413084D01*
X119481013Y-109335119D02*
X119478069Y-109353105D01*
X117938799Y-119555816D02*
X117928240Y-119549521D01*
X121372905Y-122435468D02*
X121362017Y-122444031D01*
X110866091Y-103741236D02*
X110866091Y-105085317D01*
X117812552Y-117924989D02*
X117802814Y-117936777D01*
X109241444Y-125704768D02*
X109227705Y-125697282D01*
X115975924Y-118779727D02*
X115980412Y-118761400D01*
X106582389Y-117071717D02*
X106595495Y-117065774D01*
X121391118Y-107016435D02*
X121377662Y-107009753D01*
X109364407Y-124979410D02*
X109371232Y-124994045D01*
X106697175Y-107658444D02*
X106693347Y-107641349D01*
X115815240Y-104499011D02*
X115795571Y-104503465D01*
X110127928Y-108822179D02*
X110133995Y-108804856D01*
X112452521Y-123030940D02*
X112471252Y-123034094D01*
X113534248Y-101168037D02*
X113529744Y-101182440D01*
X113497390Y-101684117D02*
X113492579Y-101699796D01*
X117892526Y-115310507D02*
X117896696Y-115341198D01*
X114251764Y-65473535D02*
X114216996Y-65469567D01*
X117950104Y-115450315D02*
X117959260Y-115457624D01*
X106568036Y-107062637D02*
X106552378Y-107058234D01*
X113417352Y-105053135D02*
X113424721Y-105041031D01*
X114407958Y-100163499D02*
X115995458Y-100163499D01*
X112714625Y-103793584D02*
X112714625Y-105137665D01*
X113311006Y-101798695D02*
X113256474Y-101802042D01*
X121636375Y-122367331D02*
X121583730Y-122373469D01*
X113275707Y-105127909D02*
X113294203Y-105124716D01*
X121326214Y-122486033D02*
X121318978Y-122498694D01*
X121975686Y-122157402D02*
X121970760Y-122178040D01*
X113525876Y-101198087D02*
X113522597Y-101215029D01*
X110853281Y-126485571D02*
X111534748Y-126476478D01*
X115975488Y-122502588D02*
X115970343Y-122488235D01*
X106640266Y-123197005D02*
X106631853Y-123186218D01*
X112715178Y-103788654D02*
X112714625Y-103793584D01*
X116725212Y-117920062D02*
X116740511Y-117914136D01*
X110915458Y-108619585D02*
X110915458Y-109476834D01*
X117936776Y-123964781D02*
X117955359Y-123967901D01*
X116854432Y-118861642D02*
X116838156Y-118873510D01*
X110165783Y-108748512D02*
X110175949Y-108737323D01*
X110089959Y-109085249D02*
X110095878Y-109017939D01*
X114820708Y-103550168D02*
X114960504Y-103549300D01*
X121816291Y-74340165D02*
X121837458Y-76700250D01*
X114407958Y-109582664D02*
X115254625Y-109582664D01*
X110415276Y-97920711D02*
X110753942Y-97952461D01*
X106479511Y-121432304D02*
X106521390Y-121427898D01*
X119410438Y-108700315D02*
X119413875Y-108704252D01*
X109537786Y-115536124D02*
X109524329Y-115542958D01*
X122207874Y-83844000D02*
X121816291Y-83875751D01*
X114341313Y-100960744D02*
X114352395Y-100950638D01*
X110400789Y-124073971D02*
X110268737Y-124070284D01*
X106535360Y-107054518D02*
X106516926Y-107051431D01*
X110068791Y-114133499D02*
X110068791Y-113710164D01*
X110148250Y-108774231D02*
X110156572Y-108760792D01*
X117969250Y-115464355D02*
X117980108Y-115470529D01*
X113560356Y-113164523D02*
X113569560Y-113125603D01*
X109083157Y-116429316D02*
X108936375Y-116440665D01*
X106618186Y-107088231D02*
X106607408Y-107080522D01*
X118692583Y-108685420D02*
X118701620Y-108678705D01*
X119379438Y-109460692D02*
X119362332Y-109463830D01*
X110187137Y-108727157D02*
X110199417Y-108717947D01*
X113452577Y-104963460D02*
X113456743Y-104944223D01*
X115409658Y-102673993D02*
X115424751Y-102668736D01*
X115281581Y-103029048D02*
X115287387Y-102961530D01*
X116139591Y-119075423D02*
X116129073Y-119151322D01*
X119699625Y-102502420D02*
X120154708Y-102470665D01*
X118089155Y-119602564D02*
X118070311Y-119599157D01*
X113610108Y-100910506D02*
X113610108Y-98307007D01*
X113390635Y-105083427D02*
X113400365Y-105074288D01*
X109324469Y-125910705D02*
X109320351Y-125862481D01*
X106664616Y-121311655D02*
X106668688Y-121293747D01*
X113327375Y-105116523D02*
X113342163Y-105111435D01*
X114169538Y-101013824D02*
X114220434Y-101006365D01*
X115995135Y-122697205D02*
X115993867Y-122642729D01*
X109382860Y-125026894D02*
X109387801Y-125045220D01*
X114352395Y-100950638D02*
X114362176Y-100939384D01*
X112504103Y-123042843D02*
X112518357Y-123048613D01*
X118083352Y-115499744D02*
X118122652Y-115504173D01*
X118342015Y-119626551D02*
X118299462Y-119624680D01*
X109465676Y-115609140D02*
X109458948Y-115625090D01*
X113452392Y-101758182D02*
X113440518Y-101766332D01*
X115991203Y-122595044D02*
X115986694Y-122553700D01*
X115432407Y-104564539D02*
X115418315Y-104570530D01*
X112562489Y-123083029D02*
X112570639Y-123094904D01*
X117842162Y-117865452D02*
X117835998Y-117882337D01*
X118483932Y-119001547D02*
X118490810Y-119017544D01*
X112410108Y-117099971D02*
X112452521Y-117104274D01*
X110001310Y-125621992D02*
X110015303Y-125627845D01*
X116042090Y-103790109D02*
X116034344Y-103841292D01*
X117090999Y-117144127D02*
X117142859Y-117136277D01*
X109336198Y-114733670D02*
X109339262Y-114711593D01*
X121837458Y-86119420D02*
X121869208Y-88363084D01*
X106670273Y-107189432D02*
X106666556Y-107172414D01*
X118006003Y-117237311D02*
X117993445Y-117245304D01*
X110067633Y-114270194D02*
X110068791Y-114133499D01*
X109423043Y-126491443D02*
X109410041Y-126485215D01*
X113611057Y-101086083D02*
X113598740Y-101091557D01*
X113995208Y-112969333D02*
X114407958Y-112969333D01*
X119469903Y-109384433D02*
X119464518Y-109397896D01*
X121265959Y-122737744D02*
X121234208Y-123076416D01*
X120599208Y-102438914D02*
X120599208Y-97888084D01*
X107644670Y-106775035D02*
X107648060Y-106794582D01*
X115515588Y-104540834D02*
X115497184Y-104544800D01*
X115949894Y-122452437D02*
X115941218Y-122442738D01*
X121548835Y-107041364D02*
X121500112Y-107038829D01*
X108528922Y-125465745D02*
X108522632Y-125447248D01*
X108184959Y-102491832D02*
X108375458Y-102466088D01*
X119995958Y-79081500D02*
X119540874Y-79049750D01*
X120241466Y-112997281D02*
X120254886Y-113003772D01*
X110018520Y-126572887D02*
X110009053Y-126563309D01*
X107641900Y-106753776D02*
X107644670Y-106775035D01*
X117752081Y-117973698D02*
X117736045Y-117980729D01*
X110082124Y-115484220D02*
X110068227Y-115489677D01*
X118534011Y-119277267D02*
X118535091Y-119308781D01*
X109761833Y-126516217D02*
X109698374Y-126515997D01*
X114407958Y-102703497D02*
X113561292Y-102703497D01*
X106735041Y-111117248D02*
X107137209Y-111148999D01*
X121919134Y-122283440D02*
X121908635Y-122293754D01*
X109223335Y-124879864D02*
X109242438Y-124885290D01*
X116118357Y-79648587D02*
X115726774Y-79680338D01*
X120546291Y-93178497D02*
X120546291Y-88415997D01*
X121265959Y-106598164D02*
X121234208Y-106143083D01*
X115250822Y-103362643D02*
X115258281Y-103311747D01*
X115258281Y-103311747D02*
X115264484Y-103252386D01*
X113464120Y-104901669D02*
X113470598Y-104853380D01*
X119449815Y-108778135D02*
X119455918Y-108801919D01*
X114494355Y-103577841D02*
X114508727Y-103571934D01*
X116026243Y-123047251D02*
X116020015Y-123034250D01*
X116940860Y-117210977D02*
X116951927Y-117200020D01*
X114299415Y-65587543D02*
X114292195Y-65528518D01*
X114242912Y-104388621D02*
X114263517Y-104383648D01*
X107528792Y-117202667D02*
X106682123Y-117202667D01*
X117804671Y-123814202D02*
X117808061Y-123833749D01*
X118518728Y-119537335D02*
X118514315Y-119549985D01*
X115254625Y-109582664D02*
X115254625Y-110429335D01*
X118758556Y-108652492D02*
X118787285Y-108645154D01*
X113569560Y-113125603D02*
X113574919Y-113108238D01*
X117368870Y-114606990D02*
X117442370Y-114613086D01*
X107941583Y-106936612D02*
X108005042Y-106936831D01*
X110083674Y-126157990D02*
X110084971Y-126195380D01*
X109287575Y-106963555D02*
X109278533Y-106976021D01*
X106643972Y-111241571D02*
X106635822Y-111229697D01*
X107528792Y-120589331D02*
X107528792Y-119636835D01*
X111204385Y-103633728D02*
X111163897Y-103638888D01*
X115995458Y-102650584D02*
X115995458Y-101116000D01*
X107693838Y-124814453D02*
X107673233Y-124809480D01*
X113431416Y-105027850D02*
X113437493Y-105013547D01*
X116771340Y-123175115D02*
X116758856Y-123166556D01*
X118165041Y-125669336D02*
X118101583Y-125669555D01*
X109329115Y-126236453D02*
X109327958Y-126103250D01*
X115290808Y-104725040D02*
X115286933Y-104740442D01*
X106703290Y-110355246D02*
X106735041Y-111117248D01*
X117889875Y-115276498D02*
X117892526Y-115310507D01*
X109309152Y-106917040D02*
X109302802Y-106934145D01*
X109399975Y-125108482D02*
X109406579Y-125158120D01*
X118196792Y-119615668D02*
X118151014Y-119611197D01*
X109498614Y-125498678D02*
X109508683Y-125507972D01*
X110083493Y-126119298D02*
X110083674Y-126157990D01*
X114407958Y-103962919D02*
X114408764Y-103826679D01*
X115284652Y-105039244D02*
X115290364Y-105061351D01*
X112593745Y-117231431D02*
X112597487Y-117251590D01*
X106666556Y-107172414D02*
X106662154Y-107156756D01*
X113419608Y-72504837D02*
X113398441Y-70144752D01*
X117567367Y-114629139D02*
X117619682Y-114639422D01*
X121975041Y-102650584D02*
X121996208Y-104396834D01*
X120303130Y-113628084D02*
X120295756Y-113639845D01*
X109585821Y-115521265D02*
X109568463Y-115525355D01*
X109337818Y-106744885D02*
X109331614Y-106804246D01*
X108267640Y-97845585D02*
X108230051Y-97840957D01*
X109519572Y-125516535D02*
X109531325Y-125524412D01*
X110268737Y-124070284D02*
X110119601Y-124062163D01*
X109604613Y-125555067D02*
X109641539Y-125564087D01*
X121384658Y-122427591D02*
X121372905Y-122435468D01*
X113574919Y-113108238D02*
X113580872Y-113092202D01*
X110912289Y-123956670D02*
X110890760Y-123976068D01*
X114582087Y-103556617D02*
X114629348Y-103552889D01*
X119526827Y-113039656D02*
X119535266Y-113029073D01*
X116788994Y-117880590D02*
X116798324Y-117869413D01*
X108576541Y-102438914D02*
X108576541Y-100322247D01*
X116754461Y-117907292D02*
X116767140Y-117899464D01*
X108189671Y-97837709D02*
X108146438Y-97835795D01*
X121354176Y-106993178D02*
X121344010Y-106983135D01*
X115416462Y-101165269D02*
X115408083Y-101174207D01*
X109341394Y-126377189D02*
X109338004Y-126358132D01*
X110874447Y-121470437D02*
X110858994Y-121477685D01*
X118637923Y-108784122D02*
X118644266Y-108759421D01*
X113644677Y-113012717D02*
X113657745Y-113005416D01*
X116740511Y-117914136D02*
X116754461Y-117907292D01*
X119513073Y-113615082D02*
X119507616Y-113600778D01*
X116833913Y-123294379D02*
X116828940Y-123273773D01*
X108322540Y-69630582D02*
X108036793Y-69598834D01*
X113504274Y-88983084D02*
X114456774Y-88983084D01*
X122195022Y-121446126D02*
X122175136Y-121449889D01*
X109212587Y-125690603D02*
X109196023Y-125684653D01*
X110089959Y-125997424D02*
X110086605Y-126038813D01*
X116568495Y-118923442D02*
X116487108Y-118920949D01*
X114408764Y-103826679D02*
X114410679Y-103771558D01*
X111163897Y-103638888D02*
X111125052Y-103644498D01*
X118476712Y-118988170D02*
X118483932Y-119001547D01*
X118602355Y-109302493D02*
X118600261Y-109291728D01*
X115990001Y-104291662D02*
X115985519Y-104313905D01*
X110100046Y-125785589D02*
X110100632Y-125828432D01*
X116153329Y-123119288D02*
X116134272Y-123115898D01*
X110174420Y-115158770D02*
X110173488Y-115222692D01*
X110074654Y-125678674D02*
X110080861Y-125690361D01*
X109291748Y-125756999D02*
X109283919Y-125744321D01*
X107809064Y-102670635D02*
X107816095Y-102652085D01*
X115341113Y-101752144D02*
X115335343Y-101766398D01*
X107793375Y-88468915D02*
X107761626Y-86119420D01*
X114407090Y-100716047D02*
X114407958Y-100576251D01*
X114350941Y-67816419D02*
X114349494Y-67348685D01*
X119400881Y-108692641D02*
X119406097Y-108696443D01*
X116729863Y-123152774D02*
X116713188Y-123147388D01*
X115702341Y-104517789D02*
X115646207Y-104523836D01*
X110100541Y-117943503D02*
X110260201Y-117944949D01*
X108438048Y-97904930D02*
X108415899Y-97891047D01*
X110753942Y-69694959D02*
X110785693Y-72055045D01*
X118337377Y-118907552D02*
X118358451Y-118913202D01*
X114407958Y-112969333D02*
X114407958Y-114556834D01*
X109331306Y-126290682D02*
X109329115Y-126236453D01*
X121952758Y-122231025D02*
X121945495Y-122245943D01*
X119408847Y-109451637D02*
X119394915Y-109456648D01*
X108089708Y-93051500D02*
X108428375Y-93019749D01*
X117403041Y-118028162D02*
X117252828Y-118039471D01*
X106311708Y-117096832D02*
X106373423Y-117096509D01*
X110084460Y-126079505D02*
X110083493Y-126119298D01*
X113525273Y-104556567D02*
X113532994Y-104542644D01*
X109480758Y-125477721D02*
X109489321Y-125488609D01*
X110955476Y-121369151D02*
X110948766Y-121386926D01*
X109452910Y-115642652D02*
X109447494Y-115661904D01*
X108100291Y-97835167D02*
X107740457Y-97835167D01*
X117797974Y-125900331D02*
X117795783Y-125955973D01*
X109377360Y-125009854D02*
X109382860Y-125026894D01*
X121668125Y-107042667D02*
X121604658Y-107042442D01*
X115832607Y-88993672D02*
X115832607Y-93629170D01*
X113455458Y-108630168D02*
X112608791Y-108630168D01*
X107837238Y-106933134D02*
X107885814Y-106935571D01*
X109526640Y-114559974D02*
X109576108Y-114557764D01*
X122610041Y-97888084D02*
X122641792Y-100237584D01*
X117736045Y-117980729D02*
X117718505Y-117987023D01*
X119487958Y-74340165D02*
X120440458Y-74340165D01*
X115957306Y-118824594D02*
X115964439Y-118811237D01*
X119362332Y-109463830D02*
X119343517Y-109466120D01*
X114284666Y-65491446D02*
X114280795Y-65481509D01*
X118003561Y-119582775D02*
X117988981Y-119577972D01*
X109369816Y-126449916D02*
X109362395Y-126438146D01*
X115993867Y-122642729D02*
X115991203Y-122595044D01*
X119649758Y-112979379D02*
X119671017Y-112976609D01*
X119406097Y-108696443D02*
X119410438Y-108700315D01*
X110087353Y-126231267D02*
X110090790Y-126265448D01*
X115408083Y-101174207D02*
X115400572Y-101184137D01*
X114424723Y-103666821D02*
X114429724Y-103650937D01*
X106680966Y-123415970D02*
X106678775Y-123360328D01*
X116947958Y-103539584D02*
X116503458Y-103571335D01*
X116748094Y-114587178D02*
X116991989Y-114591673D01*
X109276320Y-124897866D02*
X109291237Y-124905129D01*
X116836833Y-117773836D02*
X116844874Y-117729533D01*
X121357446Y-121474870D02*
X121369208Y-121467496D01*
X110986730Y-123828331D02*
X110975850Y-123858378D01*
X118082282Y-118909947D02*
X118128000Y-118901291D01*
X107761626Y-103052748D02*
X107767427Y-102965059D01*
X115289052Y-101818680D02*
X115275695Y-101825813D01*
X118941271Y-108630685D02*
X118990542Y-108630168D01*
X116745058Y-123159136D02*
X116729863Y-123152774D01*
X106311708Y-111170166D02*
X105941290Y-111170166D01*
X116943989Y-123968062D02*
X116933883Y-123956484D01*
X122077383Y-121504233D02*
X122068341Y-121516996D01*
X115995458Y-117943503D02*
X116408209Y-117943503D01*
X114362176Y-100939384D02*
X114370735Y-100926900D01*
X115329626Y-105147701D02*
X115334394Y-105153565D01*
X114407958Y-101856831D02*
X114407958Y-102703497D01*
X106672078Y-123291132D02*
X106668688Y-123271585D01*
X112488424Y-123038032D02*
X112504103Y-123042843D01*
X115857920Y-118885404D02*
X115875091Y-118881465D01*
X118514291Y-119103699D02*
X118518999Y-119129772D01*
X110046467Y-114448830D02*
X110051283Y-114432489D01*
X111021292Y-111170166D02*
X111867958Y-111170166D01*
X110888537Y-121462212D02*
X110874447Y-121470437D01*
X106682123Y-121541836D02*
X106682123Y-123023498D01*
X116101291Y-103654675D02*
X116090486Y-103666456D01*
X107637312Y-124797509D02*
X107621835Y-124790345D01*
X107552232Y-124710404D02*
X107546847Y-124693728D01*
X109761833Y-114556615D02*
X109817602Y-114555573D01*
X115686756Y-122388821D02*
X115625042Y-122388498D01*
X116004615Y-104185250D02*
X115997858Y-104242084D01*
X119567698Y-113675728D02*
X119555630Y-113668308D01*
X115463071Y-104553860D02*
X115447318Y-104558988D01*
X116814178Y-117843249D02*
X116820857Y-117828130D01*
X106600041Y-121404506D02*
X106611802Y-121397132D01*
X106552378Y-117081265D02*
X106568036Y-117076862D01*
X107776776Y-106925609D02*
X107795359Y-106928729D01*
X117980108Y-115470529D02*
X117991869Y-115476164D01*
X116648979Y-117935896D02*
X116670448Y-117932986D01*
X107531722Y-124585226D02*
X107529660Y-124528545D01*
X122218458Y-69598834D02*
X122610041Y-69630582D01*
X117889710Y-125694450D02*
X117876708Y-125700830D01*
X111534748Y-126476478D02*
X112344208Y-126452505D01*
X106607408Y-107080522D02*
X106595495Y-107073725D01*
X116900744Y-117284154D02*
X116907015Y-117266821D01*
X107676482Y-106869162D02*
X107684895Y-106879948D01*
X117857394Y-119427072D02*
X117857444Y-119415719D01*
X109289961Y-116385758D02*
X109274029Y-116393225D01*
X107885814Y-106935571D02*
X107941583Y-106936612D01*
X106475582Y-117092577D02*
X106516926Y-117088068D01*
X119555630Y-113668308D02*
X119544844Y-113659895D01*
X116842125Y-112863498D02*
X116831200Y-112873431D01*
X121965334Y-122197143D02*
X121959353Y-122214782D01*
X117812133Y-123851658D02*
X117816949Y-123867998D01*
X117027069Y-117159574D02*
X117046642Y-117153837D01*
X107500409Y-124062400D02*
X107493342Y-124049464D01*
X116101291Y-112979921D02*
X116101291Y-112122667D01*
X117705989Y-114665312D02*
X117740800Y-114681245D01*
X121785738Y-122346960D02*
X121742146Y-122354680D01*
X116851984Y-123427112D02*
X116845781Y-123367752D01*
X109253869Y-125713137D02*
X109241444Y-125704768D01*
X122010761Y-105763408D02*
X122017376Y-106598164D01*
X118649104Y-109373310D02*
X118640072Y-109365855D01*
X110055355Y-114414581D02*
X110058745Y-114395034D01*
X115425756Y-101157273D02*
X115416462Y-101165269D01*
X110158182Y-126458651D02*
X110164041Y-126463080D01*
X121287124Y-122282663D02*
X121287124Y-121859332D01*
X120172825Y-112979379D02*
X120192373Y-112982770D01*
X106683385Y-116607192D02*
X106685821Y-116558616D01*
X109317500Y-116367893D02*
X109304422Y-116377343D01*
X116220778Y-123125985D02*
X116174052Y-123122057D01*
X115280532Y-104773471D02*
X115275791Y-104809585D01*
X107538681Y-124655602D02*
X107535737Y-124633985D01*
X110114458Y-126381087D02*
X110122700Y-126403718D01*
X109952373Y-124050088D02*
X109380875Y-124018338D01*
X118425642Y-119621054D02*
X118411339Y-119623471D01*
X112504103Y-117116177D02*
X112518357Y-117121947D01*
X115980593Y-104334543D02*
X115975168Y-104353647D01*
X107409148Y-123992769D02*
X107391229Y-123988600D01*
X107607903Y-124782283D02*
X107595437Y-124773240D01*
X108894041Y-107042667D02*
X108481290Y-107042667D01*
X109401277Y-116111197D02*
X109394975Y-116170705D01*
X110785693Y-100301961D02*
X110806859Y-102651460D01*
X116181858Y-84199422D02*
X116573441Y-84231172D01*
X113632729Y-113020927D02*
X113644677Y-113012717D01*
X109326759Y-125966494D02*
X109324469Y-125910705D01*
X110122700Y-126403718D02*
X110127149Y-126413953D01*
X116105756Y-119658165D02*
X116102097Y-120059359D01*
X117889875Y-119054751D02*
X117892055Y-119040151D01*
X106775284Y-116383946D02*
X106790129Y-116378324D01*
X117879292Y-117604831D02*
X117873478Y-117672024D01*
X108146438Y-97835795D02*
X108100291Y-97835167D01*
X106682123Y-112122667D02*
X106682123Y-111646414D01*
X108375458Y-102466088D02*
X108375458Y-104502664D01*
X109959402Y-126535657D02*
X109943734Y-126531050D01*
X122041144Y-121583881D02*
X122036171Y-121604976D01*
X106577435Y-111189511D02*
X106561757Y-111184700D01*
X120266953Y-113668308D02*
X120254886Y-113675728D01*
X120103629Y-113706816D02*
X120047986Y-113709006D01*
X107350198Y-123982453D02*
X107301726Y-123978725D01*
X108523624Y-98025665D02*
X108514684Y-98000853D01*
X121365371Y-107002025D02*
X121354176Y-106993178D01*
X107984004Y-102526021D02*
X108007132Y-102520622D01*
X109328735Y-124931491D02*
X109339048Y-124941991D01*
X116882185Y-118833527D02*
X116869082Y-118848331D01*
X110966741Y-121328249D02*
X110961442Y-121349625D01*
X121334091Y-122474281D02*
X121326214Y-122486033D01*
X112531255Y-117128763D02*
X112542865Y-117136713D01*
X121362017Y-122444031D02*
X121351948Y-122453324D01*
X115275695Y-101825813D02*
X115260769Y-101831996D01*
X114065191Y-98275252D02*
X114509691Y-98243501D01*
X108578814Y-125551549D02*
X108568723Y-125539964D01*
X113624475Y-101081351D02*
X113611057Y-101086083D01*
X116291791Y-118906582D02*
X116260003Y-118904782D01*
X122662958Y-74340165D02*
X121816291Y-74340165D01*
X115195094Y-103494605D02*
X115205201Y-103483522D01*
X115205700Y-101845527D02*
X115159540Y-101851043D01*
X113074458Y-105137665D02*
X113134436Y-105137233D01*
X108272731Y-124880833D02*
X108228284Y-124870952D01*
X109452920Y-125425079D02*
X109459006Y-125439692D01*
X108327570Y-124899994D02*
X108310759Y-124892946D01*
X108343021Y-124907787D02*
X108327570Y-124899994D01*
X112658566Y-122144093D02*
X112655121Y-122166632D01*
X108036793Y-74213167D02*
X108322540Y-74181417D01*
X115538618Y-101121162D02*
X115503333Y-101126252D01*
X112936601Y-103702889D02*
X112901694Y-103709352D01*
X120440458Y-79113251D02*
X119995958Y-79081500D01*
X112627382Y-122254737D02*
X112619257Y-122268009D01*
X116573441Y-98391670D02*
X116234775Y-98423421D01*
X110040844Y-114463674D02*
X110046467Y-114448830D01*
X112838979Y-103723470D02*
X112811606Y-103731094D01*
X116971956Y-118161599D02*
X116966443Y-118178274D01*
X116916779Y-123929111D02*
X116909614Y-123913161D01*
X110576792Y-121520660D02*
X110174625Y-121552420D01*
X110810622Y-124022808D02*
X110778306Y-124034769D01*
X118533494Y-119435665D02*
X118530505Y-119474723D01*
X119487958Y-113339751D02*
X119488178Y-113276292D01*
X117874000Y-119221433D02*
X117881938Y-119130154D01*
X119318997Y-108662206D02*
X119342122Y-108668309D01*
X115436011Y-101150168D02*
X115425756Y-101157273D01*
X114370735Y-100926900D02*
X114378155Y-100913102D01*
X116141504Y-103626238D02*
X116126711Y-103634653D01*
X115334394Y-105153565D02*
X115339292Y-105158832D01*
X118166819Y-115507144D02*
X118216134Y-115508813D01*
X111867958Y-121436001D02*
X112693458Y-121436001D01*
X109349126Y-120980920D02*
X109327957Y-117943503D01*
X115498592Y-102655398D02*
X115544489Y-102652341D01*
X106600041Y-123160828D02*
X106587039Y-123154448D01*
X107528792Y-109582664D02*
X107528792Y-108630168D01*
X116134272Y-123115898D02*
X116116811Y-123111825D01*
X109257173Y-106996884D02*
X109244689Y-107005444D01*
X115597051Y-102650928D02*
X115656792Y-102650584D01*
X115473009Y-101133699D02*
X115459591Y-101138431D01*
X109216535Y-116410814D02*
X109193848Y-116415364D01*
X110095878Y-109017939D02*
X110102092Y-108958519D01*
X109412625Y-125214255D02*
X109418762Y-125266899D01*
X120047986Y-113709006D02*
X119911291Y-113710164D01*
X109508683Y-125507972D02*
X109519572Y-125516535D01*
X114282332Y-104378028D02*
X114299437Y-104371678D01*
X109319746Y-106877620D02*
X109314773Y-106898225D01*
X113522597Y-101215029D02*
X113519861Y-101233315D01*
X118867911Y-109440063D02*
X118843638Y-109436664D01*
X110243482Y-108695370D02*
X110260804Y-108689303D01*
X117847772Y-114797304D02*
X117858612Y-114828934D01*
X106676336Y-111371083D02*
X106673883Y-111347000D01*
X115964400Y-122475129D02*
X115957602Y-122463215D01*
X116845781Y-123367752D02*
X116838321Y-123316856D01*
X120210281Y-113692657D02*
X120192373Y-113696729D01*
X115941218Y-122442738D02*
X115931520Y-122434063D01*
X115625042Y-118895999D02*
X115747308Y-118895069D01*
X110706107Y-121509212D02*
X110645728Y-121514952D01*
X106651105Y-111254928D02*
X106643972Y-111241571D01*
X110943218Y-118013649D02*
X110947208Y-118017587D01*
X117929522Y-117325781D02*
X117923211Y-117341432D01*
X106685821Y-116558616D02*
X106690227Y-116516737D01*
X119503009Y-113585110D02*
X119499181Y-113568015D01*
X110058745Y-126677804D02*
X110055355Y-126658256D01*
X106682343Y-116662961D02*
X106683385Y-116607192D01*
X116932781Y-118710657D02*
X116927287Y-118735431D01*
X116778779Y-118900936D02*
X116755205Y-118907513D01*
X115349784Y-104616689D02*
X115340834Y-104626248D01*
X118469183Y-118977615D02*
X118476712Y-118988170D01*
X117999403Y-118937057D02*
X118039075Y-118921920D01*
X115334555Y-102740369D02*
X115342459Y-102727217D01*
X114384517Y-104284572D02*
X114389903Y-104267897D01*
X112606349Y-123278947D02*
X112608067Y-123342547D01*
X122662958Y-102587083D02*
X122324292Y-102618834D01*
X118019569Y-117230031D02*
X118006003Y-117237311D01*
X109215696Y-107019226D02*
X109199020Y-107024611D01*
X113504274Y-84220584D02*
X113504274Y-79669754D01*
X106682123Y-123976004D02*
X106682123Y-123552664D01*
X109783042Y-125584668D02*
X109839160Y-125590582D01*
X110976644Y-118077941D02*
X110983150Y-118103223D01*
X119496061Y-113130070D02*
X119499181Y-113111487D01*
X108716440Y-125619560D02*
X108696198Y-125614551D01*
X110411427Y-117949124D02*
X110550746Y-117955779D01*
X116186124Y-118940152D02*
X116167884Y-118971682D01*
X113567928Y-101112921D02*
X113559549Y-101121859D01*
X116926792Y-112524830D02*
X116920875Y-112590279D01*
X118122652Y-115504173D02*
X118166819Y-115507144D01*
X106375166Y-121435782D02*
X106430935Y-121434741D01*
X118045813Y-125670597D02*
X117997238Y-125673033D01*
X116061543Y-123087476D02*
X116051021Y-123079063D01*
X107662571Y-106843675D02*
X107669062Y-106857094D01*
X115311405Y-101801294D02*
X115300926Y-101810530D01*
X109352793Y-114656524D02*
X109358976Y-114641597D01*
X113764052Y-104436837D02*
X113822299Y-104430031D01*
X107637973Y-106705838D02*
X107641900Y-106753776D01*
X111867958Y-112016832D02*
X111021292Y-112016832D01*
X115917922Y-118864068D02*
X115929532Y-118856118D01*
X106475582Y-107046922D02*
X106427897Y-107044258D01*
X110028050Y-125634340D02*
X110039595Y-125641540D01*
X110136682Y-126432137D02*
X110141758Y-126440035D01*
X110068791Y-113710164D02*
X110174625Y-113708865D01*
X109298592Y-125770949D02*
X109291748Y-125756999D01*
X112447811Y-122348774D02*
X112396360Y-122355549D01*
X109291237Y-124905129D02*
X109304899Y-124913117D01*
X119265708Y-108651333D02*
X119293453Y-108656537D01*
X107744013Y-106917175D02*
X107759682Y-106921782D01*
X117981844Y-117254065D02*
X117971150Y-117263647D01*
X107864805Y-102581291D02*
X107877760Y-102570845D01*
X119466791Y-108856386D02*
X119475680Y-108918294D01*
X118819720Y-108639428D02*
X118856061Y-108635191D01*
X112672292Y-121891083D02*
X112670217Y-121967591D01*
X108936375Y-125648169D02*
X108870803Y-125642141D01*
X115360458Y-101486418D02*
X115359527Y-101608683D01*
X119612302Y-113692657D02*
X119595962Y-113687841D01*
X108402717Y-124960083D02*
X108392847Y-124947640D01*
X118472080Y-119603633D02*
X118461997Y-119609229D01*
X117906411Y-115381353D02*
X117910711Y-115393247D01*
X122216639Y-121443112D02*
X122195022Y-121446126D01*
X110127149Y-126413953D02*
X110131811Y-126423435D01*
X110147388Y-115416174D02*
X110141074Y-115429595D01*
X110009053Y-126563309D02*
X109998469Y-126554869D01*
X121309449Y-121544005D02*
X121315071Y-121529160D01*
X111021292Y-123023498D02*
X111021292Y-123499747D01*
X122068341Y-121516996D02*
X122060279Y-121531259D01*
X106682123Y-104502664D02*
X106682123Y-106090166D01*
X115418315Y-104570530D02*
X115405022Y-104576978D01*
X109986708Y-126547495D02*
X109973706Y-126541115D01*
X108117767Y-102501387D02*
X108184959Y-102491832D01*
X113529744Y-101182440D02*
X113525876Y-101198087D01*
X119671017Y-113702888D02*
X119649758Y-113700119D01*
X113573198Y-104497376D02*
X113585938Y-104488374D01*
X116863291Y-117551913D02*
X116869107Y-117482859D01*
X116869107Y-117482859D02*
X116875094Y-117422144D01*
X108302501Y-97851639D02*
X108267640Y-97845585D01*
X106739010Y-116406272D02*
X106749797Y-116397858D01*
X111867958Y-122399090D02*
X111867958Y-121436001D01*
X120440458Y-72011832D02*
X120439011Y-71544098D01*
X119612302Y-112986842D02*
X119630211Y-112982770D01*
X110858994Y-121477685D02*
X110842098Y-121484053D01*
X117910711Y-115393247D02*
X117915600Y-115404428D01*
X122641792Y-90776085D02*
X122610041Y-93125584D01*
X112714625Y-105137665D02*
X113074458Y-105137665D01*
X121410935Y-122413716D02*
X121397320Y-122420355D01*
X109383495Y-114605887D02*
X109393884Y-114596716D01*
X110068791Y-126939337D02*
X110068584Y-126866564D01*
X106670273Y-116950069D02*
X106673360Y-116931634D01*
X118358451Y-118913202D02*
X118378618Y-118919915D01*
X118004568Y-115481279D02*
X118018239Y-115485894D01*
X114384517Y-100897907D02*
X114389903Y-100881231D01*
X106670819Y-111324923D02*
X106667078Y-111304765D01*
X109139276Y-107035721D02*
X109090517Y-107039736D01*
X117016190Y-118098761D02*
X117004843Y-118108867D01*
X115441127Y-102664319D02*
X115458850Y-102660672D01*
X122140220Y-121460000D02*
X122125025Y-121466513D01*
X117959260Y-115457624D02*
X117969250Y-115464355D01*
X118461997Y-119609229D02*
X118450927Y-119613971D01*
X117804671Y-125831135D02*
X117801901Y-125852393D01*
X121583730Y-122373469D02*
X121536681Y-122380211D01*
X118695500Y-109399524D02*
X118682302Y-109393492D01*
X109634916Y-126515780D02*
X109579147Y-126514757D01*
X107528792Y-112122667D02*
X106682123Y-112122667D01*
X112693458Y-118980667D02*
X111867958Y-119012417D01*
X112608791Y-123976004D02*
X113561292Y-123976004D01*
X116819217Y-112882438D02*
X116806110Y-112890584D01*
X106647686Y-123209072D02*
X106640266Y-123197005D01*
X116838321Y-123316856D02*
X116833913Y-123294379D01*
X106622386Y-121388693D02*
X106631853Y-121379115D01*
X117794625Y-126515997D02*
X114407958Y-126515997D01*
X114314915Y-104364513D02*
X114328846Y-104356451D01*
X115796775Y-118892860D02*
X115839189Y-118888558D01*
X109960192Y-64985377D02*
X109960192Y-69631458D01*
X120101792Y-97856334D02*
X119593791Y-97824583D01*
X115235820Y-103424541D02*
X115241440Y-103405726D01*
X117699380Y-117992653D02*
X117656050Y-118002204D01*
X116950958Y-118286777D02*
X116948847Y-118343458D01*
X120287317Y-113650428D02*
X120277740Y-113659895D01*
X116927287Y-118735431D02*
X116920724Y-118758422D01*
X119137054Y-108635790D02*
X119171435Y-108638823D01*
X110963072Y-103678746D02*
X110938645Y-103686728D01*
X109866178Y-126519695D02*
X109817602Y-126517258D01*
X109358976Y-114641597D02*
X109366109Y-114628240D01*
X109908056Y-126524101D02*
X109866178Y-126519695D01*
X109472881Y-125465968D02*
X109480758Y-125477721D01*
X114469843Y-103592680D02*
X114481419Y-103584732D01*
X113552038Y-101131789D02*
X113545348Y-101142762D01*
X115984154Y-118741242D02*
X115989670Y-118695082D01*
X122027958Y-107042667D02*
X122874625Y-107042667D01*
X121994782Y-122028748D02*
X121988025Y-122085581D01*
X119487958Y-115509335D02*
X120334625Y-115509335D01*
X107823934Y-102635128D02*
X107832653Y-102619667D01*
X122046764Y-121564618D02*
X122041144Y-121583881D01*
X107973292Y-124843832D02*
X107826572Y-124832525D01*
X114429724Y-103650937D02*
X114435632Y-103636565D01*
X117822572Y-123882843D02*
X117829062Y-123896263D01*
X113561605Y-104507245D02*
X113573198Y-104497376D01*
X107652133Y-106812490D02*
X107656949Y-106828830D01*
X118175206Y-118896108D02*
X118222878Y-118894552D01*
X116275007Y-123128176D02*
X116220778Y-123125985D01*
X109587870Y-125549952D02*
X109604613Y-125555067D01*
X106682123Y-118895999D02*
X107528792Y-118895999D01*
X105941290Y-108630168D02*
X107528792Y-108630168D01*
X116552275Y-67795255D02*
X116573441Y-70144752D01*
X121342654Y-122463393D02*
X121334091Y-122474281D01*
X110866644Y-103736306D02*
X110866091Y-103741236D01*
X117861117Y-119458960D02*
X117859220Y-119448688D01*
X110018355Y-115501232D02*
X109998804Y-115503717D01*
X106775284Y-107755552D02*
X106761864Y-107749062D01*
X106677868Y-107249210D02*
X106673360Y-107207866D01*
X118843638Y-109436664D02*
X118820712Y-109433012D01*
X120440458Y-64921000D02*
X120440458Y-61659542D01*
X119489219Y-113220524D02*
X119491656Y-113171948D01*
X119429212Y-108723744D02*
X119436431Y-108738784D01*
X114407958Y-114556834D02*
X116133041Y-114578001D01*
X108357193Y-124916386D02*
X108343021Y-124907787D01*
X118490810Y-119017544D02*
X118497316Y-119035959D01*
X109090517Y-107039736D02*
X109033836Y-107041798D01*
X118598253Y-109268816D02*
X118598281Y-109256650D01*
X115928967Y-104439945D02*
X115918468Y-104450258D01*
X116126711Y-103634653D02*
X116113336Y-103644103D01*
X117889710Y-123950889D02*
X117904014Y-123956346D01*
X109347491Y-114673107D02*
X109352793Y-114656524D01*
X109504586Y-114561819D02*
X109526640Y-114559974D01*
X115301092Y-102851501D02*
X115305327Y-102828786D01*
X116080832Y-103679534D02*
X116072240Y-103693995D01*
X117442370Y-114613086D02*
X117508399Y-114620415D01*
X115779691Y-84167671D02*
X116181858Y-84199422D01*
X117794625Y-115509335D02*
X114407958Y-115509335D01*
X106572735Y-123148991D02*
X106557067Y-123144384D01*
X110167514Y-115326274D02*
X110164814Y-115347533D01*
X109977688Y-115505638D02*
X109930526Y-115508074D01*
X116904071Y-118799250D02*
X116893822Y-118817183D01*
X121816291Y-83875751D02*
X121837458Y-86119420D01*
X109314773Y-106898225D02*
X109309152Y-106917040D01*
X110963091Y-123886176D02*
X110948329Y-123911784D01*
X119593791Y-88415997D02*
X119593791Y-83865167D01*
X106373423Y-107042989D02*
X106311708Y-107042667D01*
X113864529Y-112970883D02*
X113925915Y-112969651D01*
X112238374Y-123023498D02*
X112360641Y-123024429D01*
X116670448Y-117932986D02*
X116690258Y-117929421D01*
X109512038Y-115550862D02*
X109500843Y-115559913D01*
X110260804Y-108689303D02*
X110279556Y-108683852D01*
X112559424Y-101804483D02*
X112559424Y-102651149D01*
X115270482Y-104940894D02*
X115272629Y-104966598D01*
X105941290Y-103550168D02*
X107729874Y-103550168D01*
X115361946Y-101373266D02*
X115360768Y-101426447D01*
X109943734Y-126531050D02*
X109926639Y-126527222D01*
X114005990Y-65453691D02*
X113874691Y-65445753D01*
X109814791Y-115509335D02*
X109751325Y-115509563D01*
X119630211Y-113696729D02*
X119612302Y-113692657D01*
X108460126Y-90776085D02*
X108481290Y-88532416D01*
X121604658Y-107042442D02*
X121548835Y-107041364D01*
X110067633Y-126802643D02*
X110065442Y-126747000D01*
X113599896Y-104480183D02*
X113615146Y-104472744D01*
X117178580Y-124027590D02*
X117121898Y-124025006D01*
X115983607Y-122535265D02*
X115979891Y-122518246D01*
X118741895Y-109415671D02*
X118725268Y-109410604D01*
X118733330Y-108661567D02*
X118745517Y-108656805D01*
X109374260Y-114616366D02*
X109383495Y-114605887D01*
X110164041Y-126463080D02*
X110229505Y-126473477D01*
X115397914Y-105180164D02*
X115524500Y-105196536D01*
X109339853Y-116345539D02*
X109329281Y-116357321D01*
X110141074Y-115429595D02*
X110133857Y-115441662D01*
X111000125Y-118198821D02*
X111009014Y-118276068D01*
X107729874Y-103550168D02*
X107761626Y-103052748D01*
X119488178Y-113403209D02*
X119487958Y-113339751D01*
X116831200Y-112873431D02*
X116819217Y-112882438D01*
X110975650Y-121279564D02*
X110971452Y-121304928D01*
X115229469Y-103441647D02*
X115235820Y-103424541D01*
X108419921Y-124988381D02*
X108411714Y-124973643D01*
X117896696Y-115341198D02*
X117902665Y-115368727D01*
X115279760Y-105015959D02*
X115284652Y-105039244D01*
X113963458Y-101031332D02*
X114110177Y-101020027D01*
X119526827Y-113639845D02*
X119519453Y-113628084D01*
X121996208Y-104396834D02*
X122010761Y-105763408D01*
X112531255Y-123055429D02*
X112542865Y-123063380D01*
X121970760Y-122178040D02*
X121965334Y-122197143D01*
X122060279Y-121531259D02*
X122053115Y-121547105D01*
X112719526Y-103778988D02*
X112716821Y-103783788D01*
X122156896Y-121454486D02*
X122140220Y-121460000D01*
X115726774Y-60725587D02*
X115726774Y-65371668D01*
X106595495Y-107073725D02*
X106582389Y-107067781D01*
X118648210Y-108748054D02*
X118652702Y-108737324D01*
X122641792Y-100237584D02*
X122662958Y-102587083D01*
X117971150Y-117263647D02*
X117961313Y-117274105D01*
X110779776Y-117975539D02*
X110824166Y-117981642D01*
X110051283Y-114432489D02*
X110055355Y-114414581D01*
X118101583Y-123975784D02*
X118165041Y-123976004D01*
X110039595Y-125641540D02*
X110049984Y-125649510D01*
X107797140Y-102712901D02*
X107802770Y-102690875D01*
X112608791Y-107783497D02*
X113455458Y-107783497D01*
X121837458Y-76700250D02*
X121869208Y-79049750D01*
X113492579Y-101699796D02*
X113486809Y-101714050D01*
X118146976Y-117194481D02*
X118104276Y-117202429D01*
X117859220Y-119448688D02*
X117857982Y-119438060D01*
X110036403Y-115498112D02*
X110018355Y-115501232D01*
X116759386Y-112910519D02*
X116741124Y-112915882D01*
X109730397Y-125578531D02*
X109783042Y-125584668D01*
X112577772Y-117181594D02*
X112583956Y-117196520D01*
X108228284Y-124870952D02*
X108176768Y-124862808D01*
X115320502Y-105134276D02*
X115324993Y-105141264D01*
X117881938Y-119130154D02*
X117885906Y-119089724D01*
X112570639Y-123094904D02*
X112577772Y-123108260D01*
X109572215Y-125544373D02*
X109587870Y-125549952D01*
X109418762Y-125266899D02*
X109425503Y-125313947D01*
X116966443Y-118178274D02*
X116961846Y-118196514D01*
X117885906Y-119089724D02*
X117889875Y-119054751D01*
X115779691Y-74854337D02*
X116150108Y-74864920D01*
X115395784Y-102680164D02*
X115409658Y-102673993D01*
X113510098Y-61375000D02*
X113504274Y-60725587D01*
X110171346Y-115278335D02*
X110167514Y-115326274D01*
X110917380Y-103695050D02*
X110908001Y-103699334D01*
X114389903Y-100881231D02*
X114394393Y-100862992D01*
X106682123Y-120589331D02*
X107528792Y-120589331D01*
X108375458Y-102466088D02*
X108576541Y-102438914D01*
X109230891Y-107012864D02*
X109215696Y-107019226D01*
X121346863Y-121483309D02*
X121357446Y-121474870D01*
X108550868Y-125513705D02*
X108542974Y-125498917D01*
X115157559Y-103520365D02*
X115171357Y-103512945D01*
X116690258Y-117929421D02*
X116708487Y-117925135D01*
X113888576Y-104423907D02*
X113963458Y-104418001D01*
X107032685Y-107783291D02*
X106968764Y-107782340D01*
X119535266Y-113029073D02*
X119544844Y-113019605D01*
X110874731Y-103721908D02*
X110870992Y-103726640D01*
X119450736Y-109420719D02*
X119442176Y-109430199D01*
X113585938Y-104488374D02*
X113599896Y-104480183D01*
X106681917Y-123479891D02*
X106680966Y-123415970D01*
X106657288Y-111269854D02*
X106651105Y-111254928D01*
X115300016Y-104696377D02*
X115295162Y-104710358D01*
X109530571Y-126512370D02*
X109488692Y-126508061D01*
X112337312Y-122361517D02*
X112270125Y-122367331D01*
X114684468Y-103550974D02*
X114820708Y-103550168D01*
X114350941Y-70144752D02*
X114350941Y-67816419D01*
X114509691Y-98243501D02*
X114509691Y-93692671D01*
X113311408Y-105120935D02*
X113327375Y-105116523D01*
X106595495Y-117065774D02*
X106607408Y-117058977D01*
X106668688Y-121293747D02*
X106672078Y-121274199D01*
X110164814Y-115347533D02*
X110161512Y-115367081D01*
X118018239Y-115485894D02*
X118048640Y-115493703D01*
X110174625Y-113708865D02*
X110174625Y-114662665D01*
X118651875Y-115509335D02*
X118620125Y-116334830D01*
X116955243Y-123978337D02*
X116943989Y-123968062D01*
X118632010Y-109358020D02*
X118624887Y-109349796D01*
X112589257Y-123139770D02*
X112593745Y-123158097D01*
X118049925Y-117217394D02*
X118034192Y-117223410D01*
X115995458Y-100163499D02*
X115995458Y-101116000D01*
X115555195Y-104533943D02*
X115515588Y-104540834D01*
X113587477Y-101097820D02*
X113577222Y-101104925D01*
X107137209Y-111148999D02*
X107528792Y-111180754D01*
X119535266Y-113650428D02*
X119526827Y-113639845D01*
X110704515Y-124053623D02*
X110617670Y-124066121D01*
X116046710Y-103767421D02*
X116042090Y-103790109D01*
X112811606Y-103731094D02*
X112787179Y-103739076D01*
X107574574Y-124751881D02*
X107566014Y-124739397D01*
X107529660Y-124528545D02*
X107528792Y-124388751D01*
X121300827Y-106893535D02*
X121291590Y-106850677D01*
X107566014Y-124739397D02*
X107558594Y-124725599D01*
X117885312Y-117542871D02*
X117879292Y-117604831D01*
X117873478Y-117672024D02*
X117867509Y-117731109D01*
X122610041Y-93125584D02*
X122271375Y-93157330D01*
X117854363Y-125716644D02*
X117844896Y-125726221D01*
X116174052Y-123122057D02*
X116153329Y-123119288D01*
X112756535Y-103751682D02*
X112748028Y-103756046D01*
X113577222Y-101104925D02*
X113567928Y-101112921D01*
X118269991Y-118896779D02*
X118315523Y-118902944D01*
X108558020Y-98773113D02*
X108549669Y-98487219D01*
X119593791Y-64921000D02*
X120440458Y-64921000D01*
X107522177Y-124150132D02*
X107519374Y-124129260D01*
X117619682Y-114639422D02*
X117665753Y-114651425D01*
X110152858Y-115401330D02*
X110147388Y-115416174D01*
X118652702Y-108737324D02*
X118657768Y-108727214D01*
X119461587Y-108828090D02*
X119466791Y-108856386D01*
X109330399Y-114812285D02*
X109333745Y-114757753D01*
X109260076Y-124891272D02*
X109276320Y-124897866D01*
X119614958Y-67281085D02*
X119593791Y-64921000D01*
X122662958Y-64921000D02*
X121816291Y-64921000D01*
X113513412Y-101320918D02*
X113512234Y-101374099D01*
X113510993Y-101556335D02*
X113508784Y-101605802D01*
X118438823Y-119617900D02*
X118425642Y-119621054D01*
X108049923Y-124849744D02*
X107973292Y-124843832D01*
X119491656Y-113171948D02*
X119496061Y-113130070D01*
X122610041Y-79060333D02*
X122610041Y-83812250D01*
X117805209Y-125563501D02*
X117773458Y-124801498D01*
X121884732Y-122311520D02*
X121871216Y-122319112D01*
X119300435Y-109468401D02*
X119249539Y-109468015D01*
X111053160Y-103657004D02*
X111020547Y-103663869D01*
X112588506Y-122300593D02*
X112575904Y-122309315D01*
X106913122Y-116359346D02*
X106968764Y-116357155D01*
X113546166Y-113260595D02*
X113552734Y-113209381D01*
X115310014Y-102807843D02*
X115315216Y-102788602D01*
X117950143Y-119561804D02*
X117938799Y-119555816D01*
X106525854Y-111177607D02*
X106505496Y-111175151D01*
X118605214Y-109312810D02*
X118602355Y-109302493D01*
X107694363Y-106889525D02*
X107704946Y-106897965D01*
X118447661Y-118957771D02*
X118461375Y-118970083D01*
X117073139Y-124020315D02*
X117051522Y-124016984D01*
X112869081Y-103716217D02*
X112838979Y-103723470D01*
X112765914Y-103747398D02*
X112756535Y-103751682D01*
X112663897Y-122093445D02*
X112658566Y-122144093D01*
X120419291Y-70366124D02*
X120408419Y-70079961D01*
X109355904Y-126425058D02*
X109350282Y-126410582D01*
X113561292Y-102703497D02*
X113561292Y-103645419D01*
X117988981Y-119577972D02*
X117975224Y-119572879D01*
X110891887Y-103708139D02*
X110885206Y-103712656D01*
X115503333Y-101126252D02*
X115487574Y-101129656D01*
X107962543Y-102531851D02*
X107984004Y-102526021D01*
X107704946Y-106897965D02*
X107716708Y-106905338D01*
X106677868Y-116890291D02*
X106680532Y-116842607D01*
X106693347Y-116498154D02*
X106697175Y-116481060D01*
X121869208Y-88363084D02*
X122271375Y-88394835D01*
X113540125Y-113318584D02*
X113546166Y-113260595D01*
X115393882Y-101195110D02*
X115387968Y-101207176D01*
X120428180Y-70711818D02*
X120419291Y-70366124D01*
X110067469Y-125668013D02*
X110074654Y-125678674D01*
X116101291Y-122282663D02*
X121287124Y-122282663D01*
X110116473Y-115462026D02*
X110106187Y-115470466D01*
X117928240Y-119549521D02*
X117918456Y-119542916D01*
X116675061Y-123139222D02*
X116653444Y-123136279D01*
X115839189Y-118888558D02*
X115857920Y-118885404D01*
X113412235Y-101779648D02*
X113395652Y-101784950D01*
X113504482Y-101648215D02*
X113501328Y-101666946D01*
X121908635Y-122293754D02*
X121897186Y-122303090D01*
X116776260Y-112904559D02*
X116759386Y-112910519D01*
X110094757Y-115477840D02*
X110082124Y-115484220D01*
X118039075Y-118921920D02*
X118082282Y-118909947D01*
X117812133Y-125793679D02*
X117808061Y-125811587D01*
X115986694Y-122553700D02*
X115983607Y-122535265D01*
X109465645Y-125453307D02*
X109472881Y-125465968D01*
X106664616Y-123253677D02*
X106659799Y-123237337D01*
X119964208Y-69641166D02*
X119646708Y-69630582D01*
X109981359Y-76764627D02*
X110013109Y-79114127D01*
X105941290Y-111170166D02*
X105941290Y-108630168D01*
X110141758Y-126440035D02*
X110147036Y-126447103D01*
X119464518Y-109397896D02*
X119458156Y-109409971D01*
X115254625Y-122388498D02*
X115254625Y-118895999D01*
X115447318Y-104558988D02*
X115432407Y-104564539D01*
X122874625Y-107042667D02*
X122874625Y-121436001D01*
X119774597Y-112970490D02*
X119911291Y-112969333D01*
X107528792Y-120589331D02*
X107528792Y-121541836D01*
X115351198Y-102715407D02*
X115360836Y-102704869D01*
X106375166Y-123129553D02*
X106311708Y-123129333D01*
X115264484Y-103252386D02*
X115275791Y-103105665D01*
X110260201Y-117944949D02*
X110411427Y-117949124D01*
X116653444Y-123136279D02*
X116604685Y-123132263D01*
X118663433Y-108717708D02*
X118669721Y-108708791D01*
X107528792Y-107783497D02*
X107105459Y-107783497D01*
X117801901Y-125852393D02*
X117797974Y-125900331D01*
X106604588Y-111202097D02*
X106591690Y-111195281D01*
X108511196Y-125406151D02*
X108500845Y-125359210D01*
X117876708Y-123944509D02*
X117889710Y-123950889D01*
X107729709Y-106911718D02*
X107744013Y-106917175D01*
X120440458Y-83865167D02*
X120440458Y-79113251D01*
X116992718Y-117173179D02*
X117009123Y-117165996D01*
X109244689Y-107005444D02*
X109230891Y-107012864D01*
X117898965Y-117438796D02*
X117891736Y-117487671D01*
X115125688Y-103532113D02*
X115142364Y-103526727D01*
X121315071Y-121529160D02*
X121321562Y-121515740D01*
X116287244Y-105215885D02*
X116660886Y-105212413D01*
X118745517Y-108656805D02*
X118758556Y-108652492D01*
X112901694Y-103709352D02*
X112869081Y-103716217D01*
X114370735Y-104313565D02*
X114378155Y-104299767D01*
X108481290Y-107042667D02*
X108481290Y-115509335D01*
X106640266Y-121368329D02*
X106647686Y-121356261D01*
X117116934Y-118057547D02*
X117095838Y-118062520D01*
X108531975Y-98103945D02*
X108523624Y-98025665D01*
X113822299Y-101043363D02*
X113888576Y-101037239D01*
X116922019Y-117236349D02*
X116930918Y-117223062D01*
X116924841Y-123943526D02*
X116916779Y-123929111D01*
X116057886Y-103727418D02*
X116051945Y-103746553D01*
X108370167Y-124925853D02*
X108357193Y-124916386D01*
X121657542Y-121436001D02*
X122027958Y-121436001D01*
X120254886Y-113003772D02*
X120266953Y-113011192D01*
X113763367Y-112977766D02*
X113810521Y-112973449D01*
X119499181Y-113111487D02*
X119503009Y-113094392D01*
X114394393Y-100862992D02*
X114398069Y-100843105D01*
X115908828Y-122419556D02*
X115895722Y-122413613D01*
X110109144Y-108906447D02*
X110117575Y-108861181D01*
X114629348Y-103552889D02*
X114684468Y-103550974D01*
X106657009Y-107142402D02*
X106651066Y-107129297D01*
X116741124Y-112915882D02*
X116721409Y-112920715D01*
X106479511Y-123133031D02*
X106430935Y-123130594D01*
X109392254Y-125064889D02*
X109399975Y-125108482D01*
X122641792Y-71990668D02*
X122662958Y-74340165D01*
X120334405Y-113403209D02*
X120333364Y-113458979D01*
X115017185Y-103547238D02*
X115065944Y-103543222D01*
X109382775Y-116244575D02*
X109377627Y-116265443D01*
X121234208Y-123076416D02*
X119519709Y-123108166D01*
X114407958Y-126378421D02*
X114407958Y-125563501D01*
X108475338Y-97937858D02*
X108457840Y-97920518D01*
X115997858Y-104242084D02*
X115990001Y-104291662D01*
X117808061Y-123833749D02*
X117812133Y-123851658D01*
X111021292Y-119001834D02*
X110174625Y-119001834D01*
X110824166Y-117981642D02*
X110862541Y-117988148D01*
X107453448Y-124010567D02*
X107440180Y-124003677D01*
X110962546Y-118039020D02*
X110969765Y-118056442D01*
X122874625Y-121436001D02*
X122461875Y-121436001D01*
X121300560Y-121578253D02*
X121304633Y-121560345D01*
X110046467Y-126624007D02*
X110040844Y-126609162D01*
X107558594Y-124725599D02*
X107552232Y-124710404D01*
X112733740Y-103765004D02*
X112728012Y-103769594D01*
X112570639Y-117168237D02*
X112577772Y-117181594D01*
X112575904Y-122309315D02*
X112562014Y-122317103D01*
X118216134Y-115508813D02*
X118270875Y-115509335D01*
X122087490Y-121492887D02*
X122077383Y-121504233D01*
X116977773Y-117181194D02*
X116992718Y-117173179D01*
X108392847Y-124947640D02*
X108382024Y-124936250D01*
X110781985Y-121498848D02*
X110758548Y-121502665D01*
X117873011Y-114901914D02*
X117877388Y-114943589D01*
X120326522Y-113130070D02*
X120330927Y-113171948D01*
X118530505Y-119474723D02*
X118525701Y-119508510D01*
X115656792Y-102650584D02*
X115995458Y-102650584D01*
X111019845Y-118452390D02*
X111021292Y-118546753D01*
X119043458Y-109455662D02*
X118979051Y-109451310D01*
X115995458Y-122758920D02*
X115995135Y-122697205D01*
X116964204Y-117190117D02*
X116977773Y-117181194D01*
X118070311Y-119599157D02*
X118052340Y-119595478D01*
X119509125Y-76700250D02*
X119487958Y-74340165D01*
X109405493Y-114588766D02*
X109418391Y-114581949D01*
X116113336Y-103644103D02*
X116101291Y-103654675D01*
X109345466Y-126394649D02*
X109341394Y-126377189D01*
X113540125Y-118504419D02*
X113508374Y-118948916D01*
X110948329Y-123911784D02*
X110931437Y-123935262D01*
X115364364Y-101326472D02*
X115361946Y-101373266D01*
X107245192Y-123976810D02*
X107105459Y-123976004D01*
X116861064Y-112840590D02*
X116852058Y-112852573D01*
X116207401Y-118919721D02*
X116186124Y-118940152D01*
X116020015Y-123034250D02*
X116014686Y-123019946D01*
X108471632Y-125184274D02*
X108462067Y-125129746D01*
X115270272Y-104861923D02*
X115269257Y-104888370D01*
X110468193Y-102683211D02*
X110118942Y-102714961D01*
X121287124Y-121859332D02*
X121287331Y-121786559D01*
X118497316Y-119035959D02*
X118503419Y-119056591D01*
X118979051Y-109451310D02*
X118920613Y-109446136D01*
X120303130Y-113051418D02*
X120309510Y-113064420D01*
X110919510Y-118002247D02*
X110937235Y-118009777D01*
X115447274Y-101143905D02*
X115436011Y-101150168D01*
X115985519Y-104313905D02*
X115980593Y-104334543D01*
X114884208Y-101856831D02*
X114407958Y-101856831D01*
X118522508Y-119523523D02*
X118518728Y-119537335D01*
X109458948Y-115625090D02*
X109452910Y-115642652D01*
X109356815Y-124965894D02*
X109364407Y-124979410D01*
X116548004Y-123130201D02*
X116408209Y-123129333D01*
X114169538Y-104400490D02*
X114220434Y-104393030D01*
X118608868Y-109322689D02*
X118605214Y-109312810D01*
X120212916Y-69657042D02*
X120095507Y-69649104D01*
X107528792Y-118895999D02*
X107528792Y-117202667D01*
X115327423Y-102754936D02*
X115334555Y-102740369D01*
X116806693Y-117856988D02*
X116814178Y-117843249D01*
X112511932Y-122335677D02*
X112492209Y-122340543D01*
X106672078Y-121274199D02*
X106674847Y-121252940D01*
X118630709Y-108841833D02*
X118633471Y-108811551D01*
X119380249Y-108681694D02*
X119394816Y-108688913D01*
X118379188Y-119626251D02*
X118342015Y-119626551D01*
X106968764Y-116357155D02*
X107105459Y-116355997D01*
X109377627Y-116265443D02*
X109371793Y-116284578D01*
X110397144Y-108663467D02*
X110456564Y-108657254D01*
X106713619Y-116438085D02*
X106720993Y-116426323D01*
X117773458Y-124801498D02*
X117741707Y-124039505D01*
X118411339Y-119623471D02*
X118395869Y-119625190D01*
X113440518Y-101766332D02*
X113427161Y-101773465D01*
X122461875Y-121436001D02*
X122322080Y-121436890D01*
X116958082Y-118216400D02*
X116955069Y-118238018D01*
X112530096Y-122330203D02*
X112511932Y-122335677D01*
X108643555Y-125596264D02*
X108628483Y-125588895D01*
X110383526Y-79124710D02*
X110753942Y-79124710D01*
X110415276Y-88459212D02*
X110806859Y-88490962D01*
X115105008Y-101854390D02*
X115041408Y-101856108D01*
X113654799Y-101073904D02*
X113639040Y-101077308D01*
X108542974Y-125498917D02*
X108535680Y-125482949D01*
X114123399Y-65461629D02*
X114005990Y-65453691D01*
X110034354Y-114477094D02*
X110040844Y-114463674D01*
X109960192Y-60100000D02*
X110806859Y-60100000D01*
X108481290Y-88532416D02*
X108142625Y-88500670D01*
X109473162Y-115594725D02*
X109465676Y-115609140D01*
X116883185Y-112797633D02*
X116876562Y-112813186D01*
X118669721Y-108708791D02*
X118676659Y-108700448D01*
X118018974Y-119587291D02*
X118003561Y-119582775D01*
X109193848Y-116415364D02*
X109142665Y-116423014D01*
X114362176Y-104326049D02*
X114370735Y-104313565D01*
X108382024Y-124936250D02*
X108370167Y-124925853D01*
X113649803Y-104459888D02*
X113669354Y-104454355D01*
X116961846Y-118196514D02*
X116958082Y-118216400D01*
X108576541Y-100322247D02*
X108575135Y-99893230D01*
X117922402Y-118987716D02*
X117934756Y-118976197D01*
X117794625Y-117086249D02*
X117794625Y-115509335D01*
X113192874Y-101803760D02*
X113035674Y-101804483D01*
X116408209Y-123129333D02*
X116337298Y-123129127D01*
X110174625Y-123023498D02*
X111021292Y-123023498D01*
X121447859Y-121444104D02*
X121489738Y-121439699D01*
X106483441Y-111173305D02*
X106433974Y-111171096D01*
X122125025Y-121466513D02*
X122111227Y-121474110D01*
X120295756Y-113639845D02*
X120287317Y-113650428D01*
X112716821Y-103783788D02*
X112715178Y-103788654D01*
X113451357Y-74854337D02*
X113419608Y-72504837D01*
X120226621Y-113687841D02*
X120210281Y-113692657D01*
X115918468Y-104450258D02*
X115907019Y-104459595D01*
X115359406Y-104607693D02*
X115349784Y-104616689D01*
X109062589Y-125659910D02*
X109003559Y-125653977D01*
X121294401Y-121619059D02*
X121297170Y-121597800D01*
X109278533Y-106976021D02*
X109268426Y-106987104D01*
X121594083Y-121436221D02*
X121657542Y-121436001D01*
X118856061Y-108635191D02*
X118896511Y-108632318D01*
X106707239Y-107688416D02*
X106701782Y-107674112D01*
X114378155Y-100913102D02*
X114384517Y-100897907D01*
X109543986Y-125531648D02*
X109557601Y-125538286D01*
X110456564Y-108657254D02*
X110523875Y-108651335D01*
X106627885Y-107096906D02*
X106618186Y-107088231D01*
X116913012Y-118779679D02*
X116904071Y-118799250D01*
X106682123Y-116726419D02*
X106682343Y-116662961D01*
X110915458Y-109476834D02*
X110058207Y-109476834D01*
X119394915Y-109456648D02*
X119379438Y-109460692D01*
X110975850Y-123858378D02*
X110963091Y-123886176D01*
X121328983Y-121503673D02*
X121337396Y-121492887D01*
X118195319Y-117187650D02*
X118146976Y-117194481D01*
X110066025Y-97888960D02*
X110415276Y-97920711D01*
X120334625Y-113339751D02*
X120334405Y-113403209D01*
X117718505Y-117987023D02*
X117699380Y-117992653D01*
X109357719Y-116318001D02*
X109349303Y-116332462D01*
X108375458Y-78996832D02*
X107740457Y-78996832D01*
X122324292Y-102618834D02*
X121975041Y-102650584D01*
X106697175Y-116481060D02*
X106701782Y-116465391D01*
X117791979Y-117947470D02*
X117779966Y-117957141D01*
X114263517Y-100996983D02*
X114282332Y-100991363D01*
X106591690Y-111195281D02*
X106577435Y-111189511D01*
X117961313Y-117274105D02*
X117952282Y-117285493D01*
X113357166Y-101793179D02*
X113311006Y-101798695D01*
X106516926Y-117088068D02*
X106535360Y-117084981D01*
X107832653Y-102619667D02*
X107842323Y-102605605D01*
X119485028Y-109294203D02*
X119481013Y-109335119D01*
X106654177Y-123222492D02*
X106647686Y-123209072D01*
X114220434Y-104393030D02*
X114242912Y-104388621D01*
X115487574Y-101129656D02*
X115473009Y-101133699D01*
X122662958Y-64921000D02*
X122662958Y-62387042D01*
X113501328Y-101666946D02*
X113497390Y-101684117D01*
X106557067Y-123144384D02*
X106539972Y-123140556D01*
X116573441Y-70144752D02*
X115726774Y-70144752D01*
X119455918Y-108801919D02*
X119461587Y-108828090D01*
X106674847Y-123312391D02*
X106672078Y-123291132D01*
X116948847Y-118343458D02*
X116947958Y-118483252D01*
X116816969Y-123237853D02*
X116809804Y-123222376D01*
X114442522Y-103623629D02*
X114450470Y-103612053D01*
X112553253Y-123072550D02*
X112562489Y-123083029D01*
X118644266Y-108759421D02*
X118648210Y-108748054D01*
X121922124Y-97824583D02*
X122271375Y-97856334D01*
X107301726Y-123978725D02*
X107245192Y-123976810D01*
X110058745Y-114395034D02*
X110061515Y-114373775D01*
X117896526Y-119026127D02*
X117903159Y-119012701D01*
X115225858Y-101841785D02*
X115205700Y-101845527D01*
X111125052Y-103644498D02*
X111088067Y-103650541D01*
X110955017Y-118025970D02*
X110962546Y-118039020D01*
X115287387Y-102961530D02*
X115293720Y-102902539D01*
X117795783Y-125955973D02*
X117794625Y-126092666D01*
X118151014Y-119611197D02*
X118108880Y-119605704D01*
X108230051Y-97840957D02*
X108189671Y-97837709D01*
X114456774Y-84220584D02*
X113504274Y-84220584D01*
X115970343Y-122488235D02*
X115964400Y-122475129D01*
X106720993Y-116426323D02*
X106729433Y-116415739D01*
X120334405Y-113276292D02*
X120334625Y-113339751D01*
X109349126Y-106598164D02*
X109337818Y-106744885D01*
X112471252Y-117107427D02*
X112488424Y-117111366D01*
X105941290Y-119636835D02*
X105941290Y-117096832D01*
X116820857Y-117828130D02*
X116826808Y-117811566D01*
X109998804Y-115503717D02*
X109977688Y-115505638D01*
X115747941Y-81924007D02*
X115779691Y-84167671D01*
X115293720Y-102902539D02*
X115301092Y-102851501D01*
X110988880Y-121155745D02*
X110982823Y-121222321D01*
X112518357Y-117121947D02*
X112531255Y-117128763D01*
X105941290Y-121436001D02*
X106311708Y-121436001D01*
X110995859Y-123795974D02*
X110986730Y-123828331D01*
X119235978Y-108646626D02*
X119265708Y-108651333D01*
X109320351Y-125862481D02*
X109317441Y-125841012D01*
X116216644Y-103601182D02*
X116195285Y-103606330D01*
X109130875Y-124862599D02*
X109180453Y-124870456D01*
X109275041Y-125732836D02*
X109265046Y-125722467D01*
X114299437Y-100985012D02*
X114314915Y-100977848D01*
X106685821Y-107580888D02*
X106683385Y-107532312D01*
X109998469Y-126554869D02*
X109986708Y-126547495D01*
X110279556Y-108683852D02*
X110299807Y-108678949D01*
X108375458Y-106936831D02*
X108375458Y-104502664D01*
X106631853Y-123186218D02*
X106622386Y-123176641D01*
X109387801Y-125045220D02*
X109392254Y-125064889D01*
X115747941Y-72504837D02*
X115779691Y-74854337D01*
X118496843Y-119581344D02*
X118489458Y-119589729D01*
X114263517Y-104383648D02*
X114282332Y-104378028D01*
X117877388Y-114943589D02*
X117882537Y-115038126D01*
X117833958Y-114768697D02*
X117847772Y-114797304D01*
X115881369Y-122408468D02*
X115865711Y-122404066D01*
X106572735Y-121416344D02*
X106587039Y-121410886D01*
X119581118Y-112997281D02*
X119595962Y-112991658D01*
X106682123Y-117202667D02*
X106682123Y-118895999D01*
X116033440Y-123059013D02*
X116026243Y-123047251D01*
X106311708Y-123129333D02*
X105941290Y-123129333D01*
X112589257Y-117213104D02*
X112593745Y-117231431D01*
X111867958Y-111170166D02*
X111867958Y-112016832D01*
X115957602Y-122463215D02*
X115949894Y-122452437D01*
X109410041Y-126485215D02*
X109398279Y-126478018D01*
X109459006Y-125439692D02*
X109465645Y-125453307D01*
X122610041Y-83812250D02*
X122207874Y-83844000D01*
X107519374Y-124129260D02*
X107515873Y-124110127D01*
X113012431Y-103691236D02*
X112973586Y-103696846D01*
X109227705Y-125697282D02*
X109212587Y-125690603D01*
X110971452Y-121304928D02*
X110966741Y-121328249D01*
X116826808Y-117811566D02*
X116832107Y-117793489D01*
X108571249Y-99485668D02*
X108558020Y-98773113D01*
X116520524Y-88930171D02*
X116181858Y-88961917D01*
X117139946Y-118053137D02*
X117116934Y-118057547D01*
X119649758Y-113700119D02*
X119630211Y-113696729D01*
X107684895Y-106879948D02*
X107694363Y-106889525D01*
X109973706Y-114531719D02*
X109986708Y-114525340D01*
X110161512Y-115367081D02*
X110157546Y-115384989D01*
X116930918Y-117223062D02*
X116940860Y-117210977D01*
X106713619Y-107701417D02*
X106707239Y-107688416D01*
X106682123Y-106090166D02*
X107634624Y-106090166D01*
X115989670Y-118695082D02*
X115993016Y-118640550D01*
X119432396Y-109438472D02*
X119421313Y-109445598D01*
X117997238Y-125673033D02*
X117955359Y-125677439D01*
X110055355Y-126658256D02*
X110051283Y-126640347D01*
X119491656Y-113507554D02*
X119489219Y-113458979D01*
X117864946Y-125708204D02*
X117854363Y-125716644D01*
X107528792Y-116355997D02*
X107528792Y-112122667D01*
X109552474Y-115530282D02*
X109537786Y-115536124D01*
X108375458Y-104502664D02*
X108375458Y-102466088D01*
X113508374Y-118948916D02*
X112693458Y-118980667D01*
X117794625Y-126092666D02*
X117794625Y-126515997D01*
X115716571Y-105207947D02*
X115971646Y-105214397D01*
X120095507Y-69649104D02*
X119964208Y-69641166D01*
X121425548Y-122407630D02*
X121410935Y-122413716D01*
X109579147Y-126514757D02*
X109530571Y-126512370D01*
X111009014Y-118276068D02*
X111015669Y-118361376D01*
X119421683Y-108712145D02*
X119429212Y-108723744D01*
X109265046Y-125722467D02*
X109253869Y-125713137D01*
X115171357Y-103512945D02*
X115183841Y-103504385D01*
X121286539Y-122596244D02*
X121278836Y-122638052D01*
X115625558Y-101116439D02*
X115579235Y-101118026D01*
X110013109Y-79114127D02*
X110383526Y-79124710D01*
X119475680Y-108918294D02*
X119482336Y-108985536D01*
X107528792Y-124388751D02*
X107527965Y-124252512D01*
X121922124Y-93189085D02*
X121922124Y-97824583D01*
X118104276Y-117202429D02*
X118066816Y-117211928D01*
X111013995Y-123684441D02*
X111003363Y-123761246D01*
X119507616Y-113600778D02*
X119503009Y-113585110D01*
X113561292Y-123976004D02*
X113561292Y-124928500D01*
X108522632Y-125447248D02*
X108511196Y-125406151D01*
X113512234Y-101374099D02*
X113511924Y-101434070D01*
X118622771Y-108938903D02*
X118630709Y-108841833D01*
X113559549Y-101121859D02*
X113552038Y-101131789D01*
X115747308Y-118895069D02*
X115796775Y-118892860D01*
X119544844Y-113659895D02*
X119535266Y-113650428D01*
X121272095Y-122685100D02*
X121265959Y-122737744D01*
X119394816Y-108688913D02*
X119400881Y-108692641D01*
X107761626Y-57756083D02*
X107761626Y-57463374D01*
X115881049Y-104475617D02*
X115866414Y-104482442D01*
X106616198Y-111210047D02*
X106604588Y-111202097D01*
X115598678Y-104528324D02*
X115555195Y-104533943D01*
X107942680Y-102538208D02*
X107962543Y-102531851D01*
X110156572Y-108760792D02*
X110165783Y-108748512D01*
X114450470Y-103612053D02*
X114459552Y-103601762D01*
X112740421Y-103760487D02*
X112733740Y-103765004D01*
X119474393Y-109369523D02*
X119469903Y-109384433D01*
X109490677Y-115570189D02*
X109481473Y-115581767D01*
X109568463Y-115525355D02*
X109552474Y-115530282D01*
X111003363Y-123761246D02*
X110995859Y-123795974D01*
X118759725Y-109420436D02*
X118741895Y-109415671D01*
X109698374Y-114556834D02*
X109761833Y-114556615D01*
X117997238Y-123972306D02*
X118045813Y-123974743D01*
X110227522Y-108702121D02*
X110243482Y-108695370D01*
X118620125Y-116334830D02*
X118588375Y-117149750D01*
X116660886Y-105212413D02*
X117572375Y-105190582D01*
X106647686Y-121356261D02*
X106654177Y-121342841D01*
X106693347Y-107641349D02*
X106690227Y-107622766D01*
X109641539Y-125564087D02*
X109683348Y-125571790D01*
X117059062Y-118074491D02*
X117043216Y-118081656D01*
X115625042Y-122388498D02*
X115254625Y-122388498D01*
X107528792Y-121541836D02*
X106682123Y-121541836D01*
X108696198Y-125614551D02*
X108677347Y-125609036D01*
X117829062Y-125749075D02*
X117822572Y-125762495D01*
X112583956Y-117196520D02*
X112589257Y-117213104D01*
X109931986Y-125603713D02*
X109969408Y-125611953D01*
X118481218Y-119597146D02*
X118472080Y-119603633D01*
X115371131Y-101267377D02*
X115368395Y-101285663D01*
X107795359Y-106928729D02*
X107837238Y-106933134D01*
X115369719Y-104599241D02*
X115359406Y-104607693D01*
X120309510Y-113615082D02*
X120303130Y-113628084D01*
X119342122Y-108668309D02*
X119362612Y-108674815D01*
X121312340Y-122512309D02*
X121306253Y-122526922D01*
X117886878Y-119513318D02*
X117880824Y-119505104D01*
X119503009Y-113094392D02*
X119507616Y-113078724D01*
X117955359Y-125677439D02*
X117936776Y-125680559D01*
X119478069Y-109353105D02*
X119474393Y-109369523D01*
X113506556Y-104605523D02*
X113512126Y-104587949D01*
X109349303Y-116332462D02*
X109339853Y-116345539D01*
X110868287Y-103731440D02*
X110866644Y-103736306D01*
X119595962Y-113687841D02*
X119581118Y-113682219D01*
X115832607Y-93629170D02*
X116181858Y-93660921D01*
X106618186Y-117051268D02*
X106627885Y-117042593D01*
X109199020Y-107024611D02*
X109180780Y-107029101D01*
X116604685Y-123132263D02*
X116548004Y-123130201D01*
X113456743Y-104944223D02*
X113464120Y-104901669D01*
X108614539Y-125580795D02*
X108601657Y-125571908D01*
X115374410Y-101250435D02*
X115371131Y-101267377D01*
X113611929Y-113040282D02*
X113621835Y-113030098D01*
X116869082Y-118848331D02*
X116854432Y-118861642D01*
X107761626Y-57463374D02*
X107775000Y-57450000D01*
X110068791Y-127362668D02*
X110068791Y-126939337D01*
X112651065Y-122187424D02*
X112646331Y-122206548D01*
X113704329Y-112988443D02*
X113722537Y-112984254D01*
X110086133Y-125703136D02*
X110090516Y-125717065D01*
X121692509Y-122361285D02*
X121636375Y-122367331D01*
X114508727Y-103571934D02*
X114524611Y-103566933D01*
X113669354Y-101067687D02*
X113713261Y-101058122D01*
X117004843Y-118108867D02*
X116994830Y-118120121D01*
X118598959Y-109243997D02*
X118606896Y-109152883D01*
X109256539Y-116399832D02*
X109237403Y-116405666D01*
X115938573Y-104428585D02*
X115928967Y-104439945D01*
X106673360Y-116931634D02*
X106677868Y-116890291D01*
X115995458Y-100163499D02*
X116947958Y-100163499D01*
X116755205Y-118907513D02*
X116729608Y-118912889D01*
X110806859Y-64985377D02*
X109960192Y-64985377D01*
X114401012Y-104208154D02*
X114405028Y-104159395D01*
X109926639Y-114545611D02*
X109943734Y-114541783D01*
X108589771Y-125562178D02*
X108578814Y-125551549D01*
X117844896Y-125726221D02*
X117836483Y-125737007D01*
X107907456Y-102552891D02*
X107924341Y-102545189D01*
X116116811Y-123111825D02*
X116100878Y-123107009D01*
X108391332Y-97878823D02*
X108364285Y-97868211D01*
X106373423Y-117096509D02*
X106427897Y-117095240D01*
X110948766Y-121386926D02*
X110941234Y-121403046D01*
X113234611Y-105132712D02*
X113275707Y-105127909D01*
X110758548Y-121502665D02*
X110706107Y-121509212D01*
X114282332Y-100991363D02*
X114299437Y-100985012D01*
X118052340Y-119595478D02*
X118035231Y-119591524D01*
X116101291Y-120578747D02*
X116101291Y-122282663D01*
X115931520Y-122434063D02*
X115920742Y-122426354D01*
X117766694Y-117965859D02*
X117752081Y-117973698D01*
X107528792Y-121541836D02*
X107528792Y-120589331D01*
X117508399Y-114620415D02*
X117567367Y-114629139D01*
X110523875Y-108651335D02*
X110915458Y-108619585D01*
X117875487Y-119496557D02*
X117870858Y-119487673D01*
X115995458Y-101116000D02*
X115995458Y-100163499D01*
X114110177Y-104406694D02*
X114169538Y-104400490D01*
X116782594Y-123184896D02*
X116771340Y-123175115D01*
X117795778Y-114719901D02*
X117816763Y-114742950D01*
X118535026Y-119391027D02*
X118533494Y-119435665D01*
X121840772Y-122332065D02*
X121823733Y-122337565D01*
X115905024Y-118870884D02*
X115917922Y-118864068D01*
X120254886Y-113675728D02*
X120241466Y-113682219D01*
X107759682Y-106921782D02*
X107776776Y-106925609D01*
X117917455Y-117358285D02*
X117907404Y-117395812D01*
X115751979Y-104511185D02*
X115702341Y-104517789D01*
X107584354Y-124763134D02*
X107574574Y-124751881D01*
X116792700Y-123195978D02*
X116782594Y-123184896D01*
X113561292Y-103645419D02*
X113137958Y-103677165D01*
X112597487Y-123178256D02*
X112603003Y-123224416D01*
X108176768Y-124862808D02*
X108117531Y-124855904D01*
X119540874Y-79049750D02*
X119509125Y-76700250D01*
X110345073Y-108670518D02*
X110397144Y-108663467D01*
X107440180Y-124003677D02*
X107425439Y-123997770D01*
X115382782Y-101220385D02*
X115378278Y-101234788D01*
X109180453Y-124870456D02*
X109202696Y-124874938D01*
X113822299Y-104430031D02*
X113888576Y-104423907D01*
X118315523Y-118902944D02*
X118337377Y-118907552D01*
X107654418Y-124803860D02*
X107637312Y-124797509D01*
X121306253Y-122526922D02*
X121300674Y-122542577D01*
X110729805Y-117969870D02*
X110779776Y-117975539D01*
X106611802Y-121397132D02*
X106622386Y-121388693D01*
X110901340Y-121452914D02*
X110888537Y-121462212D01*
X110753942Y-93189961D02*
X110415276Y-93221707D01*
X110090790Y-126265448D02*
X110095249Y-126297722D01*
X116832107Y-117793489D02*
X116836833Y-117773836D01*
X116520524Y-65435169D02*
X116552275Y-67795255D01*
X110969765Y-118056442D02*
X110976644Y-118077941D01*
X110174625Y-119001834D02*
X110174625Y-120483496D01*
X119482336Y-108985536D02*
X119486511Y-109056001D01*
X110742979Y-124045020D02*
X110704515Y-124053623D01*
X110785693Y-72055045D02*
X110806859Y-74404542D01*
X106539972Y-123140556D02*
X106521390Y-123137436D01*
X115850605Y-104488570D02*
X115833566Y-104494070D01*
X116694948Y-123142898D02*
X116675061Y-123139222D01*
X106587039Y-121410886D02*
X106600041Y-121404506D01*
X106701782Y-107674112D02*
X106697175Y-107658444D01*
X119838518Y-113709957D02*
X119774597Y-113709006D01*
X119718954Y-113706816D02*
X119671017Y-113702888D01*
X106427897Y-117095240D02*
X106475582Y-117092577D01*
X113424721Y-105041031D02*
X113431416Y-105027850D01*
X109343003Y-114691434D02*
X109347491Y-114673107D01*
X109327958Y-115033087D02*
X109328681Y-114875886D01*
X112542865Y-117136713D02*
X112553253Y-117145884D01*
X107528792Y-117202667D02*
X107528792Y-116355997D01*
X110094055Y-125732210D02*
X110096793Y-125748637D01*
X115272434Y-104835599D02*
X115270272Y-104861923D01*
X116874598Y-123721007D02*
X116863291Y-123573831D01*
X108540822Y-98260979D02*
X108531975Y-98103945D01*
X109378229Y-126460438D02*
X109369816Y-126449916D01*
X109274029Y-116393225D02*
X109256539Y-116399832D01*
X121304633Y-121560345D02*
X121309449Y-121544005D01*
X118378618Y-118919915D02*
X118397751Y-118927708D01*
X121297170Y-121597800D02*
X121300560Y-121578253D01*
X110674687Y-117964666D02*
X110729805Y-117969870D01*
X117941746Y-115442409D02*
X117950104Y-115450315D01*
X109817602Y-114555573D02*
X109866178Y-114553137D01*
X112608791Y-108630168D02*
X112608791Y-107783497D01*
X115275791Y-104809585D02*
X115272434Y-104835599D01*
X109329281Y-116357321D02*
X109317500Y-116367893D01*
X107528792Y-119636835D02*
X105941290Y-119636835D01*
X109489321Y-125488609D02*
X109498614Y-125498678D01*
X113508784Y-101605802D02*
X113504482Y-101648215D01*
X116888261Y-123832464D02*
X116880802Y-123780891D01*
X107842323Y-102605605D02*
X107853016Y-102592845D01*
X114481419Y-103584732D02*
X114494355Y-103577841D01*
X114407958Y-114662665D02*
X110174625Y-114662665D01*
X121816291Y-69567081D02*
X122218458Y-69598834D01*
X113552734Y-113209381D02*
X113560356Y-113164523D01*
X114542082Y-103562764D02*
X114561215Y-103559350D01*
X116978470Y-118146403D02*
X116971956Y-118161599D01*
X112452521Y-117104274D02*
X112471252Y-117107427D01*
X109453015Y-126501271D02*
X109437347Y-126496772D01*
X106651066Y-107129297D02*
X106644269Y-107117383D01*
X114329774Y-66170711D02*
X114318902Y-65884548D01*
X106430935Y-121434741D02*
X106479511Y-121432304D01*
X116809804Y-123222376D02*
X116801742Y-123208444D01*
X110167157Y-102748022D02*
X110165314Y-102757297D01*
X120306513Y-69664980D02*
X120212916Y-69657042D01*
X113649803Y-101073220D02*
X113669354Y-101067687D01*
X112608791Y-118049328D02*
X113571875Y-118049328D01*
X117866062Y-119316684D02*
X117874000Y-119221433D01*
X112360641Y-123024429D02*
X112410108Y-123026638D01*
X109362395Y-126438146D02*
X109355904Y-126425058D01*
X117243850Y-124028685D02*
X117178580Y-124027590D01*
X110059260Y-125658313D02*
X110067469Y-125668013D01*
X108677347Y-125609036D02*
X108659821Y-125602959D01*
X108117531Y-124855904D02*
X108049923Y-124849744D01*
X110164041Y-102767003D02*
X110159742Y-103242754D01*
X121412182Y-121451052D02*
X121429276Y-121447225D01*
X118432400Y-118946617D02*
X118447661Y-118957771D01*
X119421313Y-109445598D02*
X119408847Y-109451637D01*
X122098743Y-121482873D02*
X122087490Y-121492887D01*
X119487090Y-109246296D02*
X119485028Y-109294203D01*
X116181858Y-88961917D02*
X115832607Y-88993672D01*
X118251173Y-119620949D02*
X118196792Y-119615668D01*
X117857444Y-119415719D02*
X117858125Y-119403998D01*
X113134436Y-105137233D02*
X113187671Y-105135701D01*
X113713261Y-104444790D02*
X113764052Y-104436837D01*
X112603003Y-123224416D02*
X112606349Y-123278947D01*
X121988025Y-122085581D02*
X121980168Y-122135159D01*
X121928739Y-122272080D02*
X121919134Y-122283440D01*
X115296853Y-105082094D02*
X115304069Y-105101287D01*
X112655121Y-122166632D02*
X112651065Y-122187424D01*
X121500112Y-107038829D02*
X121457946Y-107034233D01*
X120241466Y-113682219D02*
X120226621Y-113687841D01*
X116239867Y-103596633D02*
X116216644Y-103601182D01*
X109960192Y-83940128D02*
X109981359Y-86183797D01*
X118893560Y-109443217D02*
X118867911Y-109440063D01*
X112603003Y-117297749D02*
X112606349Y-117352281D01*
X107515873Y-124110127D02*
X107511596Y-124092656D01*
X118682302Y-109393492D02*
X118670190Y-109387118D01*
X110174625Y-120483496D02*
X111031875Y-120483496D01*
X116947958Y-118483252D02*
X116946984Y-118558350D01*
X119496061Y-113549433D02*
X119491656Y-113507554D01*
X117882537Y-115038126D02*
X117889875Y-115276498D01*
X118165041Y-123976004D02*
X118535458Y-123976004D01*
X110040844Y-126609162D02*
X110034354Y-126595741D01*
X115360768Y-101426447D02*
X115360458Y-101486418D01*
X109268426Y-106987104D02*
X109257173Y-106996884D01*
X116889145Y-112780759D02*
X116883185Y-112797633D01*
X118415721Y-118936602D02*
X118432400Y-118946617D01*
X116353183Y-103582681D02*
X116292261Y-103588983D01*
X113561292Y-124928500D02*
X111867958Y-124928500D01*
X120334625Y-116355997D02*
X119487958Y-116355997D01*
X112546767Y-122324039D02*
X112530096Y-122330203D01*
X106516926Y-107051431D02*
X106475582Y-107046922D01*
X109313876Y-125821202D02*
X109309590Y-125802973D01*
X110098775Y-125766409D02*
X110100046Y-125785589D01*
X110066025Y-93253462D02*
X110066025Y-97888960D01*
X113094834Y-103681380D02*
X113052919Y-103686076D01*
X109604614Y-115517934D02*
X109585821Y-115521265D01*
X111246300Y-103629032D02*
X111204385Y-103633728D01*
X122053115Y-121547105D02*
X122046764Y-121564618D01*
X115929532Y-118856118D02*
X115939921Y-118846947D01*
X120341281Y-69668948D02*
X120306513Y-69664980D01*
X106681400Y-111489215D02*
X106679682Y-111425614D01*
X118489458Y-119589729D02*
X118481218Y-119597146D01*
X116086402Y-123101387D02*
X116073314Y-123094896D01*
X110174625Y-114662665D02*
X110174625Y-115085995D01*
X109177947Y-125679353D02*
X109158294Y-125674627D01*
X113687506Y-112993331D02*
X113704329Y-112988443D01*
X121405807Y-107022149D02*
X121391118Y-107016435D01*
X110157546Y-115384989D02*
X110152858Y-115401330D01*
X107528792Y-109582664D02*
X106671540Y-109582664D01*
X110015303Y-125627845D02*
X110028050Y-125634340D01*
X106521390Y-121427898D02*
X106539972Y-121424778D01*
X107506468Y-124076772D02*
X107500409Y-124062400D01*
X109447341Y-125409423D02*
X109452920Y-125425079D01*
X106552378Y-107058234D02*
X106535360Y-107054518D01*
X121326495Y-106959159D02*
X121319009Y-106945076D01*
X117741707Y-124039505D02*
X117318375Y-124028912D01*
X109335234Y-126337408D02*
X109331306Y-126290682D01*
X107621835Y-124790345D02*
X107607903Y-124782283D01*
X109033836Y-107041798D02*
X108894041Y-107042667D01*
X111020547Y-103663869D02*
X110990445Y-103671122D01*
X113400365Y-105074288D02*
X113409252Y-105064206D01*
X106729433Y-116415739D02*
X106739010Y-116406272D01*
X107740457Y-78996832D02*
X107740457Y-74244916D01*
X110159742Y-103242754D02*
X110161396Y-104017156D01*
X118588375Y-117149750D02*
X118249708Y-117181500D01*
X107740457Y-93083255D02*
X108089708Y-93051500D01*
X121742146Y-122354680D02*
X121692509Y-122361285D01*
X118461375Y-118970083D02*
X118469183Y-118977615D01*
X110866723Y-123993518D02*
X110840052Y-124009077D01*
X115979891Y-122518246D02*
X115975488Y-122502588D01*
X113368422Y-105099051D02*
X113380006Y-105091666D01*
X110095249Y-126297722D02*
X110100701Y-126327887D01*
X116051021Y-123079063D02*
X116041676Y-123069596D01*
X118535458Y-119340497D02*
X118535026Y-119391027D01*
X119544844Y-113019605D02*
X119555630Y-113011192D01*
X117142859Y-117136277D02*
X117202889Y-117129699D01*
X118532249Y-119246156D02*
X118534011Y-119277267D01*
X116234775Y-98423421D02*
X115885524Y-98455171D01*
X119555630Y-113011192D02*
X119567698Y-113003772D01*
X106430935Y-123130594D02*
X106375166Y-123129553D01*
X119443309Y-108757002D02*
X119449815Y-108778135D01*
X117893658Y-119521202D02*
X117886878Y-119513318D01*
X109433205Y-125355756D02*
X109442225Y-125392680D01*
X107877760Y-102570845D02*
X107891953Y-102561411D01*
X110840052Y-124009077D02*
X110810622Y-124022808D01*
X117770593Y-114699387D02*
X117795778Y-114719901D01*
X117911827Y-118999891D02*
X117922402Y-118987716D01*
X116713188Y-123147388D02*
X116694948Y-123142898D01*
X106681801Y-116788133D02*
X106682123Y-116726419D01*
X118518999Y-119129772D02*
X118523179Y-119157256D01*
X119646708Y-69630582D02*
X119614958Y-67281085D01*
X121318978Y-122498694D02*
X121312340Y-122512309D01*
X116914079Y-117250911D02*
X116922019Y-117236349D01*
X115387968Y-101207176D02*
X115382782Y-101220385D01*
X116573441Y-84231172D02*
X116552275Y-86580672D01*
X119488178Y-113276292D02*
X119489219Y-113220524D01*
X113187671Y-105135701D02*
X113234611Y-105132712D01*
X108142625Y-88500670D02*
X107793375Y-88468915D01*
X113472042Y-101738558D02*
X113462871Y-101748946D01*
X110107114Y-126355743D02*
X110114458Y-126381087D01*
X119593791Y-83865167D02*
X120440458Y-83865167D01*
X120309510Y-113064420D02*
X120314967Y-113078724D01*
X109393884Y-114596716D02*
X109405493Y-114588766D01*
X110785693Y-90840462D02*
X110753942Y-93189961D01*
X106557067Y-121420950D02*
X106572735Y-121416344D01*
X106544586Y-111180761D02*
X106525854Y-111177607D01*
X114420554Y-103684292D02*
X114424723Y-103666821D01*
X117795783Y-123689361D02*
X117797974Y-123745004D01*
X118270875Y-115509335D02*
X118651875Y-115509335D01*
X118721968Y-108666794D02*
X118733330Y-108661567D01*
X118101583Y-125669555D02*
X118045813Y-125670597D01*
X106673360Y-107207866D02*
X106670273Y-107189432D01*
X107716708Y-106905338D02*
X107729709Y-106911718D01*
X115383065Y-102687319D02*
X115395784Y-102680164D01*
X116876562Y-112813186D02*
X116869210Y-112827483D01*
X118509227Y-119561510D02*
X118503417Y-119571950D01*
X112396360Y-122355549D02*
X112337312Y-122361517D01*
X108428375Y-93019749D02*
X108460126Y-90776085D01*
X106667078Y-111304765D02*
X106662590Y-111286437D01*
X109839160Y-125590582D02*
X109888689Y-125596760D01*
X120333364Y-113458979D02*
X120330927Y-113507554D01*
X121337396Y-121492887D02*
X121346863Y-121483309D01*
X116863291Y-123573831D02*
X116851984Y-123427112D01*
X117009123Y-117165996D02*
X117027069Y-117159574D01*
X109366109Y-114628240D02*
X109374260Y-114616366D01*
X114407958Y-110429335D02*
X114407958Y-109582664D01*
X119486511Y-109056001D02*
X119487958Y-109127583D01*
X109394975Y-116170705D02*
X109387324Y-116221888D01*
X106680532Y-116842607D02*
X106681801Y-116788133D01*
X115269342Y-104914756D02*
X115270482Y-104940894D01*
X116101291Y-112122667D02*
X116958541Y-112122667D01*
X110053007Y-115494284D02*
X110036403Y-115498112D01*
X106427897Y-107044258D02*
X106373423Y-107042989D01*
X117870858Y-119487673D02*
X117866926Y-119478448D01*
X116791813Y-112897936D02*
X116776260Y-112904559D01*
X120388932Y-69782956D02*
X120381712Y-69723931D01*
X115205201Y-103483522D02*
X115214243Y-103471056D01*
X110086605Y-126038813D02*
X110084460Y-126079505D01*
X116167884Y-118971682D02*
X116152451Y-119016157D01*
X109113992Y-125666586D02*
X109062589Y-125659910D01*
X106654177Y-121342841D02*
X106659799Y-121327996D01*
X115833566Y-104494070D02*
X115815240Y-104499011D01*
X109406579Y-125158120D02*
X109412625Y-125214255D01*
X112488424Y-117111366D02*
X112504103Y-117116177D01*
X111867958Y-124928500D02*
X111867958Y-123023498D01*
X115380745Y-104591316D02*
X115369719Y-104599241D01*
X106690227Y-116516737D02*
X106693347Y-116498154D01*
X116920875Y-112590279D02*
X116914679Y-112648069D01*
X106657009Y-116997097D02*
X106662154Y-116982744D01*
X122000888Y-121964101D02*
X121994782Y-122028748D01*
X114410679Y-103771558D02*
X114414407Y-103724297D01*
X114350941Y-79669754D02*
X114350941Y-74917838D01*
X109500843Y-115559913D02*
X109490677Y-115570189D01*
X106865184Y-116363274D02*
X106913122Y-116359346D01*
X109339262Y-114711593D02*
X109343003Y-114691434D01*
X117927285Y-115424729D02*
X117934151Y-115433886D01*
X117858612Y-114828934D02*
X117866889Y-114863749D01*
X115359527Y-101608683D02*
X115357318Y-101658150D01*
X119519709Y-123108166D02*
X117794625Y-123129333D01*
X120266953Y-113011192D02*
X120277740Y-113019605D01*
X106662590Y-111286437D02*
X106657288Y-111269854D01*
X109339048Y-124941991D02*
X109348385Y-124953439D01*
X110961442Y-121349625D02*
X110955476Y-121369151D01*
X117665753Y-114651425D02*
X117705989Y-114665312D01*
X110090516Y-125717065D02*
X110094055Y-125732210D01*
X110095232Y-125933838D02*
X110089959Y-125997424D01*
X122018099Y-121740870D02*
X122006792Y-121891083D01*
X118535458Y-123976004D02*
X118535458Y-125669336D01*
X116034344Y-103841292D02*
X116027993Y-103900800D01*
X116129073Y-119151322D02*
X116114128Y-119360405D01*
X116903264Y-123895599D02*
X116897643Y-123876347D01*
X121429276Y-121447225D02*
X121447859Y-121444104D01*
X112723265Y-103774256D02*
X112719526Y-103778988D01*
X117829062Y-117897840D02*
X117821274Y-117912034D01*
X115241440Y-103405726D02*
X115246413Y-103385121D01*
X107528792Y-108630168D02*
X107528792Y-109582664D01*
X117964289Y-118955200D02*
X117981212Y-118945762D01*
X119671017Y-112976609D02*
X119718954Y-112972682D01*
X109304422Y-116377343D02*
X109289961Y-116385758D01*
X106865184Y-107776222D02*
X106843925Y-107773452D01*
X118395869Y-119625190D02*
X118379188Y-119626251D01*
X109202696Y-124874938D02*
X109223335Y-124879864D01*
X116947958Y-100163499D02*
X116947958Y-103539584D01*
X109412625Y-115964416D02*
X109401277Y-116111197D01*
X106626586Y-111219218D02*
X106616198Y-111210047D01*
X107793375Y-59375000D02*
X107761626Y-57756083D01*
X116801742Y-123208444D02*
X116792700Y-123195978D01*
X110229505Y-126473477D02*
X110372235Y-126480774D01*
X110051283Y-126640347D02*
X110046467Y-126624007D01*
X117901175Y-119528760D02*
X117893658Y-119521202D01*
X117923211Y-117341432D02*
X117917455Y-117358285D01*
X105941290Y-107042667D02*
X105941290Y-103550168D01*
X110923395Y-121430709D02*
X110912933Y-121442445D01*
X112410108Y-123026638D02*
X112452521Y-123030940D01*
X116064621Y-103709928D02*
X116057886Y-103727418D01*
X111867958Y-117096832D02*
X112238374Y-117096832D01*
X116869210Y-112827483D02*
X116861064Y-112840590D01*
X109365186Y-116302068D02*
X109357719Y-116318001D01*
X121319009Y-106945076D02*
X121312281Y-106929494D01*
X113615146Y-104472744D02*
X113631757Y-104465998D01*
X107779834Y-102820811D02*
X107787588Y-102762701D01*
X109524329Y-115542958D02*
X109512038Y-115550862D01*
X117844896Y-123919118D02*
X117854363Y-123928695D01*
X118035231Y-119591524D02*
X118018974Y-119587291D01*
X121300674Y-122542577D02*
X121295559Y-122559319D01*
X106611802Y-123168202D02*
X106600041Y-123160828D01*
X113594819Y-113063901D02*
X113602946Y-113051532D01*
X106761864Y-116390437D02*
X106775284Y-116383946D01*
X115368395Y-101285663D02*
X115364364Y-101326472D01*
X120295756Y-113039656D02*
X120303130Y-113051418D01*
X112634558Y-122240123D02*
X112627382Y-122254737D01*
X121312281Y-106929494D02*
X121306243Y-106912339D01*
X119499181Y-113568015D02*
X119496061Y-113549433D01*
X110753942Y-97952461D02*
X110785693Y-100301961D01*
X113764052Y-101050169D02*
X113822299Y-101043363D01*
X108451944Y-125081915D02*
X108440612Y-125040285D01*
X120370312Y-69676922D02*
X120366375Y-69672916D01*
X122027958Y-121436001D02*
X122027958Y-107042667D01*
X109973706Y-126541115D02*
X109959402Y-126535657D01*
X113504274Y-60725587D02*
X114374413Y-60725587D01*
X113631757Y-101079330D02*
X113649803Y-101073220D01*
X109981359Y-86183797D02*
X110013109Y-88427461D01*
X114306293Y-65667342D02*
X114299415Y-65587543D01*
X119190178Y-109465443D02*
X119043458Y-109455662D01*
X114220434Y-101006365D02*
X114242912Y-101001956D01*
X115788915Y-122392753D02*
X115741231Y-122390089D01*
X119567698Y-113003772D02*
X119581118Y-112997281D01*
X113557191Y-65435169D02*
X113544554Y-64500000D01*
X119487958Y-109127583D02*
X119487090Y-109246296D01*
X117866926Y-119478448D02*
X117863683Y-119468878D01*
X115324993Y-105141264D02*
X115329626Y-105147701D01*
X117866889Y-114863749D02*
X117873011Y-114901914D01*
X107595437Y-124773240D02*
X107584354Y-124763134D01*
X112583956Y-123123187D02*
X112589257Y-123139770D01*
X110908001Y-103699334D02*
X110899494Y-103703698D01*
X106806469Y-116373507D02*
X106824377Y-116369434D01*
X108005042Y-106936831D02*
X108375458Y-106936831D01*
X110049984Y-125649510D02*
X110059260Y-125658313D01*
X107740457Y-69567081D02*
X107740457Y-64815165D01*
X110947208Y-118017587D02*
X110955017Y-118025970D01*
X109876387Y-115509116D02*
X109814791Y-115509335D01*
X117252828Y-118039471D02*
X117192054Y-118045676D01*
X109317375Y-124921886D02*
X109328735Y-124931491D01*
X107740457Y-97835167D02*
X107740457Y-93083255D01*
X106631853Y-121379115D02*
X106640266Y-121368329D01*
X106662154Y-107156756D02*
X106657009Y-107142402D01*
X107853016Y-102592845D02*
X107864805Y-102581291D01*
X114328846Y-100969786D02*
X114341313Y-100960744D01*
X121494872Y-122387915D02*
X121457947Y-122396935D01*
X113906441Y-74886087D02*
X113451357Y-74854337D01*
X107485190Y-124037888D02*
X107475875Y-124027597D01*
X116102097Y-120059359D02*
X116101291Y-120578747D01*
X116800409Y-118893108D02*
X116778779Y-118900936D01*
X115378278Y-101234788D02*
X115374410Y-101250435D01*
X116152451Y-119016157D02*
X116139591Y-119075423D01*
X108500845Y-125359210D02*
X108491052Y-125305975D01*
X122662958Y-88426585D02*
X122641792Y-90776085D01*
X120599208Y-97888084D02*
X120101792Y-97856334D01*
X115290364Y-105061351D02*
X115296853Y-105082094D01*
X115183841Y-103504385D02*
X115195094Y-103494605D01*
X114960504Y-103549300D02*
X115017185Y-103547238D01*
X109317441Y-125841012D02*
X109313876Y-125821202D01*
X113551088Y-104518041D02*
X113561605Y-104507245D01*
X122271375Y-93157330D02*
X121922124Y-93189085D01*
X106790129Y-116378324D02*
X106806469Y-116373507D01*
X109371793Y-116284578D02*
X109365186Y-116302068D01*
X108936375Y-116440665D02*
X108481290Y-116472424D01*
X118503417Y-119571950D02*
X118496843Y-119581344D01*
X116677354Y-112929050D02*
X116626696Y-112936053D01*
X121287331Y-121786559D02*
X121288282Y-121722639D01*
X107528792Y-123023498D02*
X107528792Y-121541836D01*
X115795571Y-104503465D02*
X115751979Y-104511185D01*
X117572375Y-105190582D02*
X119699625Y-105105919D01*
X113519861Y-101233315D02*
X113515830Y-101274124D01*
X116893822Y-118817183D02*
X116882185Y-118833527D01*
X115677958Y-101116000D02*
X115625558Y-101116439D01*
X116890246Y-117323381D02*
X116895182Y-117302983D01*
X120277740Y-113019605D02*
X120287317Y-113029073D01*
X108036793Y-69598834D02*
X107740457Y-69567081D01*
X115311968Y-105118743D02*
X115320502Y-105134276D01*
X113810521Y-112973449D02*
X113864529Y-112970883D01*
X116981525Y-123995292D02*
X116967727Y-123987388D01*
X118624887Y-109349796D02*
X118618675Y-109341173D01*
X109371232Y-124994045D02*
X109377360Y-125009854D01*
X113427161Y-101773465D02*
X113412235Y-101779648D01*
X109327958Y-126103250D02*
X109327746Y-126030469D01*
X108411714Y-124973643D02*
X108402717Y-124960083D01*
X117863683Y-119468878D02*
X117861117Y-119458960D01*
X110879478Y-103717246D02*
X110874731Y-103721908D01*
X113580872Y-113092202D02*
X113587483Y-113077440D01*
X113486809Y-101714050D02*
X113479992Y-101726948D01*
X110174625Y-114662665D02*
X110174625Y-113708865D01*
X112608791Y-117573080D02*
X112608791Y-118049328D01*
X106587039Y-123154448D02*
X106572735Y-123148991D01*
X107475875Y-124027597D02*
X107465320Y-124018516D01*
X116806110Y-112890584D02*
X116791813Y-112897936D01*
X106749797Y-116397858D02*
X106761864Y-116390437D01*
X110026933Y-126583674D02*
X110018520Y-126572887D01*
X106790129Y-107761175D02*
X106775284Y-107755552D01*
X115272629Y-104966598D02*
X115275737Y-104991682D01*
X116520524Y-74864920D02*
X116520524Y-79616837D01*
X119595962Y-112991658D02*
X119612302Y-112986842D01*
X119065162Y-108631615D02*
X119101558Y-108633377D01*
X113342163Y-105111435D02*
X113355826Y-105105625D01*
X114110177Y-101020027D02*
X114169538Y-101013824D01*
X106913122Y-107780149D02*
X106865184Y-107776222D01*
X117854363Y-123928695D02*
X117864946Y-123937135D01*
X115995675Y-122822378D02*
X115995458Y-122758920D01*
X114216996Y-65469567D02*
X114123399Y-65461629D01*
X106376911Y-111170282D02*
X106311708Y-111170166D01*
X108601657Y-125571908D02*
X108589771Y-125562178D01*
X108568723Y-125539964D02*
X108559429Y-125527368D01*
X113571875Y-118049328D02*
X113540125Y-118504419D01*
X118397751Y-118927708D02*
X118415721Y-118936602D01*
X120323402Y-113111487D02*
X120326522Y-113130070D01*
X110372235Y-126480774D02*
X110853281Y-126485571D01*
X115894565Y-104468024D02*
X115881049Y-104475617D01*
X110990445Y-103671122D02*
X110963072Y-103678746D01*
X108375458Y-104502664D02*
X106682123Y-104502664D01*
X110862541Y-117988148D02*
X110894467Y-117995027D01*
X110299807Y-108678949D02*
X110345073Y-108670518D01*
X107528792Y-108630168D02*
X107528792Y-107783497D01*
X117955359Y-123967901D02*
X117997238Y-123972306D01*
X121489738Y-121439699D02*
X121538314Y-121437262D01*
X108503698Y-97977979D02*
X108490603Y-97956996D01*
X120192373Y-112982770D02*
X120210281Y-112986842D01*
X116195285Y-103606330D02*
X116175702Y-103612164D01*
X118034192Y-117223410D02*
X118019569Y-117230031D01*
X114407090Y-104102714D02*
X114407958Y-103962919D01*
X117936776Y-125680559D02*
X117919682Y-125684387D01*
X119436431Y-108738784D02*
X119443309Y-108757002D01*
X110058207Y-109476834D02*
X110089959Y-109085249D01*
X119911291Y-112969333D02*
X119984065Y-112969539D01*
X110061515Y-126699062D02*
X110058745Y-126677804D01*
X109447494Y-115661904D02*
X109438257Y-115705788D01*
X114374413Y-60725587D02*
X114374413Y-59575587D01*
X116986067Y-118132605D02*
X116978470Y-118146403D01*
X112577772Y-123108260D02*
X112583956Y-123123187D01*
X121351948Y-122453324D02*
X121342654Y-122463393D01*
X110133995Y-108804856D02*
X110140746Y-108788896D01*
X113395652Y-101784950D02*
X113377324Y-101789437D01*
X113462871Y-101748946D02*
X113452392Y-101758182D01*
X120408419Y-70079961D02*
X120395810Y-69862755D01*
X116003396Y-122968600D02*
X115999086Y-122926722D01*
X119362612Y-108674815D02*
X119380249Y-108681694D01*
X113504274Y-79669754D02*
X114350941Y-79669754D01*
X121382210Y-121461116D02*
X121396514Y-121455659D01*
X110806859Y-102651460D02*
X110468193Y-102683211D01*
X107425439Y-123997770D02*
X107409148Y-123992769D01*
X120319574Y-113585110D02*
X120314967Y-113600778D01*
X116128941Y-65403421D02*
X116520524Y-65435169D01*
X114417140Y-103703425D02*
X114420554Y-103684292D01*
X119458156Y-109409971D02*
X119450736Y-109420719D01*
X120323402Y-113568015D02*
X120319574Y-113585110D01*
X115087562Y-103540279D02*
X115107448Y-103536603D01*
X105941290Y-123129333D02*
X105941290Y-121436001D01*
X117876708Y-125700830D02*
X117864946Y-125708204D01*
X112542865Y-123063380D02*
X112553253Y-123072550D01*
X122006792Y-121891083D02*
X122000888Y-121964101D01*
X116260003Y-118904782D02*
X116231950Y-118908546D01*
X110174625Y-113708865D02*
X111793875Y-113688997D01*
X120439011Y-71544098D02*
X120434835Y-71107618D01*
X110937235Y-118009777D02*
X110943218Y-118013649D01*
X115305392Y-104683080D02*
X115300016Y-104696377D01*
X107105459Y-116355997D02*
X107528792Y-116355997D01*
X117816949Y-123867998D02*
X117822572Y-123882843D01*
X110169581Y-102739173D02*
X110167157Y-102748022D01*
X115726774Y-60725587D02*
X116499413Y-60725587D01*
X115458850Y-102660672D02*
X115477984Y-102657722D01*
X106806469Y-107765991D02*
X106790129Y-107761175D01*
X111867958Y-119012417D02*
X111867958Y-117096832D01*
X112973586Y-103696846D02*
X112936601Y-103702889D01*
X109481473Y-115581767D02*
X109473162Y-115594725D01*
X110550746Y-117955779D02*
X110614856Y-117959959D01*
X113598740Y-101091557D02*
X113587477Y-101097820D01*
X106666556Y-116967086D02*
X106670273Y-116950069D01*
X116798324Y-117869413D02*
X116806693Y-117856988D01*
X117891736Y-117487671D02*
X117885312Y-117542871D01*
X118684271Y-108692663D02*
X118692583Y-108685420D01*
X117350125Y-117117999D02*
X117794625Y-117086249D01*
X117076575Y-118068140D02*
X117059062Y-118074491D01*
X117867509Y-117731109D02*
X117860735Y-117782660D01*
X109986708Y-114525340D02*
X109998469Y-114517966D01*
X107542357Y-124675489D02*
X107538681Y-124655602D01*
X109633171Y-114556951D02*
X109698374Y-114556834D01*
X116880802Y-123780891D02*
X116874598Y-123721007D01*
X115345924Y-101736465D02*
X115341113Y-101752144D01*
X114398069Y-100843105D02*
X114401012Y-100821488D01*
X110941234Y-121403046D02*
X110932803Y-121417608D01*
X120326522Y-113549433D02*
X120323402Y-113568015D01*
X108936375Y-124843832D02*
X109009394Y-124849736D01*
X118509087Y-119079238D02*
X118514291Y-119103699D01*
X107527965Y-124252512D02*
X107526001Y-124197392D01*
X109348385Y-124953439D02*
X109356815Y-124965894D01*
X116851550Y-117678130D02*
X116857483Y-117619099D01*
X110778306Y-124034769D02*
X110742979Y-124045020D01*
X118778785Y-109424908D02*
X118759725Y-109420436D01*
X118920613Y-109446136D02*
X118893560Y-109443217D01*
X109142665Y-116423014D02*
X109083157Y-116429316D01*
X110803671Y-121494538D02*
X110781985Y-121498848D01*
X107740457Y-83759332D02*
X108375458Y-83759332D01*
X107761626Y-86119420D02*
X107740457Y-83759332D01*
X118606896Y-109152883D02*
X118614833Y-109046886D01*
X117975224Y-119572879D02*
X117962281Y-119567491D01*
X113035674Y-101804483D02*
X112559424Y-101804483D01*
X112619257Y-122268009D02*
X112610114Y-122280022D01*
X109969408Y-125611953D02*
X109986026Y-125616716D01*
X107891953Y-102561411D02*
X107907456Y-102552891D01*
X115405022Y-104576978D02*
X115392505Y-104583901D01*
X114389903Y-104267897D02*
X114394393Y-104249657D01*
X116907015Y-117266821D02*
X116914079Y-117250911D01*
X122239625Y-79060333D02*
X122610041Y-79060333D01*
X110061515Y-114373775D02*
X110065442Y-114325837D01*
X107716315Y-124818862D02*
X107693838Y-124814453D01*
X106668688Y-123271585D02*
X106664616Y-123253677D01*
X117046642Y-117153837D02*
X117090999Y-117144127D01*
X115269257Y-104888370D02*
X115269342Y-104914756D01*
X115995458Y-101116000D02*
X115677958Y-101116000D01*
X111021292Y-118546753D02*
X111021292Y-119001834D01*
X109324155Y-106855142D02*
X109319746Y-106877620D01*
X115479686Y-104549136D02*
X115463071Y-104553860D01*
X118799104Y-109429097D02*
X118778785Y-109424908D01*
X118222878Y-118894552D02*
X118269991Y-118896779D01*
X107826572Y-124832525D02*
X107767211Y-124826322D01*
X108375458Y-62000000D02*
X108375458Y-60675000D01*
X121439153Y-107030972D02*
X121421796Y-107026970D01*
X116991989Y-114591673D02*
X117197824Y-114597843D01*
X113515830Y-101274124D02*
X113513412Y-101320918D01*
X108535680Y-125482949D02*
X108528922Y-125465745D01*
X109304899Y-124913117D02*
X109317375Y-124921886D01*
X121536681Y-122380211D02*
X121494872Y-122387915D01*
X120226621Y-112991658D02*
X120241466Y-112997281D01*
X115459591Y-101138431D02*
X115447274Y-101143905D01*
X110172599Y-102730746D02*
X110169581Y-102739173D01*
X108322540Y-74181417D02*
X108322540Y-69630582D01*
X115830259Y-122397262D02*
X115788915Y-122392753D01*
X108870803Y-125642141D02*
X108812641Y-125635663D01*
X114509691Y-93692671D02*
X114012275Y-93660921D01*
X116820175Y-118883983D02*
X116800409Y-118893108D01*
X116951927Y-117200020D02*
X116964204Y-117190117D01*
X115920742Y-122426354D02*
X115908828Y-122419556D01*
X112608067Y-117415881D02*
X112608791Y-117573080D01*
X116767140Y-117899464D02*
X116778625Y-117890585D01*
X110080861Y-125690361D02*
X110086133Y-125703136D01*
X119984065Y-112969539D02*
X120047986Y-112970490D01*
X112610114Y-122280022D02*
X112599886Y-122290856D01*
X109960192Y-60100000D02*
X109960192Y-58060192D01*
X111031875Y-120483496D02*
X111000125Y-120991495D01*
X106729433Y-107723762D02*
X106720993Y-107713179D01*
X116875094Y-117422144D02*
X116881918Y-117369182D01*
X115646207Y-104523836D02*
X115598678Y-104528324D01*
X112492209Y-122340543D02*
X112447811Y-122348774D01*
X120366375Y-69672916D02*
X120341281Y-69668948D01*
X117031635Y-124012894D02*
X117013396Y-124007967D01*
X110175949Y-108737323D02*
X110187137Y-108727157D01*
X109009394Y-124849736D02*
X109074041Y-124855842D01*
X110140746Y-108788896D02*
X110148250Y-108774231D01*
X111021292Y-112016832D02*
X111021292Y-111170166D01*
X113541575Y-104529821D02*
X113551088Y-104518041D01*
X115332532Y-104636385D02*
X115324859Y-104647120D01*
X106561757Y-111184700D02*
X106544586Y-111180761D01*
X109380875Y-106143083D02*
X109349126Y-106598164D01*
X105941290Y-117096832D02*
X106311708Y-117096832D01*
X106682123Y-121012662D02*
X106682123Y-120589331D01*
X117816763Y-114742950D02*
X117833958Y-114768697D01*
X115994735Y-118576950D02*
X115995458Y-118419751D01*
X109327746Y-126030469D02*
X109326759Y-125966494D01*
X116544965Y-117942304D02*
X116600755Y-117940014D01*
X112787179Y-103739076D02*
X112765914Y-103747398D01*
X108491052Y-125305975D02*
X108481290Y-125245996D01*
X117836483Y-125737007D02*
X117829062Y-125749075D01*
X107526001Y-124197392D02*
X107522177Y-124150132D01*
X120172825Y-113700119D02*
X120151566Y-113702888D01*
X116072240Y-103693995D02*
X116064621Y-103709928D01*
X110362359Y-69663211D02*
X110753942Y-69694959D01*
X116701908Y-118917112D02*
X116639884Y-118922292D01*
X114338663Y-66516405D02*
X114329774Y-66170711D01*
X109960192Y-74404542D02*
X109981359Y-76764627D01*
X121421796Y-107026970D02*
X121405807Y-107022149D01*
X113398441Y-70144752D02*
X114350941Y-70144752D01*
X106679682Y-111425614D02*
X106676336Y-111371083D01*
X115214243Y-103471056D02*
X115222305Y-103457124D01*
X112693458Y-121436001D02*
X112672292Y-121891083D01*
X116996720Y-124002126D02*
X116981525Y-123995292D01*
X113963458Y-104418001D02*
X114110177Y-104406694D01*
X117794625Y-123552664D02*
X117794832Y-123625438D01*
X113497066Y-104644730D02*
X113506556Y-104605523D01*
X108761362Y-125628286D02*
X108716440Y-125619560D01*
X107673233Y-124809480D02*
X107654418Y-124803860D01*
X106682123Y-123023498D02*
X107528792Y-123023498D01*
X121344010Y-106983135D02*
X121334806Y-106971821D01*
X115295162Y-104710358D02*
X115290808Y-104725040D01*
X115865711Y-122404066D02*
X115848693Y-122400349D01*
X109380875Y-124018338D02*
X109349126Y-120980920D01*
X110885206Y-103712656D02*
X110879478Y-103717246D01*
X115320576Y-101790906D02*
X115311405Y-101801294D01*
X110174625Y-121552420D02*
X110174625Y-123023498D01*
X106582389Y-107067781D02*
X106568036Y-107062637D01*
X107528792Y-116355997D02*
X107528792Y-117202667D01*
X121277596Y-106741846D02*
X121265959Y-106598164D01*
X107528792Y-111180754D02*
X107528792Y-109582664D01*
X117858125Y-119403998D02*
X117866062Y-119316684D01*
X109930526Y-115508074D02*
X109876387Y-115509116D01*
X116909614Y-123913161D02*
X116903264Y-123895599D01*
X106521390Y-123137436D02*
X106479511Y-123133031D01*
X117904014Y-123956346D02*
X117919682Y-123960953D01*
X121823733Y-122337565D02*
X121805407Y-122342506D01*
X113437493Y-105013547D02*
X113443008Y-104998077D01*
X109484227Y-114564276D02*
X109504586Y-114561819D01*
X115895722Y-122413613D02*
X115881369Y-122408468D01*
X113476626Y-104798997D02*
X113482675Y-104741002D01*
X109437347Y-126496772D02*
X109423043Y-126491443D01*
X119911291Y-113710164D02*
X119838518Y-113709957D01*
X107787588Y-102762701D02*
X107792103Y-102736811D01*
X107465320Y-124018516D02*
X107453448Y-124010567D01*
X110912933Y-121442445D02*
X110901340Y-121452914D01*
X122322080Y-121436890D02*
X122265399Y-121439001D01*
X118514315Y-119549985D02*
X118509227Y-119561510D01*
X110199417Y-108717947D02*
X110212856Y-108709624D01*
X108457840Y-97920518D02*
X108438048Y-97904930D01*
X114345318Y-66912205D02*
X114338663Y-66516405D01*
X108292507Y-124886579D02*
X108272731Y-124880833D01*
X111015669Y-118361376D02*
X111019845Y-118452390D01*
X112728012Y-103769594D02*
X112723265Y-103774256D01*
X110516764Y-124072744D02*
X110400789Y-124073971D01*
X115275791Y-103105665D02*
X115281581Y-103029048D01*
X121897186Y-122303090D02*
X121884732Y-122311520D01*
X118676659Y-108700448D02*
X118684271Y-108692663D01*
X117192054Y-118045676D02*
X117139946Y-118053137D01*
X120374183Y-69686859D02*
X120370312Y-69676922D01*
X109327958Y-115509335D02*
X109327958Y-115033087D01*
X106843925Y-116366044D02*
X106865184Y-116363274D01*
X116487108Y-118920949D02*
X116395085Y-118915200D01*
X116943638Y-118625154D02*
X116937284Y-118684052D01*
X109470110Y-126505011D02*
X109453015Y-126501271D01*
X115041408Y-101856108D02*
X114884208Y-101856831D01*
X110617670Y-124066121D02*
X110516764Y-124072744D01*
X118614833Y-109046886D02*
X118622771Y-108938903D01*
X110931437Y-123935262D02*
X110912289Y-123956670D01*
X120154708Y-102470665D02*
X120599208Y-102438914D01*
X117740800Y-114681245D02*
X117770593Y-114699387D01*
X114561215Y-103559350D02*
X114582087Y-103556617D01*
X120103629Y-112972682D02*
X120151566Y-112976609D01*
X113355826Y-105105625D02*
X113368422Y-105099051D01*
X116292261Y-103588983D02*
X116239867Y-103596633D01*
X109438257Y-115705788D02*
X109430694Y-115757360D01*
X110100632Y-125828432D02*
X110098909Y-125877678D01*
X116937284Y-118684052D02*
X116932781Y-118710657D01*
X117808061Y-125811587D02*
X117804671Y-125831135D01*
X109866178Y-114553137D02*
X109908056Y-114548731D01*
X115222305Y-103457124D02*
X115229469Y-103441647D01*
X110174625Y-115085995D02*
X110174420Y-115158770D01*
X109003559Y-125653977D02*
X108936375Y-125648169D01*
X113504274Y-93629170D02*
X113504274Y-88983084D01*
X115311310Y-104670450D02*
X115305392Y-104683080D01*
X115975168Y-104353647D02*
X115969186Y-104371286D01*
X116894509Y-112762497D02*
X116889145Y-112780759D01*
X115371437Y-102695530D02*
X115383065Y-102687319D01*
X115286933Y-104740442D02*
X115283514Y-104756579D01*
X121295559Y-122559319D02*
X121286539Y-122596244D01*
X106749797Y-107741641D02*
X106739010Y-107733229D01*
X117860735Y-117782660D02*
X117852503Y-117827249D01*
X122111227Y-121474110D02*
X122098743Y-121482873D01*
X115159540Y-101851043D02*
X115105008Y-101854390D01*
X116729608Y-118912889D02*
X116701908Y-118917112D01*
X115335343Y-101766398D02*
X115328526Y-101779296D01*
X116895182Y-117302983D02*
X116900744Y-117284154D01*
X110122477Y-108840931D02*
X110127928Y-108822179D01*
X117919682Y-123960953D02*
X117936776Y-123964781D01*
X110100701Y-126327887D02*
X110107114Y-126355743D01*
X117816949Y-125777339D02*
X117812133Y-125793679D01*
X110351775Y-83908377D02*
X109960192Y-83940128D01*
X106433974Y-111171096D02*
X106376911Y-111170282D01*
X106761864Y-107749062D02*
X106749797Y-107741641D01*
X112238374Y-117096832D02*
X112360641Y-117097762D01*
X112518357Y-123048613D02*
X112531255Y-123055429D01*
X121959353Y-122214782D02*
X121952758Y-122231025D01*
X110065442Y-114325837D02*
X110067633Y-114270194D01*
X108434288Y-125021640D02*
X108427419Y-125004359D01*
X109302802Y-106934145D02*
X109295637Y-106949623D01*
X106659799Y-123237337D02*
X106654177Y-123222492D01*
X119519453Y-113051418D02*
X119526827Y-113039656D01*
X119293453Y-108656537D02*
X119318997Y-108662206D01*
X110614856Y-117959959D02*
X110674687Y-117964666D01*
X115726774Y-70144752D02*
X115747941Y-72504837D01*
X116844874Y-117729533D02*
X116851550Y-117678130D01*
X118820712Y-109433012D02*
X118799104Y-109429097D01*
X109959402Y-114537177D02*
X109973706Y-114531719D01*
X106539972Y-121424778D02*
X106557067Y-121420950D01*
X115995458Y-118419751D02*
X115995458Y-117943503D01*
X108481290Y-116472424D02*
X108481290Y-124812082D01*
X113479992Y-101726948D02*
X113472042Y-101738558D01*
X106659799Y-121327996D02*
X106664616Y-121311655D01*
X113508374Y-113657251D02*
X113540125Y-113318584D01*
X121369208Y-121467496D02*
X121382210Y-121461116D01*
X110133857Y-115441662D02*
X110125677Y-115452449D01*
X120314967Y-113600778D02*
X120309510Y-113615082D01*
X109888689Y-125596760D02*
X109931986Y-125603713D01*
X111867958Y-123023498D02*
X112238374Y-123023498D01*
X119699625Y-105105919D02*
X119699625Y-102502420D01*
X110989253Y-118131994D02*
X111000125Y-118198821D01*
X120151566Y-113702888D02*
X120103629Y-113706816D01*
X109424263Y-115817243D02*
X109412625Y-115964416D01*
X119774597Y-113709006D02*
X119718954Y-113706816D01*
X112646331Y-122206548D02*
X112640851Y-122224088D01*
X118618675Y-109341173D02*
X118613345Y-109332140D01*
X118657768Y-108727214D02*
X118663433Y-108717708D01*
X110982823Y-121222321D02*
X110975650Y-121279564D01*
X117880824Y-119505104D02*
X117875487Y-119496557D01*
X113602946Y-113051532D02*
X113611929Y-113040282D01*
X118525701Y-119508510D02*
X118522508Y-119523523D01*
X116395085Y-118915200D02*
X116291791Y-118906582D01*
X117902665Y-115368727D02*
X117906411Y-115381353D01*
X113455458Y-107783497D02*
X113455458Y-108630168D01*
X106635822Y-111229697D02*
X106626586Y-111219218D01*
X109448325Y-114571368D02*
X109465496Y-114567430D01*
X119718954Y-112972682D02*
X119774597Y-112970490D01*
X106681801Y-107351370D02*
X106680532Y-107296895D01*
X108440612Y-125040285D02*
X108434288Y-125021640D01*
X121457946Y-107034233D02*
X121439153Y-107030972D01*
X113377324Y-101789437D02*
X113357166Y-101793179D01*
X116568906Y-112942249D02*
X116503458Y-112948166D01*
X108375458Y-83759332D02*
X108375458Y-78996832D01*
X121377662Y-107009753D02*
X121365371Y-107002025D01*
X115324859Y-104647120D02*
X115317791Y-104658469D01*
X112593745Y-123158097D02*
X112597487Y-123178256D01*
X117822572Y-125762495D02*
X117816949Y-125777339D01*
X107767427Y-102965059D02*
X107773305Y-102888005D01*
X118787285Y-108645154D02*
X118819720Y-108639428D01*
X116010186Y-123004277D02*
X116006446Y-122987183D01*
X112270125Y-122367331D02*
X111867958Y-122399090D01*
X114407958Y-127362668D02*
X110068791Y-127362668D01*
X106662154Y-116982744D02*
X106666556Y-116967086D01*
X113294203Y-105124716D02*
X113311408Y-105120935D01*
X117993445Y-117245304D02*
X117981844Y-117254065D01*
X112599886Y-122290856D02*
X112588506Y-122300593D01*
X109333745Y-114757753D02*
X109336198Y-114733670D01*
X109751325Y-115509563D02*
X109695502Y-115510658D01*
X113470598Y-104853380D02*
X113476626Y-104798997D01*
X109328681Y-114875886D02*
X109330399Y-114812285D01*
X107105459Y-107783497D02*
X107032685Y-107783291D01*
X121321562Y-121515740D02*
X121328983Y-121503673D01*
X110870992Y-103726640D02*
X110868287Y-103731440D01*
X118535458Y-125669336D02*
X118165041Y-125669336D01*
X115317791Y-104658469D02*
X115311310Y-104670450D01*
X116100878Y-123107009D02*
X116086402Y-123101387D01*
X108364285Y-97868211D02*
X108334695Y-97859165D01*
X110753942Y-83876627D02*
X110351775Y-83908377D01*
X113671999Y-112998972D02*
X113687506Y-112993331D01*
X113518341Y-104571650D02*
X113525273Y-104556567D01*
X108415899Y-97891047D02*
X108391332Y-97878823D01*
X115726774Y-79680338D02*
X115747941Y-81924007D01*
X115970623Y-118796311D02*
X115975924Y-118779727D01*
X110806859Y-63775000D02*
X110806859Y-64985377D01*
X106627885Y-117042593D02*
X106636560Y-117032894D01*
X116721409Y-112920715D02*
X116677354Y-112929050D01*
X115980412Y-118761400D02*
X115984154Y-118741242D01*
X121945495Y-122245943D02*
X121937508Y-122259604D01*
X116090486Y-103666456D02*
X116080832Y-103679534D01*
X121397320Y-122420355D02*
X121384658Y-122427591D01*
X115524500Y-105196536D02*
X115716571Y-105207947D01*
X116838156Y-118873510D02*
X116820175Y-118883983D01*
X106843925Y-107773452D02*
X106824377Y-107770063D01*
X110068227Y-115489677D02*
X110053007Y-115494284D01*
X119171435Y-108638823D02*
X119204482Y-108642445D01*
X113925915Y-112969651D02*
X113995208Y-112969333D01*
X116073314Y-123094896D02*
X116061543Y-123087476D01*
X109331614Y-106804246D02*
X109324155Y-106855142D01*
X117779966Y-117957141D02*
X117766694Y-117965859D01*
X113657745Y-113005416D02*
X113671999Y-112998972D01*
D23*
X111342893Y-67150000D02*
X111325000Y-67150000D01*
X119111580Y-73738420D02*
X119111580Y-73250000D01*
X103050000Y-120075000D02*
X103050000Y-116425000D01*
X104700000Y-95600000D02*
X105600000Y-95600000D01*
X118857107Y-90875000D02*
X118857107Y-73992893D01*
X118525000Y-63825000D02*
X118225000Y-64125000D01*
X111000000Y-94975000D02*
X111000000Y-95107107D01*
X111417893Y-86150000D02*
X111350000Y-86217893D01*
X126475000Y-73700000D02*
X125125000Y-73700000D01*
X104200000Y-86050000D02*
X105751444Y-86050000D01*
X125900000Y-96725000D02*
X125900000Y-95150000D01*
X125775000Y-84400000D02*
X124275000Y-85900000D01*
X105751444Y-86050000D02*
X105874500Y-85926944D01*
X111000000Y-95107107D02*
X111542893Y-95650000D01*
X104700000Y-111125000D02*
X104700000Y-111550000D01*
X124425000Y-104700000D02*
X124250000Y-104525000D01*
X124425000Y-105350000D02*
X124425000Y-104700000D01*
X118525000Y-63225000D02*
X118525000Y-63825000D01*
X104700000Y-111550000D02*
X105850000Y-112700000D01*
X111325000Y-67150000D02*
X110775000Y-67700000D01*
X119111580Y-73004473D02*
X118632107Y-72525000D01*
X125900000Y-95150000D02*
X125925000Y-95125000D01*
X111492893Y-76675000D02*
X111492893Y-77307107D01*
X111492893Y-77307107D02*
X111150000Y-77650000D01*
X118857107Y-73992893D02*
X119111580Y-73738420D01*
X119111580Y-73250000D02*
X119111580Y-73004473D01*
X111350000Y-86217893D02*
X111350000Y-94625000D01*
X124275000Y-85900000D02*
X124275000Y-95300000D01*
X103425000Y-120450000D02*
X103050000Y-120075000D01*
X111350000Y-94625000D02*
X111000000Y-94975000D01*
D21*
X112693198Y-65243198D02*
X112550000Y-65100000D01*
X117625000Y-89750000D02*
X117442893Y-89932107D01*
X117442893Y-82492893D02*
X117625000Y-82675000D01*
X117442893Y-89932107D02*
X117442893Y-90875000D01*
X105100000Y-94900000D02*
X106925000Y-93075000D01*
X112975000Y-95632107D02*
X112975000Y-94625000D01*
X112575000Y-84900000D02*
X112575000Y-77925000D01*
X104425000Y-121450000D02*
X104425000Y-121750000D01*
X117525000Y-62225000D02*
X116725000Y-63025000D01*
X112907107Y-77592893D02*
X112907107Y-75682107D01*
X112693198Y-67991727D02*
X112693198Y-65243198D01*
X116725000Y-64375000D02*
X117217893Y-64867893D01*
X104425000Y-121750000D02*
X104725000Y-122050000D01*
X112975000Y-94625000D02*
X112625000Y-94275000D01*
X103300000Y-94900000D02*
X105100000Y-94900000D01*
X112907107Y-75682107D02*
X112575000Y-75350000D01*
X127600000Y-83400000D02*
X126775000Y-83400000D01*
X123425000Y-106825000D02*
X123875000Y-107275000D01*
X117625000Y-82675000D02*
X117625000Y-89750000D01*
X117442893Y-81550000D02*
X117442893Y-82492893D01*
X117217893Y-81325000D02*
X117442893Y-81550000D01*
X103075000Y-96600000D02*
X103075000Y-95125000D01*
X112575000Y-75350000D02*
X112575000Y-68109925D01*
X103075000Y-96600000D02*
X103075000Y-115100000D01*
X112575000Y-68109925D02*
X112693198Y-67991727D01*
X106925000Y-93075000D02*
X106925000Y-63475000D01*
X112832107Y-85157107D02*
X112575000Y-84900000D01*
X112957107Y-95650000D02*
X112975000Y-95632107D01*
X116725000Y-63025000D02*
X116725000Y-64375000D01*
X112832107Y-87050000D02*
X112832107Y-85157107D01*
X103075000Y-95125000D02*
X103300000Y-94900000D01*
X103700000Y-96600000D02*
X103075000Y-96600000D01*
X123425000Y-106350000D02*
X123425000Y-106825000D01*
X117217893Y-64867893D02*
X117217893Y-81325000D01*
X112575000Y-77925000D02*
X112907107Y-77592893D01*
X112625000Y-87257107D02*
X112832107Y-87050000D01*
X112625000Y-94275000D02*
X112625000Y-87257107D01*
D23*
X117240526Y-127584974D02*
X118973503Y-127584974D01*
X117150000Y-127675500D02*
X117240526Y-127584974D01*
X111725793Y-129550000D02*
X118550000Y-129550000D01*
X105449501Y-123273708D02*
X111725793Y-129550000D01*
X104700000Y-118625000D02*
X105449501Y-119374501D01*
X118550000Y-129550000D02*
X121275000Y-126825000D01*
X105449501Y-119374501D02*
X105449501Y-123273708D01*
X121300000Y-131450000D02*
X121650000Y-131800000D01*
X122725000Y-131400000D02*
X122725000Y-130375000D01*
X121650000Y-131800000D02*
X122325000Y-131800000D01*
X102250500Y-94449500D02*
X102250500Y-119825500D01*
X112575000Y-131450000D02*
X121300000Y-131450000D01*
X103150000Y-93550000D02*
X102250500Y-94449500D01*
X102875000Y-120450000D02*
X102875000Y-121750000D01*
X122325000Y-131800000D02*
X122725000Y-131400000D01*
X122300000Y-128351664D02*
X121975500Y-128027164D01*
X122725000Y-130375000D02*
X122300000Y-129950000D01*
X122300000Y-129950000D02*
X122300000Y-128351664D01*
X102875000Y-121750000D02*
X112575000Y-131450000D01*
X104200000Y-93550000D02*
X103150000Y-93550000D01*
X102250500Y-119825500D02*
X102875000Y-120450000D01*
X128365474Y-105434526D02*
X124000000Y-109800000D01*
X124000000Y-127275000D02*
X123325000Y-127950000D01*
X126475000Y-81200000D02*
X128365474Y-83090474D01*
X128365474Y-83090474D02*
X128365474Y-105434526D01*
X124000000Y-109800000D02*
X124000000Y-127275000D01*
X125900000Y-107325000D02*
X125900000Y-104225000D01*
X123075000Y-129575000D02*
X123075000Y-128870405D01*
X123075000Y-128870405D02*
X122650000Y-128445405D01*
X123625000Y-109600000D02*
X125900000Y-107325000D01*
X122650000Y-127575000D02*
X123625000Y-126600000D01*
X122650000Y-128445405D02*
X122650000Y-127575000D01*
X123625000Y-126600000D02*
X123625000Y-109600000D01*
X112579270Y-130960000D02*
X121975000Y-130960000D01*
X103425000Y-121450000D02*
X103425000Y-121805730D01*
X103425000Y-121805730D02*
X112579270Y-130960000D01*
X104200000Y-96100000D02*
X104200000Y-109025000D01*
X103600000Y-114375000D02*
X104049501Y-114824501D01*
X104049501Y-116625499D02*
X103575000Y-117100000D01*
X103700000Y-95600000D02*
X104200000Y-96100000D01*
X103600000Y-109625000D02*
X103600000Y-114375000D01*
X103575000Y-119600000D02*
X104425000Y-120450000D01*
X103575000Y-117100000D02*
X103575000Y-119600000D01*
X104200000Y-109025000D02*
X103600000Y-109625000D01*
X104049501Y-114824501D02*
X104049501Y-116625499D01*
X123425000Y-101100000D02*
X123425000Y-105350000D01*
X123750000Y-100775000D02*
X123425000Y-101100000D01*
X104700000Y-98050000D02*
X107575000Y-100925000D01*
X104700000Y-96600000D02*
X104700000Y-98050000D01*
X124925000Y-104245405D02*
X124925000Y-105850000D01*
X124925000Y-105850000D02*
X124425000Y-106350000D01*
X126775000Y-84400000D02*
X126175000Y-85000000D01*
X126175000Y-85000000D02*
X125700000Y-85000000D01*
X124825000Y-85875000D02*
X124825000Y-94800000D01*
X124825000Y-94800000D02*
X124949500Y-94924500D01*
X124949500Y-94924500D02*
X124949500Y-95579388D01*
X124775000Y-104095405D02*
X124925000Y-104245405D01*
X125700000Y-85000000D02*
X124825000Y-85875000D01*
X124949500Y-95579388D02*
X124775000Y-95753888D01*
X124775000Y-95753888D02*
X124775000Y-104095405D01*
X118525000Y-62225000D02*
X119225000Y-62925000D01*
X119225000Y-64625000D02*
X118700000Y-65150000D01*
X125775000Y-83400000D02*
X123339152Y-80964152D01*
X122850000Y-68275000D02*
X122850000Y-68250000D01*
X119225000Y-62925000D02*
X119225000Y-64625000D01*
X123339152Y-80964152D02*
X123339152Y-68764152D01*
X123339152Y-68764152D02*
X122850000Y-68275000D01*
X117925000Y-65010020D02*
X117925000Y-71817893D01*
X117525000Y-63225000D02*
X117525000Y-64610020D01*
X117525000Y-64610020D02*
X117925000Y-65010020D01*
X117925000Y-80617893D02*
X118150000Y-80842893D01*
X117925000Y-73232107D02*
X117925000Y-80617893D01*
X118150000Y-82257107D02*
X118150000Y-90167893D01*
X112250000Y-96600000D02*
X112975000Y-97325000D01*
X112250000Y-96357107D02*
X112250000Y-96600000D01*
X118150000Y-91582107D02*
X118150000Y-97325000D01*
X112150000Y-94842893D02*
X112150000Y-86882107D01*
X112150000Y-86882107D02*
X112125000Y-86857107D01*
X112250000Y-94942893D02*
X112150000Y-94842893D01*
X112125000Y-85442893D02*
X112175000Y-85392893D01*
X112175000Y-77407107D02*
X112200000Y-77382107D01*
X112175000Y-85392893D02*
X112175000Y-77407107D01*
X112050000Y-75817893D02*
X112050000Y-67857107D01*
X112200000Y-75967893D02*
X112050000Y-75817893D01*
M02*
